<?xml version="1.0" encoding="iso-8859-1"?>
<!-- Generator: Adobe Illustrator 16.0.0, SVG Export Plug-In . SVG Version: 6.00 Build 0)  -->
<!DOCTYPE svg PUBLIC "-//W3C//DTD SVG 1.1//EN" "http://www.w3.org/Graphics/SVG/1.1/DTD/svg11.dtd">
<svg version="1.1" id="&#x56FE;&#x5C42;_1" xmlns="http://www.w3.org/2000/svg" xmlns:xlink="http://www.w3.org/1999/xlink" x="0px"
	 y="0px" width="356px" height="356px" viewBox="0 0 356 356" style="enable-background:new 0 0 356 356;" xml:space="preserve">
<g>
	<path style="fill:#E1EFD6;" d="M178.5,68.591c29.225,0,56.699,11.38,77.364,32.045c20.664,20.665,32.045,48.14,32.045,77.364
		c0,29.225-11.381,56.699-32.045,77.364c-20.665,20.664-48.14,32.045-77.364,32.045c-29.224,0-56.699-11.381-77.364-32.045
		C80.471,234.699,69.091,207.225,69.091,178c0-29.224,11.38-56.699,32.045-77.364C121.801,79.971,149.276,68.591,178.5,68.591
		 M178.5,58.591c-65.948,0-119.409,53.461-119.409,119.409c0,65.948,53.461,119.409,119.409,119.409
		c65.948,0,119.409-53.461,119.409-119.409C297.909,112.052,244.448,58.591,178.5,58.591L178.5,58.591z"/>
</g>
<g>
	<path style="fill:#F8EFD2;" d="M62.106,48.548c-3.189,0-6.378,1.213-8.817,3.64C33.357,72.026,18.112,96.568,9.36,124.01
		c-2.098,6.577,1.534,13.61,8.111,15.708c1.263,0.403,2.542,0.594,3.801,0.594c5.294,0,10.211-3.392,11.906-8.705
		c7.376-23.127,20.428-44.462,37.746-61.698c4.894-4.87,4.912-12.784,0.042-17.678C68.524,49.776,65.316,48.548,62.106,48.548
		L62.106,48.548z M13.471,164.708c-6.854,0-12.419,5.524-12.469,12.378c0,0.024,0,0.039,0,0.063c0,0,0,0,0,0c0,0.033,0,0.066,0,0.1
		c0,0.006,0,0.005,0,0.011c0,0.034,0,0.067,0,0.1c0,0.006,0,0,0,0.006c0,0.03,0,0.061,0,0.091c0,0.006,0,0.015,0,0.021
		c0,0.032,0,0.063,0,0.095c0,0.006,0,0.005,0,0.011c0,0.028,0,0.056,0,0.084c0,0.012,0,0.014,0,0.026c0,0.03,0,0.06,0,0.09
		c0,0.006,0,0.01,0,0.016c0,0.027,0,0.054,0,0.082c0,0.012,0,0.014,0,0.026c0,0.031,0,0.063,0,0.094l0,0c0,0.027,0,0.053,0,0.08
		c0,0.012,0,0.014,0,0.026c0,0.016,0,0.036,0,0.052c0,0.012,0,0.023,0,0.035c0,0.014,0,0.03,0,0.044c0,0.012,0,0.022,0,0.034
		c0,0.016,0,0.034,0,0.05c0,0.012,0,0.019,0,0.03c0,0.021,0,0.044,0,0.065c0,0.006,0,0.007,0,0.013c0,0.026,0,0.052,0,0.079
		c0,0.012,0,0.01,0,0.022c0,0.02,0,0.04,0,0.06c0,0.006,0,0.021,0,0.026c0,0.018,0,0.032,0,0.05c0,0.012,0,0.021,0,0.034
		c0,0.018,0,0.034,0,0.051c0,0.006,0,0.021,0,0.026c0,0.021,0,0.041,0,0.063c0,0.006,0,0.012,0,0.018c0,0.027,0,0.054,0,0.081
		c0,0.006,0,0.008,0,0.014c0,0.021,0,0.044,0,0.066c0,0.006,0,0.02,0,0.025c0,0.02,0,0.035,0,0.055c0,0.012,0,0.016,0,0.027
		c0,0.018,0,0.035,0,0.053c0,0.006,0,0.023,0,0.029c0,0.019,0,0.038,0,0.056c0,0.012,0,0.012,0,0.023c0,0.025,0,0.054,0.001,0.078
		c0,0.006,0,0.013,0,0.019c0,0.021,0,0.042,0,0.063c0,0.006,0,0.019,0,0.024c0,0.018,0,0.034,0,0.053c0,0.012,0,0.021,0,0.033
		c0,0.018,0,0.031,0,0.049c0,0.006,0,0.023,0,0.029c0,0.018,0,0.036,0,0.054c0,0.012,0,0.015,0,0.026c0,0.026,0,0.052,0,0.078
		c0,0.006,0,0.005,0,0.011c0,0.022,0,0.046,0.001,0.069c0,0.012,0,0.014,0,0.025c0,0.018,0,0.037,0.001,0.055
		c0,0.006,0,0.021,0,0.027c0,0.018,0,0.035,0,0.053c0,0.012,0,0.018,0,0.029c0,0.021,0,0.036,0,0.057c0,0.006,0,0.016,0,0.021
		c0,0.027,0,0.052,0.001,0.079v0.001c0,0.028,0,0.055,0.001,0.083v0.011c0,0.021,0,0.046,0.001,0.066c0,0.007,0,0.021,0,0.026
		c0,0.019,0,0.038,0,0.056c0,0.012,0,0.014,0,0.025c0,0.02,0,0.036,0.001,0.056c0,0.006,0,0.02,0,0.025
		c0,0.021,0.001,0.042,0.001,0.063c0,0.006,0,0.011,0,0.017c0,0.027,0,0.051,0.001,0.077c0,0.012,0,0.017,0,0.028
		c0,0.019,0,0.035,0.001,0.053c0,0.006,0,0.021,0,0.027c0,0.018,0.001,0.035,0.001,0.053c0,0.013,0,0.019,0,0.03
		c0,0.016,0,0.034,0.001,0.05c0,0.006,0,0.024,0,0.03c0,0.018,0,0.033,0.001,0.051c0,0.013,0,0.018,0,0.029
		c0,0.027,0,0.052,0.001,0.079c0,0.006,0,0.004,0,0.01c0,0.023,0,0.046,0.001,0.068c0,0.006,0,0.019,0,0.024
		c0,0.02,0.001,0.038,0.001,0.058c0,0.013,0,0.012,0,0.023c0,0.02,0.001,0.038,0.001,0.058c0,0.006,0,0.019,0,0.024
		c0,0.021,0.001,0.044,0.001,0.065c0,0.006,0,0.008,0,0.014c0,0.026,0.001,0.055,0.002,0.081v0.007c0,0.024,0.001,0.05,0.001,0.074
		c0,0.006,0,0.012,0,0.018c0,0.021,0,0.041,0.001,0.063c0,0.006,0,0.019,0,0.024c0,0.018,0.001,0.039,0.001,0.057
		c0,0.006,0,0.019,0,0.024c0,0.02,0.001,0.039,0.001,0.059c0,0.007,0,0.016,0,0.021c0.001,0.054,0.002,0.104,0.003,0.157
		c0,0.013,0,0.02,0.001,0.031c0,0.018,0,0.031,0.001,0.049c0,0.013,0,0.02,0.001,0.031c0,0.017,0,0.034,0.001,0.05
		c0,0.013,0,0.017,0,0.028c0,0.02,0.001,0.038,0.001,0.058c0,0.006,0,0.017,0,0.022c0,0.021,0.001,0.041,0.001,0.062
		c0,0.007,0,0.014,0,0.02c0.001,0.026,0.001,0.053,0.002,0.08c0,0.006,0,0.006,0,0.013c0,0.022,0.001,0.044,0.002,0.067
		c0,0.006,0,0.016,0,0.021c0,0.019,0.001,0.038,0.001,0.057c0,0.012,0,0.017,0,0.028c0,0.016,0.001,0.033,0.001,0.049
		c0,0.007,0,0.026,0.001,0.032c0,0.02,0.001,0.04,0.001,0.06c0,0.006,0,0.012,0,0.018c0,0.026,0.001,0.052,0.002,0.078
		c0,0.012,0,0.014,0.001,0.025c0,0.018,0.001,0.037,0.001,0.056c0,0.006,0,0.021,0,0.026c0,0.018,0.001,0.034,0.001,0.052
		c0,0.013,0,0.02,0.001,0.031c0,0.018,0.001,0.033,0.001,0.051c0,0.006,0,0.022,0.001,0.028c0,0.02,0.001,0.037,0.001,0.057
		c0,0.012,0,0.011,0,0.022c0.001,0.026,0.001,0.052,0.002,0.079c0,0.006,0,0.01,0,0.016c0,0.02,0.001,0.042,0.002,0.062
		c0,0.012,0,0.021,0.001,0.033c0,0.014,0.001,0.033,0.001,0.047c0,0.013,0,0.018,0.001,0.03c0,0.018,0.001,0.034,0.001,0.052
		c0,0.006,0,0.022,0.001,0.028c0,0.02,0.001,0.039,0.002,0.059c0,0.006,0,0.013,0,0.019c0,0.027,0.001,0.053,0.002,0.079l0,0.01
		c0,0.024,0.001,0.047,0.002,0.071c0,0.012,0,0.014,0.001,0.025c0,0.018,0.001,0.035,0.001,0.053c0,0.012,0.001,0.019,0.001,0.03
		c0,0.018,0.001,0.034,0.001,0.052c0,0.012,0,0.016,0.001,0.027c0,0.018,0.001,0.037,0.002,0.055c0,0.006,0,0.019,0,0.025
		c0.001,0.024,0.002,0.05,0.003,0.075v0.003c0.001,0.026,0.002,0.054,0.003,0.08c0,0.006,0,0.014,0,0.02
		c0,0.02,0.001,0.041,0.002,0.061c0,0.006,0.001,0.019,0.001,0.024c0,0.018,0.001,0.037,0.002,0.055c0,0.012,0,0.017,0.001,0.028
		c0.001,0.018,0.001,0.04,0.002,0.058c0,0.006,0,0.013,0.001,0.019c0.001,0.025,0.002,0.05,0.002,0.074c0,0.006,0,0.001,0,0.007
		c0.001,0.028,0.002,0.055,0.003,0.083c0,0.006,0-0.004,0,0.002c0.001,0.027,0.002,0.05,0.003,0.076c0,0.006,0,0.014,0.001,0.021
		c0,0.021,0.001,0.042,0.002,0.063l0,0.017c0.001,0.021,0.001,0.042,0.002,0.063c0,0.006,0,0.014,0.001,0.02
		c0.001,0.026,0.002,0.051,0.003,0.077c0,0.006,0-0.005,0,0.001c0.001,0.028,0.002,0.056,0.003,0.084c0,0.006,0,0,0,0.006
		c0.001,0.024,0.002,0.048,0.003,0.072c0,0.006,0,0.017,0.001,0.022c0,0.02,0.001,0.038,0.002,0.058c0,0.012,0,0.015,0.001,0.026
		c0,0.02,0.001,0.037,0.002,0.057c0,0.006,0,0.015,0,0.021c0.001,0.021,0.002,0.043,0.003,0.064c0,0.006,0,0.012,0,0.018
		c0.002,0.053,0.004,0.106,0.007,0.159c0,0.007,0,0.013,0,0.02c0.001,0.021,0.002,0.042,0.003,0.063c0,0.006,0,0.014,0.001,0.02
		c0,0.02,0.001,0.041,0.002,0.06c0,0.007,0.001,0.018,0.001,0.023c0.001,0.021,0.002,0.043,0.003,0.064l0,0.015
		c0.002,0.053,0.005,0.109,0.007,0.162l0,0.014c0.001,0.021,0.002,0.042,0.003,0.063c0,0.006,0.001,0.021,0.001,0.027
		c0,0.02,0.001,0.035,0.002,0.055c0,0.006,0,0.017,0.001,0.022c0.001,0.02,0.002,0.041,0.002,0.061c0,0.006,0.001,0.015,0.001,0.021
		c0.002,0.053,0.005,0.107,0.008,0.16c0,0.006,0,0.008,0,0.014c0.001,0.023,0.002,0.047,0.003,0.069c0,0.006,0,0.007,0,0.013
		c0.001,0.021,0.002,0.046,0.003,0.067c0,0.006,0,0.012,0,0.018c0.001,0.021,0.002,0.046,0.003,0.066c0,0.007,0,0.008,0,0.014
		c0.001,0.025,0.002,0.052,0.004,0.076c0,0.006,0-0.001,0,0.005c0.003,0.055,0.005,0.109,0.008,0.164c0,0.006,0,0.009,0,0.015
		c0.001,0.022,0.002,0.044,0.003,0.067c0,0.006,0,0.008,0.001,0.014c0.001,0.023,0.002,0.044,0.003,0.067
		c0,0.006,0,0.011,0.001,0.017c0.001,0.026,0.002,0.049,0.004,0.076v0.002c0.003,0.055,0.005,0.11,0.008,0.165
		c0,0.006,0,0.009,0.001,0.015c0.001,0.021,0.002,0.041,0.003,0.062c0,0.012,0,0.015,0.001,0.026
		c0.001,0.02,0.002,0.039,0.003,0.059c0,0.006,0,0.013,0.001,0.019c0.001,0.023,0.002,0.045,0.003,0.067l0.001,0.013
		c0.002,0.053,0.006,0.108,0.008,0.161c0,0.006,0.001,0.014,0.001,0.02c0.001,0.02,0.002,0.04,0.003,0.06
		c0,0.006,0.001,0.018,0.001,0.023c0.001,0.02,0.002,0.039,0.003,0.059c0,0.006,0.001,0.017,0.001,0.022
		c0.001,0.021,0.002,0.041,0.003,0.062c0,0.006,0.001,0.012,0.001,0.018c0.001,0.023,0.003,0.049,0.004,0.071
		c0,0.006,0,0.004,0.001,0.01c0.001,0.028,0.003,0.053,0.004,0.081c0,0.006,0,0.003,0,0.009c0.001,0.023,0.003,0.046,0.004,0.069
		c0,0.006,0.001,0.017,0.001,0.022c0.001,0.02,0.002,0.037,0.003,0.057c0,0.012,0,0.014,0.001,0.025
		c0.001,0.02,0.002,0.036,0.003,0.056c0,0.006,0.001,0.018,0.001,0.023c0.001,0.024,0.003,0.048,0.004,0.072c0,0.006,0,0,0,0.006
		c0.002,0.028,0.003,0.054,0.005,0.082c0,0.006,0,0.005,0.001,0.011c0.001,0.022,0.002,0.045,0.004,0.067
		c0,0.007,0.001,0.017,0.001,0.022c0.001,0.018,0.002,0.039,0.003,0.057c0,0.012,0.001,0.016,0.001,0.027
		c0.001,0.018,0.002,0.037,0.003,0.055c0,0.006,0.001,0.017,0.001,0.022c0.001,0.023,0.002,0.042,0.004,0.065
		c0,0.006,0,0.008,0.001,0.014c0.003,0.053,0.006,0.106,0.01,0.159c0,0.006,0.001,0.017,0.001,0.022
		c0.001,0.02,0.002,0.04,0.003,0.059c0,0.006,0.001,0.016,0.001,0.021c0.001,0.021,0.002,0.041,0.004,0.063
		c0,0.006,0,0.011,0.001,0.017c0.001,0.022,0.003,0.046,0.004,0.069l0.001,0.012c0.003,0.053,0.007,0.108,0.01,0.161l0.001,0.015
		c0.001,0.021,0.003,0.045,0.004,0.065c0,0.006,0.001,0.015,0.001,0.021c0.001,0.019,0.002,0.039,0.004,0.059
		c0,0.006,0.001,0.017,0.001,0.022c0.001,0.02,0.003,0.041,0.004,0.061c0,0.006,0.001,0.014,0.001,0.02
		c0.003,0.053,0.007,0.105,0.01,0.158c0.001,0.012,0.001,0.01,0.001,0.021c0.001,0.019,0.003,0.038,0.004,0.058
		c0,0.006,0.001,0.021,0.002,0.027c0.001,0.017,0.002,0.034,0.003,0.052c0.001,0.012,0.001,0.015,0.002,0.026
		c0.001,0.021,0.003,0.04,0.004,0.062c0,0.006,0,0.01,0.001,0.016c0.003,0.054,0.007,0.108,0.011,0.163c0,0.006,0-0.002,0,0.004
		c0.002,0.024,0.004,0.051,0.005,0.075c0,0.006,0,0.01,0.001,0.016c0.001,0.021,0.003,0.043,0.004,0.063
		c0.001,0.013,0,0.008,0.001,0.02c0.001,0.021,0.003,0.043,0.004,0.064c0,0.006,0.001,0.01,0.001,0.016
		c0.004,0.055,0.007,0.107,0.011,0.162l0,0.004c0.002,0.024,0.004,0.052,0.005,0.076c0,0.006,0.001,0.009,0.001,0.015
		c0.002,0.023,0.003,0.043,0.005,0.066c0,0.006,0.001,0.01,0.001,0.016c0.002,0.024,0.003,0.046,0.005,0.07c0,0.006,0,0.003,0,0.009
		c0.002,0.024,0.004,0.051,0.006,0.076l0,0.006c0.004,0.056,0.008,0.109,0.012,0.165l0,0.006c0.001,0.024,0.003,0.047,0.005,0.071
		c0,0.006,0.001,0.013,0.001,0.019c0.002,0.021,0.003,0.042,0.005,0.063c0,0.006,0.001,0.013,0.001,0.019
		c0.008,0.108,0.016,0.214,0.024,0.322c0,0.006,0.001,0.008,0.001,0.014c0.001,0.024,0.003,0.047,0.005,0.071l0,0.009
		c0.002,0.024,0.004,0.051,0.006,0.075l0,0.007c0.007,0.082,0.013,0.164,0.02,0.246c0,0.006,0,0.003,0.001,0.009
		c0.002,0.024,0.003,0.047,0.005,0.071l0.001,0.014c0.002,0.024,0.003,0.047,0.005,0.071l0.001,0.008
		c0.007,0.084,0.013,0.163,0.02,0.247l0,0.006c0.002,0.024,0.004,0.05,0.006,0.074l0.001,0.013c0.002,0.023,0.003,0.044,0.005,0.067
		c0,0.006,0.001,0.009,0.001,0.015c0.002,0.024,0.004,0.051,0.006,0.075l0,0.004c0.005,0.057,0.009,0.109,0.014,0.165l0.001,0.007
		c0.002,0.024,0.004,0.048,0.006,0.072c0,0.006,0.001,0.009,0.001,0.015c0.002,0.022,0.004,0.046,0.006,0.068
		c0,0.006,0,0.005,0.001,0.011c0.002,0.026,0.004,0.052,0.006,0.077l0,0.004c0.005,0.056,0.009,0.109,0.014,0.165l0,0.005
		c0.002,0.024,0.004,0.053,0.007,0.077c0,0.006,0,0.002,0,0.008c0.002,0.024,0.004,0.051,0.007,0.075l0,0.006
		c0.01,0.111,0.019,0.219,0.029,0.33c0,0.006,0,0.001,0,0.007c0.002,0.023,0.004,0.049,0.006,0.073l0.001,0.011
		c0.002,0.022,0.004,0.046,0.006,0.068c0,0.006,0.001,0.009,0.001,0.015c0.007,0.082,0.015,0.162,0.022,0.244l0,0.006
		c0.002,0.024,0.005,0.049,0.007,0.073l0.001,0.013c0.002,0.024,0.004,0.047,0.006,0.071c0.001,0.006,0,0.003,0.001,0.009
		c0.008,0.082,0.015,0.164,0.023,0.246l0,0.005c0.002,0.024,0.005,0.053,0.007,0.077l0,0.006c0.002,0.024,0.005,0.053,0.007,0.077
		c0.001,0.006,0,0,0,0.006c0.011,0.109,0.021,0.218,0.032,0.327c0,0.006,0,0.003,0.001,0.009c0.002,0.024,0.004,0.048,0.007,0.072
		c0,0.006,0,0.005,0.001,0.011c0.002,0.024,0.005,0.052,0.007,0.076l0,0.004c0.008,0.083,0.016,0.163,0.024,0.247
		c0,0.006,0-0.001,0,0.005c0.002,0.024,0.005,0.052,0.007,0.076l0.001,0.008c0.011,0.109,0.022,0.22,0.033,0.329v0.002
		c0.003,0.027,0.005,0.053,0.008,0.081l0,0.002c0.014,0.139,0.028,0.275,0.043,0.414v0.003c0.003,0.027,0.006,0.052,0.009,0.079
		v0.003c0.009,0.084,0.018,0.166,0.026,0.249l0,0c0.003,0.026,0.006,0.054,0.009,0.08l0,0.007c0.003,0.025,0.006,0.052,0.008,0.077
		c0.001,0.006,0-0.003,0,0.003c0.012,0.109,0.023,0.219,0.036,0.328c0,0.006,0,0.004,0.001,0.01
		c0.003,0.024,0.005,0.048,0.008,0.072l0.001,0.008c0.003,0.024,0.006,0.053,0.009,0.077l0,0.004
		c0.006,0.056,0.012,0.109,0.018,0.165v0.001c0.003,0.026,0.006,0.054,0.009,0.079c0.001,0.006,0,0.002,0.001,0.008
		c0.003,0.024,0.005,0.047,0.008,0.071l0.001,0.013c0.003,0.024,0.006,0.049,0.008,0.072l0.001,0.007
		c0.012,0.109,0.024,0.218,0.037,0.326l0.001,0.008c0.002,0.024,0.005,0.049,0.008,0.073c0,0.006,0,0.003,0.001,0.009
		c0.013,0.107,0.025,0.219,0.038,0.325l0,0.008c0.003,0.025,0.006,0.053,0.009,0.078l0,0.001c0.013,0.11,0.025,0.219,0.039,0.329
		c0.001,0.006,0,0,0.001,0.005c0.003,0.024,0.006,0.053,0.009,0.077l0,0.005c0.013,0.11,0.026,0.218,0.04,0.328
		c0.001,0.006,0-0.003,0,0.003c0.003,0.028,0.006,0.052,0.01,0.08l0,0.002c0.003,0.028,0.006,0.053,0.01,0.081v0.001
		c0.01,0.083,0.021,0.165,0.031,0.248l0,0c0.003,0.026,0.006,0.053,0.01,0.078l0.001,0.009c0.089,0.716,0.183,1.429,0.281,2.142
		l0,0.003c2.77,20.167,8.926,39.252,17.878,56.666c2.216,4.312,6.591,6.788,11.127,6.788c1.924,0,3.876-0.446,5.705-1.386
		c6.14-3.156,8.558-10.692,5.402-16.832C31.643,225.961,26,202.541,26,178l0.001-0.733c0.017-6.904-5.567-12.526-12.47-12.559
		C13.511,164.708,13.491,164.708,13.471,164.708L13.471,164.708z M60.992,281.332c-3.169,0-6.34,1.198-8.775,3.599
		c-4.916,4.847-4.973,12.761-0.126,17.677c0.617,0.626,1.238,1.247,1.864,1.864l0.001,0.001c0.313,0.309,0.626,0.614,0.941,0.92
		l0.002,0.003c0.019,0.018,0.037,0.035,0.055,0.053l0.004,0.005c0.019,0.018,0.038,0.036,0.056,0.055l0.001,0.001
		c0.04,0.038,0.077,0.075,0.117,0.113l0.004,0.003c0.017,0.018,0.037,0.036,0.054,0.053l0.005,0.005
		c0.019,0.019,0.037,0.036,0.056,0.054l0.001,0.002c0.039,0.037,0.078,0.075,0.116,0.111l0.008,0.008
		c0.016,0.016,0.033,0.031,0.049,0.047c0.004,0.004,0.006,0.006,0.01,0.01c0.016,0.016,0.031,0.029,0.047,0.045
		c0.004,0.004,0.007,0.008,0.011,0.011c0.039,0.037,0.075,0.072,0.113,0.109l0.007,0.006c0.017,0.017,0.033,0.032,0.05,0.049
		c0.004,0.004,0.005,0.005,0.009,0.009c0.016,0.016,0.03,0.029,0.046,0.044c0.004,0.004,0.009,0.009,0.013,0.013
		c0.018,0.017,0.033,0.031,0.05,0.048c0.004,0.004,0.001,0.002,0.005,0.005c0.019,0.019,0.038,0.036,0.056,0.054
		c0.004,0.004,0.008,0.008,0.012,0.012c0.014,0.014,0.031,0.029,0.044,0.043c0.004,0.003,0.01,0.009,0.014,0.013
		c0.015,0.015,0.03,0.028,0.044,0.043c0.004,0.004,0.008,0.007,0.012,0.011c0.038,0.037,0.075,0.071,0.113,0.108
		c0.004,0.004,0.001,0.001,0.005,0.005c0.018,0.017,0.035,0.033,0.052,0.05c0.004,0.004,0.006,0.005,0.01,0.009
		c0.015,0.015,0.032,0.03,0.046,0.045c0.004,0.003,0.009,0.008,0.013,0.012c0.015,0.014,0.031,0.029,0.045,0.043
		c0.004,0.004,0.008,0.008,0.012,0.012c0.019,0.018,0.037,0.034,0.055,0.053c0.004,0.004,0.003,0.002,0.007,0.006
		c0.016,0.016,0.033,0.031,0.049,0.047c0.004,0.004,0.01,0.009,0.014,0.013c0.015,0.015,0.029,0.027,0.043,0.042
		c0.008,0.007,0.007,0.006,0.015,0.014c0.015,0.014,0.029,0.028,0.044,0.042c0.004,0.004,0.007,0.007,0.011,0.011
		c0.018,0.017,0.035,0.032,0.052,0.049l0.005,0.005c0.019,0.018,0.038,0.036,0.056,0.054c0.004,0.004,0.007,0.007,0.011,0.011
		c0.015,0.014,0.028,0.025,0.043,0.04c0.008,0.008,0.011,0.011,0.019,0.018c0.013,0.012,0.026,0.025,0.039,0.037
		c0.004,0.003,0.013,0.012,0.017,0.016c0.015,0.015,0.032,0.029,0.046,0.044c0.004,0.004,0.005,0.005,0.009,0.009
		c0.019,0.018,0.036,0.034,0.055,0.052c0.008,0.008,0.006,0.006,0.014,0.014c0.014,0.013,0.027,0.025,0.041,0.038
		c0.008,0.008,0.012,0.011,0.02,0.019c0.013,0.012,0.025,0.023,0.038,0.035c0.004,0.004,0.013,0.013,0.017,0.017
		c0.012,0.012,0.027,0.025,0.04,0.037c0.008,0.008,0.01,0.01,0.018,0.017c0.018,0.017,0.036,0.034,0.053,0.051
		c0.008,0.007,0.007,0.006,0.015,0.014c0.014,0.013,0.026,0.024,0.04,0.037c0.004,0.004,0.015,0.015,0.019,0.019
		c0.013,0.012,0.025,0.023,0.038,0.035c0.004,0.004,0.016,0.015,0.02,0.019c0.011,0.011,0.021,0.021,0.032,0.03
		c0.008,0.008,0.017,0.016,0.025,0.023c0.016,0.016,0.035,0.032,0.051,0.048c0.004,0.004,0.014,0.013,0.018,0.017
		c0.013,0.012,0.026,0.024,0.039,0.036c0.004,0.004,0.016,0.016,0.021,0.019c0.011,0.011,0.024,0.022,0.035,0.033
		c0.008,0.008,0.013,0.013,0.021,0.021c0.011,0.01,0.023,0.021,0.034,0.031c0.008,0.008,0.014,0.014,0.022,0.021
		c0.035,0.033,0.073,0.068,0.108,0.101c0.004,0.004,0.019,0.018,0.023,0.021c0.01,0.01,0.02,0.019,0.029,0.027
		c0.008,0.008,0.022,0.021,0.03,0.028s0.013,0.013,0.021,0.02c0.012,0.011,0.021,0.02,0.033,0.031
		c0.006,0.006,0.015,0.014,0.021,0.02c0.02,0.019,0.041,0.038,0.061,0.057c0.008,0.007,0.012,0.012,0.02,0.019
		c0.012,0.011,0.019,0.018,0.031,0.028c0.008,0.007,0.018,0.017,0.025,0.023c0.008,0.008,0.019,0.018,0.027,0.025
		c0.009,0.008,0.019,0.017,0.027,0.025c0.012,0.011,0.018,0.017,0.03,0.028c0.008,0.007,0.017,0.015,0.024,0.021
		c0.012,0.012,0.033,0.03,0.045,0.042c0.011,0.01,0.021,0.02,0.033,0.03c0.013,0.012,0.02,0.018,0.032,0.029
		c0.008,0.007,0.016,0.015,0.023,0.021c0.008,0.008,0.025,0.022,0.033,0.03c0.006,0.006,0.012,0.012,0.019,0.018
		c0.012,0.011,0.023,0.021,0.035,0.032c0.007,0.007,0.016,0.015,0.023,0.021c0.008,0.007,0.021,0.02,0.029,0.026
		c0.018,0.017,0.034,0.031,0.051,0.048c0.008,0.007,0.018,0.017,0.026,0.023c0.009,0.009,0.019,0.018,0.028,0.025
		c0.008,0.008,0.021,0.02,0.029,0.027c0.007,0.007,0.018,0.017,0.025,0.023c0.012,0.011,0.019,0.018,0.031,0.028
		c0.006,0.006,0.016,0.015,0.022,0.021c0.012,0.011,0.02,0.018,0.032,0.029c0.003,0.003,0.01,0.009,0.014,0.013
		c0.025,0.022,0.043,0.04,0.068,0.063c0.007,0.007,0.014,0.013,0.021,0.02c0.012,0.012,0.023,0.021,0.036,0.032
		c0.005,0.005,0.009,0.009,0.015,0.014c0.016,0.015,0.022,0.021,0.038,0.035c0.006,0.006,0.01,0.009,0.016,0.015
		c0.041,0.037,0.089,0.081,0.13,0.119c0.002,0.002,0.005,0.004,0.007,0.007c0.012,0.011,0.024,0.022,0.037,0.033
		c0.006,0.006,0.011,0.011,0.018,0.017c0.012,0.011,0.026,0.024,0.039,0.035c0.004,0.004,0.006,0.006,0.01,0.009
		c0.012,0.012,0.03,0.027,0.042,0.039c0.001,0.001,0.002,0.002,0.003,0.003c0.029,0.026,0.054,0.05,0.083,0.076
		c0.004,0.003,0.01,0.009,0.014,0.013c0.012,0.011,0.029,0.026,0.041,0.037c0.004,0.004,0.005,0.005,0.009,0.008
		c0.016,0.016,0.026,0.023,0.042,0.039c0.002,0.002,0.008,0.007,0.011,0.01c0.062,0.056,0.129,0.116,0.191,0.172v0.001
		c0.017,0.015,0.031,0.028,0.048,0.043c0.001,0.001,0.002,0.002,0.003,0.003c0.017,0.016,0.031,0.028,0.047,0.043l0,0.001
		c0.132,0.118,0.263,0.236,0.395,0.355h0c0.198,0.178,0.395,0.354,0.594,0.531c0.001,0.001,0.002,0.002,0.003,0.003
		c0.066,0.059,0.13,0.115,0.196,0.175l0.001,0.001c0.266,0.235,0.53,0.469,0.797,0.702l0.003,0.003
		c0.267,0.233,0.532,0.465,0.8,0.697c0.001,0.001,0.002,0.002,0.003,0.003c9.058,7.846,18.916,14.789,29.438,20.692h0
		c0.39,0.219,0.777,0.434,1.168,0.649c0.002,0.001,0.003,0.002,0.004,0.003c0.118,0.064,0.232,0.127,0.35,0.191
		c0.001,0.001,0.002,0.002,0.003,0.002c0.118,0.064,0.233,0.128,0.351,0.192l0.002,0.001c0.079,0.043,0.15,0.082,0.229,0.124
		c0.003,0.002,0.006,0.004,0.009,0.005c0.02,0.011,0.036,0.02,0.055,0.03h0c0.295,0.16,0.586,0.317,0.882,0.476
		c0.001,0.001,0.005,0.003,0.006,0.004c0.099,0.053,0.193,0.104,0.292,0.156h0.001c0.02,0.011,0.038,0.021,0.058,0.031l0.003,0.002
		c0.099,0.052,0.195,0.104,0.293,0.155c0.001,0.001,0.001,0.001,0.003,0.002c0.079,0.042,0.151,0.08,0.23,0.121
		c0.003,0.002,0.005,0.003,0.008,0.005c0.015,0.008,0.034,0.018,0.048,0.025c0.006,0.003,0.012,0.007,0.018,0.01
		c0.074,0.039,0.15,0.079,0.225,0.118c0.001,0.001,0.002,0.001,0.004,0.002c0.02,0.011,0.037,0.02,0.057,0.03
		c0.001,0.001,0.001,0,0.002,0.001c0.02,0.011,0.038,0.021,0.058,0.03v0.001c0.079,0.041,0.156,0.081,0.236,0.123
		c0.001,0.001,0.002,0.001,0.004,0.002c0.099,0.052,0.196,0.103,0.295,0.154h0.001c0.02,0.011,0.036,0.02,0.056,0.029
		c0.003,0.002,0.005,0.003,0.008,0.005c0.079,0.041,0.148,0.076,0.227,0.117c0.003,0.002,0.006,0.004,0.01,0.005
		c0.02,0.011,0.035,0.019,0.055,0.029c0.001,0,0.001,0,0.003,0.001c0.08,0.041,0.154,0.08,0.234,0.121
		c0.002,0.001,0.003,0.001,0.004,0.002c0.02,0.011,0.035,0.018,0.055,0.028c0.003,0.002,0.006,0.003,0.009,0.005
		c0.08,0.041,0.153,0.078,0.233,0.119c0.001,0.001,0,0,0.001,0.001c0.02,0.01,0.037,0.019,0.056,0.029
		c0.002,0,0.005,0.002,0.007,0.003c0.02,0.01,0.034,0.018,0.054,0.028c0.003,0.001,0.004,0.002,0.007,0.003
		c0.08,0.041,0.148,0.076,0.228,0.117c0.004,0.002,0.008,0.004,0.013,0.006c0.02,0.011,0.032,0.017,0.052,0.026
		c0.002,0.001,0.003,0.002,0.005,0.003c0.06,0.03,0.115,0.059,0.175,0.089l0.002,0.001c0.02,0.01,0.035,0.018,0.055,0.027
		c0.003,0.002,0.006,0.003,0.009,0.005c0.02,0.01,0.035,0.018,0.055,0.027c0.001,0.001,0.002,0.002,0.004,0.002
		c0.08,0.041,0.151,0.077,0.231,0.117c0.003,0.002,0.007,0.004,0.011,0.006c0.02,0.01,0.032,0.016,0.052,0.026
		c0.002,0.001,0.007,0.003,0.008,0.004c0.08,0.041,0.15,0.075,0.23,0.116c0.003,0.001,0.005,0.002,0.008,0.004
		c0.02,0.01,0.033,0.017,0.053,0.026c0.003,0.002,0.006,0.003,0.009,0.005c0.075,0.038,0.148,0.074,0.224,0.112
		c0.006,0.003,0.011,0.006,0.018,0.009c0.015,0.007,0.031,0.016,0.046,0.023c0.005,0.002,0.011,0.005,0.015,0.007
		c0.015,0.008,0.037,0.019,0.052,0.026c0.002,0.001,0.002,0.001,0.003,0.002c0.055,0.027,0.114,0.057,0.169,0.084
		c0.004,0.003,0.007,0.004,0.012,0.006c0.015,0.008,0.032,0.017,0.047,0.023c0.006,0.003,0.012,0.006,0.018,0.01
		c0.015,0.007,0.034,0.017,0.049,0.024c0.003,0.001,0.007,0.003,0.01,0.005c0.05,0.024,0.112,0.056,0.162,0.08
		c0.005,0.003,0.009,0.005,0.014,0.007c0.02,0.01,0.03,0.015,0.05,0.025c0.005,0.002,0.008,0.004,0.013,0.006
		c0.02,0.01,0.03,0.015,0.05,0.024c0.004,0.003,0.012,0.006,0.016,0.009c0.05,0.024,0.11,0.055,0.161,0.079
		c0.004,0.002,0.006,0.003,0.01,0.005c0.015,0.008,0.031,0.016,0.046,0.023c0.006,0.003,0.014,0.007,0.02,0.01
		c0.015,0.007,0.033,0.016,0.048,0.023c0.004,0.002,0.01,0.005,0.014,0.007c0.015,0.008,0.036,0.018,0.051,0.025
		c0.001,0,0.001,0,0.002,0.001c0.035,0.018,0.072,0.035,0.107,0.053c0.003,0.002,0.01,0.005,0.013,0.007
		c0.015,0.007,0.031,0.015,0.046,0.022c0.006,0.003,0.012,0.006,0.018,0.009c0.021,0.01,0.028,0.014,0.048,0.023
		c0.006,0.003,0.011,0.006,0.018,0.009c0.015,0.007,0.033,0.016,0.048,0.023c0.004,0.002,0.009,0.004,0.014,0.006
		c0.055,0.027,0.106,0.053,0.162,0.08c0.003,0.001,0.007,0.003,0.01,0.005c0.02,0.01,0.032,0.016,0.052,0.025
		c0.004,0.002,0.008,0.004,0.013,0.006c0.021,0.01,0.029,0.015,0.049,0.024c0.004,0.002,0.012,0.006,0.017,0.008
		c0.05,0.024,0.11,0.054,0.16,0.078c0.004,0.002,0.007,0.003,0.011,0.006c0.015,0.007,0.032,0.016,0.047,0.022
		c0.008,0.004,0.014,0.007,0.022,0.011c0.015,0.008,0.029,0.015,0.044,0.021c0.005,0.002,0.012,0.006,0.017,0.008
		c0.055,0.027,0.107,0.052,0.163,0.079c0.003,0.002,0.006,0.003,0.009,0.004c0.015,0.008,0.035,0.018,0.05,0.024
		c0.005,0.003,0.012,0.006,0.017,0.008c0.015,0.008,0.031,0.016,0.046,0.023c0.006,0.003,0.013,0.006,0.019,0.009
		c0.051,0.024,0.104,0.051,0.155,0.075c0.006,0.003,0.009,0.004,0.016,0.007c0.015,0.008,0.032,0.016,0.047,0.023
		c0.006,0.003,0.013,0.006,0.02,0.009c0.015,0.008,0.031,0.015,0.046,0.022c0.006,0.003,0.012,0.006,0.019,0.009
		c0.015,0.007,0.032,0.016,0.047,0.022c0.003,0.002,0.007,0.004,0.01,0.005c0.051,0.024,0.115,0.055,0.166,0.079
		c0.005,0.003,0.009,0.005,0.013,0.007c0.015,0.007,0.032,0.016,0.047,0.022c0.006,0.003,0.013,0.006,0.02,0.009
		c0.071,0.034,0.153,0.073,0.224,0.107c0.003,0.002,0.008,0.004,0.012,0.006c0.02,0.01,0.031,0.015,0.051,0.024
		c0.004,0.002,0.007,0.003,0.012,0.006c0.02,0.01,0.032,0.015,0.052,0.024c0.003,0.002,0.006,0.003,0.009,0.005
		c0.061,0.028,0.108,0.051,0.169,0.08c0.001,0.001,0.006,0.003,0.008,0.004c0.02,0.009,0.031,0.015,0.051,0.024
		c0.004,0.002,0.01,0.004,0.015,0.007c0.02,0.009,0.031,0.015,0.052,0.024c0.003,0.001,0.005,0.002,0.008,0.004
		c0.056,0.026,0.108,0.051,0.164,0.077c0.005,0.002,0.012,0.006,0.017,0.008c0.015,0.007,0.031,0.015,0.046,0.021
		c0.006,0.003,0.012,0.006,0.019,0.009c0.015,0.008,0.032,0.016,0.048,0.022c0.006,0.003,0.011,0.006,0.017,0.009
		c0.056,0.025,0.115,0.054,0.17,0.08h0c0.015,0.007,0.037,0.018,0.053,0.024c0.004,0.002,0.009,0.004,0.013,0.007
		c0.021,0.009,0.032,0.015,0.053,0.024c0.003,0.001,0.006,0.003,0.01,0.004c0.061,0.029,0.111,0.053,0.172,0.081
		c0.001,0.001,0.003,0.002,0.005,0.002c0.021,0.01,0.032,0.016,0.053,0.024c0.004,0.003,0.006,0.004,0.011,0.006
		c0.02,0.01,0.034,0.016,0.055,0.025c0.003,0.001,0.003,0.002,0.006,0.003c0.082,0.038,0.156,0.072,0.237,0.11
		c0.002,0.001,0.004,0.002,0.005,0.002c0.021,0.01,0.035,0.017,0.055,0.026c0.003,0.001,0.007,0.003,0.01,0.004
		c0.021,0.01,0.034,0.016,0.055,0.025c0.001,0.001,0.003,0.002,0.004,0.002c0.061,0.028,0.115,0.054,0.176,0.081
		c0.001,0.001,0.004,0.002,0.006,0.003c0.021,0.01,0.032,0.015,0.052,0.024c0.006,0.003,0.009,0.004,0.015,0.007
		c0.015,0.007,0.036,0.017,0.052,0.023c0.003,0.002,0.003,0.002,0.006,0.003c0.056,0.026,0.107,0.05,0.164,0.076
		c0.008,0.003,0.012,0.005,0.02,0.009c0.015,0.007,0.031,0.015,0.046,0.021c0.006,0.003,0.012,0.006,0.019,0.009
		c0.015,0.007,0.034,0.015,0.049,0.022c0.003,0.001,0.008,0.004,0.011,0.005c0.072,0.033,0.158,0.072,0.229,0.104
		c0.005,0.003,0.01,0.005,0.015,0.007c0.021,0.01,0.031,0.015,0.051,0.023c0.003,0.002,0.007,0.003,0.01,0.005
		c0.077,0.035,0.153,0.069,0.229,0.104c0.005,0.002,0.011,0.005,0.016,0.007c0.015,0.007,0.032,0.015,0.047,0.021
		c0.006,0.003,0.014,0.006,0.02,0.009c0.016,0.008,0.034,0.016,0.049,0.022c0.001,0.001,0.001,0.001,0.003,0.002
		c0.056,0.025,0.111,0.05,0.167,0.075c0.008,0.004,0.014,0.007,0.022,0.01c0.021,0.01,0.026,0.012,0.047,0.021
		c0.004,0.002,0.011,0.005,0.016,0.007c0.015,0.007,0.037,0.017,0.053,0.023c0.001,0.001,0.001,0.001,0.002,0.002
		c0.062,0.027,0.114,0.051,0.175,0.078c0.003,0.002,0.007,0.004,0.01,0.005c0.021,0.01,0.03,0.014,0.051,0.023
		c0.005,0.002,0.01,0.004,0.015,0.006c0.021,0.01,0.033,0.016,0.054,0.024l0.002,0.001c0.062,0.027,0.118,0.053,0.18,0.081
		c0.001,0,0.002,0.001,0.004,0.002c0.021,0.009,0.036,0.016,0.057,0.024c0.001,0.001,0.006,0.003,0.007,0.004
		c0.021,0.009,0.037,0.017,0.058,0.025c0.001,0.001,0.001,0.001,0.003,0.001c0.062,0.028,0.116,0.053,0.178,0.08
		c0.001,0,0.004,0.002,0.006,0.002c0.015,0.007,0.033,0.016,0.048,0.022c0.006,0.003,0.014,0.006,0.02,0.009
		c0.016,0.007,0.034,0.015,0.049,0.021c0.005,0.002,0.008,0.004,0.013,0.006c0.057,0.025,0.118,0.053,0.175,0.077
		c0.001,0.001,0,0,0.002,0.001c0.021,0.01,0.036,0.016,0.056,0.025c0.003,0.001,0.005,0.002,0.008,0.003
		c0.021,0.01,0.034,0.016,0.055,0.024c0.003,0.002,0.008,0.004,0.011,0.005c0.077,0.034,0.153,0.067,0.23,0.102
		c0.005,0.002,0.009,0.004,0.014,0.006c0.021,0.01,0.032,0.015,0.053,0.023c0.003,0.002,0.008,0.004,0.011,0.005
		c0.021,0.009,0.034,0.015,0.055,0.024c0.001,0,0.002,0.001,0.004,0.002c0.062,0.026,0.115,0.05,0.177,0.077
		c0.001,0.001,0.005,0.003,0.007,0.003c0.016,0.007,0.036,0.016,0.052,0.022c0.006,0.003,0.012,0.006,0.018,0.009
		c0.016,0.006,0.034,0.014,0.049,0.021c0.003,0.002,0.009,0.004,0.012,0.006c0.051,0.022,0.116,0.051,0.168,0.073
		c0.003,0.001,0.008,0.003,0.011,0.005c0.021,0.009,0.031,0.014,0.052,0.022c0.005,0.002,0.01,0.004,0.015,0.007
		c0.021,0.009,0.029,0.013,0.05,0.021c0.005,0.002,0.011,0.004,0.016,0.007c0.057,0.024,0.117,0.051,0.174,0.075h0.001
		c0.021,0.01,0.034,0.016,0.055,0.024c0.005,0.002,0.008,0.003,0.013,0.005c0.021,0.009,0.032,0.014,0.052,0.023
		c0.005,0.002,0.008,0.003,0.012,0.005c0.073,0.031,0.157,0.068,0.229,0.099c0.006,0.003,0.011,0.005,0.018,0.008
		c0.021,0.009,0.026,0.012,0.047,0.021c0.006,0.003,0.013,0.005,0.019,0.008c0.072,0.031,0.155,0.066,0.228,0.098
		c0.005,0.002,0.01,0.005,0.015,0.007c0.021,0.009,0.029,0.012,0.05,0.021c0.004,0.002,0.012,0.006,0.017,0.008
		c0.015,0.006,0.036,0.015,0.051,0.021c0.001,0.001,0.006,0.003,0.008,0.004c0.057,0.024,0.114,0.048,0.171,0.072
		c0.003,0.002,0.009,0.004,0.012,0.006c0.021,0.009,0.031,0.013,0.052,0.021c0.005,0.002,0.009,0.004,0.014,0.006
		c0.021,0.009,0.032,0.014,0.053,0.022c0.003,0.002,0.006,0.003,0.009,0.004c0.057,0.024,0.112,0.048,0.169,0.072
		c0.005,0.002,0.009,0.004,0.014,0.006c0.016,0.007,0.03,0.013,0.046,0.02c0.008,0.004,0.017,0.008,0.025,0.011
		c0.011,0.004,0.03,0.013,0.04,0.017c0.011,0.005,0.022,0.01,0.034,0.015c0.01,0.004,0.027,0.012,0.038,0.016
		c0.001,0.001,0.006,0.003,0.007,0.003c0.042,0.018,0.07,0.03,0.112,0.048c0.002,0,0.005,0.002,0.007,0.003
		c0.015,0.006,0.034,0.014,0.05,0.021c0.006,0.003,0.013,0.006,0.02,0.009c0.016,0.006,0.032,0.014,0.048,0.02
		c0.005,0.002,0.013,0.006,0.018,0.008c0.052,0.021,0.109,0.046,0.161,0.067c0.006,0.003,0.011,0.005,0.018,0.008
		c0.015,0.006,0.03,0.013,0.045,0.019c0.006,0.003,0.015,0.006,0.021,0.009c0.021,0.009,0.027,0.012,0.048,0.021
		c0.006,0.002,0.012,0.005,0.019,0.008c0.015,0.006,0.034,0.014,0.049,0.021c0.001,0.001,0.004,0.002,0.006,0.003
		c0.042,0.017,0.076,0.031,0.118,0.049l0.002,0.001c0.016,0.006,0.034,0.014,0.049,0.021c0.006,0.002,0.013,0.005,0.02,0.008
		c0.016,0.007,0.031,0.014,0.047,0.02c0.008,0.004,0.013,0.006,0.021,0.009c0.015,0.007,0.03,0.013,0.046,0.02
		c0.006,0.003,0.01,0.004,0.017,0.007c0.052,0.021,0.114,0.048,0.167,0.069c0.003,0.001,0.008,0.003,0.011,0.005
		c0.016,0.006,0.035,0.014,0.051,0.021c0.006,0.003,0.011,0.005,0.018,0.008c0.016,0.006,0.037,0.015,0.052,0.021
		c0.001,0,0.002,0,0.003,0.001c0.057,0.023,0.116,0.048,0.173,0.071c0.005,0.002,0.011,0.005,0.016,0.007
		c0.021,0.009,0.031,0.013,0.052,0.021c0.003,0.001,0.009,0.004,0.012,0.005c0.104,0.043,0.196,0.081,0.301,0.123
		c0.005,0.002,0.007,0.003,0.012,0.006c0.021,0.008,0.032,0.013,0.052,0.021c0.005,0.002,0.009,0.003,0.014,0.005
		c0.078,0.032,0.159,0.065,0.237,0.097c0.003,0.002,0.003,0.002,0.006,0.003c0.021,0.009,0.038,0.016,0.059,0.023
		c0.001,0.001,0.002,0.002,0.004,0.002c0.083,0.034,0.158,0.064,0.242,0.099c0.003,0.001,0.006,0.002,0.009,0.004
		c0.021,0.008,0.038,0.015,0.059,0.023l0.001,0.001c0.313,0.127,0.626,0.252,0.94,0.377h0.001c3.548,1.412,7.149,2.711,10.805,3.896
		c1.277,0.412,2.57,0.608,3.844,0.608c5.271,0,10.174-3.362,11.888-8.648c2.129-6.566-1.468-13.616-8.035-15.746
		c-23.092-7.487-44.365-20.642-61.519-38.042C67.449,282.575,64.222,281.332,60.992,281.332L60.992,281.332z M253.112,312.701
		c-1.904,0-3.837,0.437-5.651,1.358c-21.474,10.909-44.676,16.44-68.961,16.44c-0.489,0-0.978-0.002-1.466-0.007
		c-0.04,0-0.08-0.001-0.12-0.001c-6.849,0-12.433,5.52-12.497,12.383c-0.064,6.903,5.479,12.552,12.382,12.617
		c0.316,0.003,0.633,0.005,0.95,0.006c0.006,0,0.004,0,0.01,0c0.034,0.001,0.067,0.001,0.101,0.001c0.006,0-0.002,0,0.004,0
		c0.031,0,0.062,0,0.092,0c0.006,0,0.014,0,0.02,0c0.032,0,0.063,0,0.095,0c0.006,0.001,0.004,0.001,0.01,0.001
		c0.028,0,0.056,0,0.084,0c0.012,0,0.014,0,0.026,0c0.03,0,0.06,0,0.09,0c0.006,0,0.01,0,0.016,0c0.027,0,0.054,0,0.082,0
		c0.012,0,0.014,0,0.026,0c0.031,0,0.063,0,0.094,0c0.026,0,0.054,0,0.08,0c0.012,0,0.009,0,0.021,0c0.019,0,0.037,0,0.057,0
		c0.012,0,0.02,0,0.032,0c0.016,0,0.031,0,0.047,0c0.012,0,0.02,0,0.032,0c0.016,0,0.034,0,0.05,0c0.006,0,0.024,0,0.03,0
		c0.02,0,0.042,0,0.062,0c0.006,0,0.01,0,0.016,0c0.026-0.001,0.052-0.001,0.078-0.001c0.007,0,0.015,0,0.021,0
		c0.021,0,0.04,0,0.062,0c0.006,0,0.019,0,0.024,0c0.019,0,0.034,0,0.052,0c0.012,0,0.021,0,0.033,0c0.018,0,0.03-0.001,0.049-0.001
		c0.012,0,0.018,0,0.029,0c0.02,0,0.035,0,0.055,0c0.006,0,0.018,0,0.023,0c0.025,0,0.051,0,0.076,0h0.003
		c0.026-0.001,0.054-0.001,0.08-0.001c0.012,0,0.01,0,0.021,0c0.02,0,0.039,0,0.059,0c0.006,0,0.019,0,0.024-0.001
		c0.018,0,0.037,0,0.055,0c0.012,0,0.018,0,0.029,0c0.016,0,0.034,0,0.05,0c0.006,0,0.024-0.001,0.03-0.001c0.018,0,0.033,0,0.051,0
		c0.012,0,0.017,0,0.028,0c0.027,0,0.052-0.001,0.078-0.001c0.006,0,0.005,0,0.011,0c0.022,0,0.044,0,0.067,0
		c0.012-0.001,0.017-0.001,0.028-0.001c0.018,0,0.034,0,0.052,0c0.012,0,0.018,0,0.029,0c0.018-0.001,0.031-0.001,0.049-0.001
		c0.013,0,0.02,0,0.031,0c0.017,0,0.036-0.001,0.052-0.001c0.006,0,0.021,0,0.027,0c0.023,0,0.041,0,0.063-0.001
		c0.007,0,0.009,0,0.015,0c0.027,0,0.054,0,0.08-0.001c0.006,0,0.012,0,0.018,0c0.02,0,0.041,0,0.061-0.001c0.006,0,0.022,0,0.028,0
		c0.018,0,0.036,0,0.054,0c0.012-0.001,0.013-0.001,0.024-0.001c0.02,0,0.037,0,0.057,0c0.006-0.001,0.019-0.001,0.024-0.001
		c0.022,0,0.047,0,0.069-0.001h0.007c0.055,0,0.108-0.001,0.163-0.002c0.012,0,0.01,0,0.021,0c0.02,0,0.038-0.001,0.057-0.001
		c0.006,0,0.021,0,0.027,0c0.018-0.001,0.035-0.001,0.053-0.001c0.012,0,0.018,0,0.029-0.001c0.017,0,0.031,0,0.047,0
		c0.012,0,0.022-0.001,0.034-0.001c0.018,0,0.036,0,0.054-0.001c0.006,0,0.017,0,0.023,0c0.026,0,0.053-0.001,0.079-0.001
		c0.006,0,0.006,0,0.012-0.001c0.023,0,0.044,0,0.066-0.001c0.006,0,0.021,0,0.026,0c0.018,0,0.034-0.001,0.052-0.001
		c0.012,0,0.02,0,0.031,0c0.018-0.001,0.033-0.001,0.051-0.001c0.006,0,0.021-0.001,0.026-0.001c0.02,0,0.039,0,0.059-0.001
		c0.006,0,0.015,0,0.021,0c0.026-0.001,0.052-0.001,0.078-0.002h0.001c0.026,0,0.054-0.001,0.08-0.001c0.006,0,0.013,0,0.019-0.001
		c0.021,0,0.043,0,0.064-0.001c0.006,0,0.011,0,0.017,0c0.021-0.001,0.04-0.001,0.062-0.001c0.012-0.001,0.012-0.001,0.023-0.001
		c0.02,0,0.038-0.001,0.057-0.001c0.007,0,0.018,0,0.024,0c0.021-0.001,0.042-0.001,0.063-0.002c0.007,0,0.01,0,0.017,0
		c0.052-0.001,0.105-0.002,0.158-0.003c0.006-0.001,0.021-0.001,0.026-0.001c0.018,0,0.036-0.001,0.054-0.001
		c0.012-0.001,0.015-0.001,0.026-0.001c0.018,0,0.033-0.001,0.051-0.001c0.012,0,0.021,0,0.032-0.001
		c0.016,0,0.033-0.001,0.049-0.001c0.012,0,0.017,0,0.029-0.001c0.019,0,0.037,0,0.057-0.001c0.006,0,0.017,0,0.022,0
		c0.026-0.001,0.053-0.002,0.079-0.002c0.006,0,0.01-0.001,0.016-0.001c0.02,0,0.041-0.001,0.06-0.001
		c0.006,0,0.026-0.001,0.032-0.001c0.016,0,0.033-0.001,0.049-0.001c0.012-0.001,0.018-0.001,0.029-0.001
		c0.016,0,0.035-0.001,0.051-0.001c0.006,0,0.022-0.001,0.028-0.001c0.02-0.001,0.037-0.001,0.057-0.001
		c0.012-0.001,0.011-0.001,0.022-0.001c0.021-0.001,0.044-0.001,0.065-0.002c0.012,0,0.022,0,0.034-0.001
		c0.02,0,0.038-0.001,0.058-0.001c0.012-0.001,0.015-0.001,0.026-0.001c0.016,0,0.034-0.001,0.05-0.001
		c0.013-0.001,0.024-0.001,0.036-0.001c0.014-0.001,0.028-0.001,0.042-0.002c0.012,0,0.024,0,0.036-0.001
		c0.014,0,0.029,0,0.044-0.001c0.012,0,0.022,0,0.034-0.001c0.018,0,0.037-0.001,0.055-0.001c0.006-0.001,0.017-0.001,0.022-0.001
		c0.024-0.001,0.052-0.002,0.076-0.002c0.012-0.001,0.021-0.001,0.032-0.001c0.017-0.001,0.029-0.001,0.045-0.002
		c0.018,0,0.022,0,0.04-0.001c0.013,0,0.023,0,0.035-0.001c0.012,0,0.031-0.001,0.043-0.001c0.013-0.001,0.023-0.001,0.036-0.001
		c0.012-0.001,0.03-0.001,0.042-0.002c0.012,0,0.024,0,0.036-0.001c0.013,0,0.027-0.001,0.04-0.001c0.018,0,0.034-0.001,0.052-0.002
		c0.012,0,0.027,0,0.04-0.001c0.021-0.001,0.04-0.001,0.062-0.002c0.012,0,0.018,0,0.029-0.001c0.018,0,0.031-0.001,0.049-0.001
		c0.012-0.001,0.021-0.001,0.032-0.001c0.014-0.001,0.03-0.002,0.045-0.002c0.012,0,0.024-0.001,0.037-0.001
		c0.014-0.001,0.027-0.001,0.041-0.002c0.012,0,0.023,0,0.035-0.001c0.016,0,0.031-0.001,0.047-0.001
		c0.012-0.001,0.021-0.001,0.032-0.001c0.024-0.001,0.051-0.002,0.075-0.003c0.012-0.001,0.014-0.001,0.025-0.001
		c0.018-0.001,0.034-0.001,0.052-0.002c0.012,0,0.02-0.001,0.031-0.001c0.018-0.001,0.032-0.001,0.049-0.002
		c0.013,0,0.021,0,0.032-0.001c0.016,0,0.028-0.001,0.044-0.001c0.012-0.001,0.024-0.001,0.036-0.002
		c0.016,0,0.03-0.001,0.046-0.001c0.012-0.001,0.02-0.001,0.031-0.002c0.021,0,0.042-0.001,0.063-0.002c0.006,0,0.009,0,0.015,0
		c0.026-0.001,0.052-0.002,0.078-0.003c0.012-0.001,0.014-0.001,0.025-0.001c0.018-0.001,0.034-0.002,0.052-0.002
		c0.006,0,0.025-0.001,0.031-0.001c0.016-0.001,0.034-0.002,0.05-0.002c0.012-0.001,0.016-0.001,0.027-0.001
		c0.018-0.001,0.035-0.002,0.053-0.002c0.006-0.001,0.022-0.001,0.028-0.002c0.019,0,0.036-0.001,0.056-0.002
		c0.012,0,0.01,0,0.021-0.001c0.026-0.001,0.053-0.002,0.079-0.003c0.006,0,0.005,0,0.011,0c0.022-0.001,0.045-0.002,0.067-0.003
		c0.012,0,0.016-0.001,0.027-0.001c0.016-0.001,0.034-0.001,0.05-0.002c0.012-0.001,0.021-0.001,0.032-0.001
		c0.016-0.001,0.031-0.002,0.047-0.002c0.012-0.001,0.021-0.001,0.033-0.002c0.016,0,0.03-0.001,0.046-0.002
		c0.006,0,0.025-0.001,0.031-0.001c0.018-0.001,0.037-0.002,0.055-0.002c0.006-0.001,0.019-0.001,0.024-0.001
		c0.024-0.001,0.052-0.003,0.076-0.004c0.012,0,0.013,0,0.024-0.001c0.018,0,0.036-0.001,0.054-0.002
		c0.006,0,0.023-0.001,0.029-0.001c0.016-0.001,0.033-0.002,0.049-0.002c0.012-0.001,0.021-0.001,0.033-0.002
		c0.016-0.001,0.031-0.001,0.047-0.002c0.012,0,0.018-0.001,0.029-0.001c0.018-0.001,0.036-0.002,0.054-0.003
		c0.012,0,0.014,0,0.025-0.001c0.051-0.002,0.103-0.004,0.153-0.007c0.012,0,0.022-0.001,0.034-0.001
		c0.016-0.001,0.03-0.002,0.046-0.002c0.012-0.001,0.019-0.001,0.031-0.002c0.016-0.001,0.033-0.001,0.049-0.002
		c0.012-0.001,0.017-0.001,0.029-0.001c0.017-0.001,0.034-0.002,0.052-0.003c0.006,0,0.021-0.001,0.027-0.001
		c0.017-0.001,0.035-0.002,0.053-0.003c0.012,0,0.015,0,0.026-0.001c0.024-0.001,0.051-0.002,0.075-0.004
		c0.006,0,0.019-0.001,0.024-0.001c0.02-0.001,0.036-0.002,0.056-0.002c0.006-0.001,0.021-0.002,0.027-0.002
		c0.016-0.001,0.033-0.001,0.05-0.002c0.012-0.001,0.021-0.001,0.032-0.002c0.014-0.001,0.031-0.001,0.045-0.002
		c0.012-0.001,0.023-0.001,0.035-0.002c0.014,0,0.031-0.001,0.045-0.002c0.012-0.001,0.02-0.001,0.032-0.002
		c0.021-0.001,0.038-0.002,0.059-0.003c0.006,0,0.013,0,0.019-0.001c0.026-0.001,0.05-0.002,0.076-0.003
		c0.012-0.001,0.017-0.001,0.028-0.002c0.018-0.001,0.032-0.002,0.05-0.002c0.006-0.001,0.024-0.002,0.03-0.002
		c0.016-0.001,0.035-0.002,0.051-0.003c0.012,0,0.016,0,0.027-0.001c0.016-0.001,0.035-0.002,0.051-0.003
		c0.006,0,0.024-0.001,0.03-0.001c0.016-0.001,0.03-0.002,0.046-0.003c0.012,0,0.021-0.001,0.034-0.002
		c0.021-0.001,0.038-0.002,0.06-0.003c0.018-0.001,0.027-0.001,0.045-0.002c0.016-0.001,0.03-0.002,0.046-0.003
		c0.012,0,0.021-0.001,0.033-0.001c0.014-0.001,0.032-0.002,0.046-0.003c0.012-0.001,0.021-0.001,0.032-0.002
		c0.016-0.001,0.031-0.001,0.047-0.002c0.012-0.001,0.019-0.001,0.031-0.002c0.017-0.001,0.032-0.002,0.05-0.003
		c0.012,0,0.018-0.001,0.029-0.001c0.02-0.001,0.038-0.002,0.058-0.004c0.006,0,0.014,0,0.02-0.001
		c0.026-0.001,0.051-0.002,0.076-0.004c0.013-0.001,0.013-0.001,0.024-0.001c0.018-0.001,0.037-0.002,0.055-0.003
		c0.006-0.001,0.024-0.002,0.03-0.002c0.016-0.001,0.029-0.002,0.045-0.003c0.012,0,0.025-0.001,0.037-0.002
		c0.014-0.001,0.027-0.001,0.041-0.002c0.012-0.001,0.025-0.002,0.037-0.002c0.014-0.001,0.029-0.002,0.043-0.003
		c0.013-0.001,0.021-0.001,0.033-0.002c0.021-0.001,0.04-0.002,0.061-0.003c0.018-0.001,0.024-0.002,0.042-0.003
		c0.016-0.001,0.033-0.002,0.049-0.003c0.012,0,0.027-0.001,0.039-0.002c0.013-0.001,0.025-0.001,0.037-0.002
		s0.027-0.002,0.039-0.003c0.015,0,0.025-0.001,0.039-0.002c0.012-0.001,0.029-0.002,0.041-0.002
		c0.011-0.001,0.021-0.002,0.032-0.002c0.018-0.001,0.028-0.002,0.046-0.003c0.009-0.001,0.019-0.001,0.027-0.002
		c0.029-0.002,0.062-0.003,0.091-0.005c0.01-0.001,0.019-0.001,0.028-0.002c0.013-0.001,0.027-0.002,0.039-0.002
		c0.014-0.001,0.023-0.002,0.037-0.003c0.019-0.001,0.024-0.001,0.042-0.002c0.011-0.001,0.025-0.002,0.036-0.003
		c0.012,0,0.029-0.001,0.041-0.002c0.013-0.001,0.022-0.002,0.035-0.002c0.012-0.001,0.03-0.002,0.042-0.003
		c0.013-0.001,0.022-0.001,0.034-0.002c0.018-0.001,0.026-0.002,0.044-0.003c0.011-0.001,0.021-0.001,0.032-0.002
		c0.018-0.001,0.048-0.003,0.065-0.004s0.033-0.002,0.051-0.003c0.012-0.001,0.021-0.002,0.032-0.003
		c0.014-0.001,0.031-0.002,0.045-0.003c0.012,0,0.027-0.001,0.039-0.002c0.013-0.001,0.024-0.002,0.036-0.002
		c0.012-0.001,0.028-0.002,0.04-0.003s0.026-0.002,0.038-0.003c0.018-0.001,0.022-0.001,0.04-0.002
		c0.013-0.001,0.028-0.002,0.04-0.003s0.023-0.001,0.035-0.002c0.02-0.001,0.038-0.003,0.057-0.004s0.036-0.002,0.054-0.004
		c0.015-0.001,0.026-0.001,0.04-0.002c0.018-0.001,0.021-0.002,0.039-0.003c0.013-0.001,0.025-0.002,0.037-0.002
		c0.012-0.001,0.028-0.002,0.04-0.003c0.014-0.001,0.024-0.002,0.038-0.003c0.012,0,0.029-0.002,0.041-0.002
		c0.009-0.001,0.022-0.002,0.031-0.003c0.018-0.001,0.029-0.002,0.047-0.003c0.007,0,0.015-0.001,0.021-0.001
		c0.029-0.002,0.063-0.005,0.092-0.007c0.012-0.001,0.021-0.001,0.033-0.002s0.025-0.002,0.037-0.003
		c0.012,0,0.028-0.002,0.04-0.002c0.018-0.002,0.021-0.002,0.038-0.003c0.012-0.001,0.027-0.002,0.039-0.003
		s0.027-0.002,0.039-0.003c0.014-0.001,0.026-0.002,0.04-0.002c0.012-0.001,0.023-0.002,0.035-0.003
		c0.016-0.001,0.028-0.002,0.044-0.003c0.012-0.001,0.023-0.002,0.035-0.003c0.014-0.001,0.028-0.002,0.043-0.003
		c0.023-0.001,0.05-0.003,0.073-0.005c0.011-0.001,0.021-0.001,0.03-0.002c0.012-0.001,0.03-0.002,0.042-0.003
		s0.026-0.002,0.039-0.003c0.012-0.001,0.025-0.002,0.037-0.003c0.014-0.001,0.023-0.002,0.037-0.003
		c0.012,0,0.029-0.002,0.041-0.003c0.011,0,0.025-0.001,0.035-0.002c0.018-0.002,0.024-0.002,0.042-0.003
		c0.014-0.001,0.024-0.002,0.038-0.003c0.012-0.001,0.026-0.002,0.038-0.003c0.023-0.002,0.048-0.004,0.072-0.005
		c0.012-0.001,0.028-0.002,0.04-0.003c0.011-0.001,0.024-0.002,0.035-0.003c0.018-0.001,0.026-0.002,0.044-0.003
		c0.01-0.001,0.022-0.002,0.033-0.003c0.012-0.001,0.029-0.002,0.041-0.003s0.023-0.002,0.036-0.003
		c0.018-0.001,0.025-0.002,0.043-0.003c0.012-0.001,0.02-0.002,0.032-0.003c0.018-0.001,0.024-0.001,0.042-0.003
		c0.02-0.001,0.038-0.003,0.058-0.004c0.006-0.001,0.019-0.002,0.024-0.002c0.022-0.002,0.047-0.004,0.069-0.005
		c0.012-0.001,0.017-0.002,0.028-0.003c0.016-0.001,0.031-0.002,0.047-0.003c0.012-0.001,0.026-0.002,0.038-0.003
		s0.026-0.002,0.038-0.003s0.028-0.003,0.04-0.004c0.012,0,0.024-0.001,0.036-0.002c0.018-0.002,0.021-0.002,0.039-0.004
		c0.014-0.001,0.028-0.002,0.042-0.003c0.012-0.001,0.024-0.002,0.036-0.003c0.014-0.001,0.024-0.002,0.038-0.003
		c0.023-0.002,0.053-0.004,0.076-0.006c0.012-0.001,0.021-0.002,0.033-0.003c0.012,0,0.026-0.002,0.038-0.003
		c0.014-0.001,0.027-0.002,0.041-0.003c0.012-0.001,0.025-0.002,0.037-0.003c0.014-0.001,0.024-0.002,0.038-0.003
		c0.012-0.001,0.028-0.002,0.04-0.003s0.022-0.002,0.035-0.003c0.018-0.002,0.025-0.002,0.043-0.004
		c0.016-0.001,0.027-0.002,0.043-0.003c0.012-0.001,0.019-0.002,0.03-0.003c0.024-0.002,0.048-0.004,0.072-0.006
		c0.012-0.001,0.029-0.002,0.041-0.003s0.024-0.002,0.037-0.003c0.012-0.001,0.029-0.003,0.041-0.004s0.021-0.002,0.033-0.003
		s0.03-0.002,0.042-0.003s0.026-0.002,0.038-0.003s0.026-0.003,0.038-0.004c0.013-0.001,0.025-0.002,0.037-0.003
		s0.028-0.002,0.04-0.003c0.014-0.001,0.026-0.002,0.04-0.004c0.023-0.002,0.046-0.003,0.069-0.005
		c0.013-0.002,0.026-0.003,0.038-0.004c0.018-0.001,0.024-0.002,0.042-0.003c0.012-0.001,0.022-0.002,0.034-0.003
		s0.028-0.003,0.04-0.004c0.014-0.001,0.024-0.002,0.038-0.003c0.012-0.001,0.028-0.003,0.04-0.004
		c0.011-0.001,0.026-0.002,0.036-0.003c0.018-0.001,0.021-0.002,0.039-0.003c0.012-0.001,0.023-0.002,0.035-0.003
		c0.035-0.003,0.069-0.006,0.104-0.009c0.003-0.001,0.005-0.001,0.008-0.001c0.012-0.001,0.032-0.003,0.044-0.004
		c0.01-0.001,0.022-0.002,0.033-0.003c0.018-0.002,0.023-0.002,0.041-0.004c0.012-0.001,0.023-0.002,0.036-0.003
		c0.012-0.001,0.03-0.003,0.042-0.004s0.021-0.001,0.032-0.003c0.012-0.001,0.032-0.002,0.044-0.003
		c0.012-0.002,0.022-0.002,0.034-0.004c0.018-0.001,0.024-0.002,0.042-0.003c0.014-0.002,0.025-0.003,0.039-0.004
		c0.023-0.002,0.043-0.004,0.066-0.006c0.014-0.001,0.026-0.002,0.041-0.004c0.018-0.001,0.027-0.002,0.045-0.004
		c0.008-0.001,0.02-0.002,0.028-0.002c0.018-0.002,0.032-0.003,0.05-0.005c0.009-0.001,0.018-0.002,0.025-0.002
		c0.012-0.001,0.035-0.004,0.047-0.005c0.01-0.001,0.021-0.002,0.031-0.003c0.018-0.001,0.028-0.002,0.046-0.004
		c0.009-0.001,0.015-0.001,0.023-0.002c0.053-0.005,0.11-0.01,0.163-0.015c0.012-0.001,0.022-0.002,0.035-0.003
		c0.018-0.002,0.023-0.003,0.041-0.004c0.01-0.001,0.023-0.003,0.033-0.004c0.012-0.001,0.032-0.003,0.044-0.004
		c0.011-0.001,0.021-0.002,0.031-0.003c0.018-0.001,0.029-0.002,0.047-0.004c0.009-0.001,0.016-0.002,0.024-0.002
		c0.018-0.002,0.033-0.004,0.051-0.005c0.007-0.001,0.011-0.001,0.018-0.002c0.035-0.003,0.07-0.007,0.104-0.01
		c0.007-0.001,0.015-0.002,0.021-0.002c0.018-0.002,0.026-0.003,0.044-0.004c0.01-0.001,0.023-0.003,0.033-0.004
		c0.018-0.001,0.022-0.002,0.04-0.003c0.012-0.002,0.024-0.003,0.037-0.004c0.012-0.001,0.03-0.003,0.042-0.004
		s0.021-0.002,0.032-0.003c0.018-0.002,0.024-0.003,0.042-0.005c0.011-0.001,0.024-0.002,0.035-0.003
		c0.012-0.001,0.031-0.003,0.043-0.004c0.01-0.001,0.021-0.002,0.03-0.003c0.029-0.003,0.06-0.006,0.089-0.009
		c0.007-0.001,0.017-0.002,0.023-0.002c0.018-0.002,0.031-0.003,0.049-0.005c0.008-0.001,0.021-0.002,0.029-0.003
		c0.012-0.001,0.031-0.003,0.043-0.004c0.011-0.002,0.022-0.003,0.033-0.004c0.012-0.001,0.029-0.003,0.041-0.004
		c0.014-0.001,0.024-0.002,0.038-0.004c0.018-0.002,0.021-0.002,0.039-0.004c0.012-0.001,0.023-0.002,0.035-0.003
		c0.018-0.002,0.039-0.004,0.057-0.006c0.02-0.002,0.037-0.004,0.056-0.006c0.012-0.001,0.021-0.002,0.033-0.003
		c0.016-0.002,0.027-0.003,0.043-0.004c0.018-0.002,0.024-0.003,0.041-0.005c0.011-0.001,0.022-0.002,0.032-0.003
		c0.012-0.001,0.033-0.003,0.045-0.004c0.01-0.002,0.021-0.003,0.031-0.004c0.018-0.002,0.027-0.003,0.045-0.004
		c0.01-0.001,0.021-0.003,0.032-0.004c0.018-0.002,0.023-0.002,0.041-0.004c0.012-0.001,0.026-0.003,0.039-0.004
		c0.029-0.003,0.05-0.005,0.079-0.008c0.011-0.001,0.019-0.002,0.028-0.003c0.018-0.002,0.03-0.003,0.048-0.005
		c0.008-0.001,0.018-0.002,0.026-0.003c0.018-0.002,0.029-0.003,0.047-0.005c0.009-0.001,0.021-0.002,0.03-0.003
		c0.011-0.001,0.034-0.004,0.046-0.005c0.009-0.001,0.018-0.002,0.026-0.003c0.018-0.002,0.032-0.003,0.05-0.005
		c0.007-0.001,0.013-0.002,0.02-0.002c0.058-0.006,0.124-0.014,0.182-0.02c0.006,0,0.009-0.001,0.014-0.001
		c0.018-0.002,0.035-0.004,0.052-0.006c0.009-0.001,0.017-0.002,0.025-0.002c0.012-0.002,0.037-0.005,0.049-0.006
		c0.009-0.001,0.018-0.002,0.026-0.003c0.018-0.002,0.029-0.003,0.047-0.005c0.011-0.001,0.018-0.002,0.027-0.003
		c0.018-0.002,0.033-0.003,0.05-0.005c0.002,0,0.005-0.001,0.007-0.001c0.064-0.007,0.118-0.013,0.182-0.02
		c0.011-0.001,0.02-0.002,0.03-0.003c0.018-0.002,0.028-0.003,0.046-0.005c0.009-0.001,0.018-0.002,0.025-0.003
		c0.018-0.002,0.034-0.004,0.051-0.006c0.008-0.001,0.017-0.002,0.023-0.002c0.018-0.002,0.033-0.004,0.051-0.006
		c0.009-0.001,0.016-0.002,0.024-0.003c0.017-0.002,0.032-0.003,0.05-0.005c0.002-0.001,0.004-0.001,0.005-0.001
		c0.041-0.004,0.08-0.009,0.121-0.014c0.005,0,0.011-0.001,0.016-0.001c0.018-0.002,0.035-0.004,0.053-0.006
		c0.009-0.001,0.015-0.002,0.023-0.003c0.017-0.002,0.029-0.003,0.047-0.005c0.011-0.001,0.018-0.002,0.028-0.003
		c0.018-0.002,0.033-0.004,0.051-0.006c0.007-0.001,0.011-0.002,0.018-0.002c0.018-0.002,0.039-0.005,0.057-0.007
		c0.001,0,0.004,0,0.006,0c0.064-0.008,0.129-0.015,0.193-0.022c0.003,0,0.01-0.001,0.014-0.001
		c0.018-0.002,0.036-0.005,0.054-0.007c0.007,0,0.016-0.001,0.022-0.002c0.012-0.001,0.038-0.005,0.05-0.006
		c0.009-0.001,0.016-0.002,0.024-0.003c0.017-0.002,0.032-0.004,0.05-0.006c0.008-0.001,0.017-0.002,0.025-0.003
		c0.081-0.009,0.167-0.019,0.248-0.028c0.005,0,0.01-0.001,0.016-0.002c0.022-0.002,0.034-0.004,0.058-0.006
		c0.005-0.001,0.01-0.002,0.015-0.002c0.023-0.003,0.032-0.004,0.056-0.007c0.005,0,0.014-0.002,0.019-0.002
		c0.018-0.002,0.04-0.005,0.057-0.007c0.002,0,0.004,0,0.006-0.001c0.069-0.008,0.127-0.015,0.196-0.022
		c0.004-0.001,0.006-0.001,0.01-0.001c0.023-0.003,0.037-0.005,0.06-0.008c0.006,0,0.007-0.001,0.012-0.001
		c0.023-0.003,0.034-0.004,0.058-0.007c0.005-0.001,0.014-0.002,0.019-0.002c0.018-0.003,0.04-0.005,0.058-0.007
		c0.002-0.001,0.004-0.001,0.006-0.001c0.093-0.011,0.176-0.021,0.268-0.032c0.004-0.001,0.005-0.001,0.008-0.001
		c0.023-0.003,0.037-0.005,0.061-0.008c0.005,0,0.009-0.001,0.014-0.001c0.023-0.003,0.035-0.005,0.058-0.007
		c0.005-0.001,0.011-0.002,0.017-0.003c0.018-0.002,0.037-0.004,0.055-0.006c0.007-0.001,0.012-0.002,0.019-0.003
		c0.081-0.01,0.168-0.021,0.249-0.03c0.008-0.001,0.015-0.002,0.022-0.003c0.018-0.002,0.033-0.004,0.051-0.006
		c0.007-0.001,0.015-0.002,0.021-0.003c0.018-0.002,0.035-0.005,0.053-0.007c0.007-0.001,0.013-0.002,0.02-0.002
		c0.018-0.003,0.038-0.005,0.056-0.007c0.001-0.001,0.002-0.001,0.003-0.001c0.064-0.008,0.13-0.017,0.194-0.024
		c0.005,0,0.01-0.001,0.015-0.002c0.018-0.002,0.036-0.004,0.054-0.007c0.007-0.001,0.015-0.002,0.021-0.002
		c0.012-0.002,0.037-0.005,0.049-0.007c0.008-0.001,0.018-0.002,0.026-0.003c0.018-0.003,0.034-0.005,0.052-0.007
		c0.004-0.001,0.008-0.001,0.012-0.002c0.063-0.008,0.129-0.016,0.192-0.024c0.001,0,0.006-0.001,0.008-0.001
		c0.018-0.002,0.04-0.005,0.058-0.007c0.005-0.001,0.01-0.002,0.015-0.002c0.018-0.003,0.037-0.005,0.055-0.008
		c0.007,0,0.014-0.002,0.021-0.002c0.018-0.003,0.036-0.005,0.054-0.008c0.005,0,0.011-0.001,0.017-0.002
		c0.017-0.002,0.04-0.005,0.058-0.007c0.003-0.001,0.004-0.001,0.007-0.001c0.069-0.01,0.125-0.017,0.194-0.025
		c0.002-0.001,0.008-0.001,0.01-0.002c0.017-0.002,0.037-0.005,0.055-0.007c0.007-0.001,0.013-0.002,0.02-0.003
		c0.023-0.003,0.031-0.004,0.055-0.007c0.005-0.001,0.013-0.002,0.018-0.002c0.018-0.003,0.037-0.005,0.055-0.008
		c0.005-0.001,0.012-0.001,0.017-0.002c0.087-0.012,0.171-0.022,0.258-0.034c0.003-0.001,0.007-0.001,0.01-0.002
		c0.023-0.003,0.041-0.005,0.063-0.009c0.002,0,0.004,0,0.005,0c0.023-0.003,0.041-0.006,0.063-0.009
		c0.006-0.001,0.006-0.001,0.012-0.001c0.086-0.012,0.172-0.023,0.259-0.036c0.005,0,0.008-0.001,0.013-0.001
		c0.023-0.004,0.035-0.005,0.059-0.009c0.005,0,0.008-0.001,0.013-0.001c0.023-0.004,0.034-0.005,0.058-0.008
		c0.005-0.001,0.011-0.002,0.016-0.003c0.022-0.003,0.034-0.004,0.058-0.008c0.003,0,0.009-0.001,0.012-0.001
		c0.018-0.003,0.043-0.006,0.061-0.009h0.002c0.069-0.01,0.129-0.019,0.198-0.027c0.003-0.001,0.006-0.001,0.01-0.002
		c0.018-0.002,0.037-0.005,0.055-0.008c0.007-0.001,0.015-0.002,0.021-0.003c0.017-0.002,0.038-0.005,0.056-0.008
		c0.003,0,0.007-0.001,0.01-0.001c0.023-0.003,0.039-0.006,0.063-0.009c0.002,0,0.002,0,0.004-0.001
		c0.092-0.013,0.179-0.024,0.271-0.038c0.002,0,0.002,0,0.004-0.001c0.023-0.003,0.042-0.006,0.064-0.009
		c0.004,0,0.004,0,0.007-0.001c0.023-0.003,0.038-0.006,0.062-0.009c0.003,0,0.01-0.001,0.013-0.002
		c0.092-0.013,0.169-0.024,0.261-0.037c0.003-0.001,0.006-0.001,0.009-0.002c0.023-0.003,0.037-0.005,0.061-0.008
		c0.003-0.001,0.008-0.002,0.011-0.002c0.023-0.003,0.035-0.005,0.059-0.009c0.005-0.001,0.01-0.001,0.016-0.002
		c0.017-0.003,0.041-0.006,0.059-0.009c0.002,0,0.003,0,0.005-0.001c0.092-0.013,0.172-0.024,0.265-0.038
		c0.005-0.001,0.006-0.001,0.011-0.002c0.023-0.003,0.034-0.005,0.058-0.009c0.005,0,0.01-0.001,0.015-0.002
		c0.022-0.003,0.039-0.006,0.062-0.009l0.002-0.001c0.115-0.017,0.226-0.033,0.34-0.051c0.002,0,0.005,0,0.006,0
		c0.023-0.004,0.04-0.007,0.063-0.01c0.001,0,0.006-0.001,0.008-0.001c0.023-0.004,0.039-0.007,0.063-0.01
		c0.001,0,0.006-0.001,0.008-0.001c0.086-0.014,0.167-0.025,0.254-0.039c0.008-0.001,0.014-0.002,0.021-0.003
		c0.018-0.003,0.034-0.006,0.052-0.008c0.006-0.001,0.014-0.002,0.02-0.003c0.023-0.004,0.032-0.005,0.056-0.009
		c0.005-0.001,0.007-0.001,0.013-0.002c0.092-0.014,0.176-0.027,0.268-0.041l0,0c0.023-0.004,0.042-0.007,0.064-0.011
		c0.004,0,0.003,0,0.006-0.001c0.023-0.003,0.039-0.006,0.062-0.009c0.003-0.001,0.009-0.002,0.012-0.002
		c0.023-0.004,0.039-0.007,0.063-0.01c0.002-0.001,0,0,0.002-0.001c0.114-0.018,0.222-0.034,0.336-0.053
		c0.003,0,0.007-0.001,0.011-0.001c0.022-0.004,0.038-0.007,0.061-0.01c0.004-0.001,0.005-0.001,0.009-0.002
		c0.022-0.003,0.038-0.006,0.062-0.01c0.003,0,0.005-0.001,0.009-0.001c0.092-0.015,0.175-0.028,0.267-0.043
		c0.002,0,0.001,0,0.002,0c0.023-0.004,0.044-0.008,0.067-0.011l0.002-0.001c0.16-0.025,0.317-0.051,0.478-0.077
		c0.002-0.001,0.002-0.001,0.004-0.001c0.137-0.022,0.271-0.045,0.408-0.067h0.002c0.32-0.054,0.639-0.107,0.958-0.162l0.001-0.001
		c16.493-2.839,32.206-7.953,46.808-15.01c0.001-0.001-0.001,0,0.001-0.001c0.021-0.01,0.036-0.018,0.057-0.027
		c0.003-0.001,0.004-0.002,0.007-0.003c0.021-0.01,0.037-0.018,0.057-0.027l0.001-0.001c0.102-0.049,0.2-0.097,0.301-0.146
		c0.002-0.001,0.001-0.001,0.002-0.001c0.021-0.01,0.038-0.019,0.059-0.028c0.001-0.001,0.002-0.001,0.004-0.002
		c0.02-0.01,0.036-0.018,0.057-0.027c0.001-0.001,0.003-0.002,0.005-0.003c0.08-0.039,0.154-0.075,0.234-0.114
		c0.002-0.001,0.004-0.002,0.005-0.003c0.021-0.01,0.038-0.019,0.059-0.028c0.001-0.001,0,0,0.002-0.001
		c0.02-0.01,0.039-0.019,0.059-0.029h0.001c0.096-0.047,0.197-0.097,0.293-0.144c0.004-0.002,0.01-0.005,0.014-0.007
		c0.016-0.008,0.029-0.015,0.044-0.022c0.008-0.003,0.016-0.007,0.022-0.011c0.016-0.007,0.029-0.015,0.045-0.021
		c0.006-0.003,0.008-0.005,0.015-0.008c0.015-0.007,0.034-0.017,0.05-0.024l0.002-0.001c0.061-0.029,0.112-0.056,0.173-0.086
		c0.003-0.001,0.005-0.002,0.008-0.004c0.015-0.007,0.033-0.016,0.048-0.023c0.007-0.003,0.012-0.006,0.018-0.009
		c0.021-0.01,0.026-0.013,0.046-0.022c0.006-0.003,0.013-0.006,0.019-0.009c0.015-0.008,0.028-0.015,0.044-0.022
		c0.009-0.004,0.016-0.008,0.024-0.012c0.055-0.027,0.103-0.051,0.157-0.079c0.002,0,0.003-0.001,0.005-0.002
		c0.015-0.007,0.033-0.017,0.049-0.024c0.006-0.003,0.009-0.004,0.015-0.007c0.021-0.011,0.031-0.016,0.052-0.026
		c0.003-0.001,0.006-0.003,0.009-0.004c0.02-0.01,0.031-0.016,0.052-0.026c0.004-0.002,0.009-0.004,0.013-0.006
		c0.016-0.008,0.034-0.018,0.05-0.025c0.004-0.002,0.009-0.004,0.014-0.007c0.05-0.024,0.104-0.052,0.153-0.076
		c0.006-0.004,0.014-0.007,0.02-0.01c0.015-0.008,0.024-0.013,0.039-0.021c0.009-0.004,0.018-0.009,0.026-0.013
		c0.01-0.005,0.028-0.014,0.038-0.02c0.009-0.004,0.018-0.009,0.026-0.013c0.016-0.008,0.025-0.013,0.04-0.021
		c0.008-0.004,0.013-0.007,0.021-0.01c0.015-0.008,0.03-0.016,0.045-0.023h0.001c0.035-0.018,0.063-0.032,0.099-0.05
		c0.008-0.004,0.016-0.008,0.023-0.012c0.015-0.008,0.022-0.012,0.038-0.02c0.009-0.004,0.018-0.009,0.026-0.013
		c0.01-0.006,0.027-0.015,0.037-0.02c0.009-0.004,0.019-0.009,0.027-0.014c0.01-0.005,0.029-0.015,0.04-0.02
		c0.009-0.005,0.017-0.009,0.025-0.014c0.015-0.007,0.021-0.011,0.037-0.019c0.01-0.005,0.017-0.009,0.027-0.014
		c0.05-0.025,0.091-0.046,0.141-0.071c0.006-0.003,0.015-0.008,0.021-0.011c0.005-0.003,0.013-0.007,0.018-0.009
		c6.151-3.129,8.604-10.65,5.478-16.804C262.062,315.201,257.669,312.701,253.112,312.701L253.112,312.701z M335.242,217.188
		c-5.249,0-10.137,3.333-11.869,8.591c-7.6,23.058-20.856,44.268-38.338,61.338c-4.938,4.823-5.033,12.737-0.21,17.677
		c2.449,2.508,5.695,3.767,8.944,3.767c3.149,0,6.301-1.183,8.732-3.557c20.129-19.656,35.604-44.06,44.614-71.399
		c2.161-6.556-1.402-13.623-7.959-15.784C337.858,217.392,336.539,217.188,335.242,217.188L335.242,217.188z M326.05,91.579
		c-1.885,0-3.799,0.428-5.599,1.332c-6.169,3.097-8.66,10.609-5.563,16.779C325.579,130.986,331,153.97,331,178
		c0,0.734-0.005,1.467-0.016,2.197c-0.097,6.903,5.42,12.578,12.323,12.675c0.061,0.001,0.119,0.002,0.18,0.002
		c6.809,0,12.379-5.462,12.494-12.288c0.007-0.453,0.012-0.908,0.015-1.362c0-0.002,0-0.004,0-0.006c0-0.018,0-0.038,0-0.056
		c0-0.008,0-0.016,0-0.023c0-0.012,0.001-0.036,0.001-0.048c0-0.01,0-0.021,0-0.031c0-0.012,0-0.029,0-0.041s0-0.023,0-0.035
		c0-0.012,0-0.03,0.001-0.042c0-0.011,0-0.023,0-0.034c0-0.018,0-0.022,0-0.04c0-0.014,0-0.028,0-0.042c0-0.012,0-0.021,0-0.034
		c0-0.022,0-0.045,0-0.068l0.001-0.009c0-0.024,0-0.048,0-0.072c0-0.012,0-0.018,0-0.03c0-0.017,0-0.033,0-0.049
		c0-0.006,0-0.021,0-0.027c0-0.016,0-0.031,0-0.047c0-0.012,0-0.021,0-0.034c0-0.015,0-0.029,0.001-0.044c0-0.012,0-0.019,0-0.031
		c0-0.015,0-0.029,0-0.044c0-0.012,0-0.021,0-0.033c0-0.014,0-0.028,0-0.042c0-0.012,0-0.023,0-0.035c0-0.013,0-0.026,0-0.04
		c0-0.012,0-0.024,0-0.036c0-0.016,0-0.033,0-0.049c0-0.012,0-0.014,0-0.026c0-0.025,0-0.051,0-0.076l0,0c0-0.026,0-0.052,0-0.079
		c0-0.012,0-0.014,0-0.025c0-0.018,0-0.035,0-0.052c0-0.012,0-0.021,0-0.033c0-0.016,0-0.029,0-0.044c0-0.012,0-0.022,0-0.034
		c0-0.016,0-0.032,0-0.047c0-0.006,0-0.025,0-0.031c0-0.017,0-0.037,0-0.054c0-0.012,0-0.011,0-0.023
		c-0.001-0.023-0.001-0.047-0.001-0.069c0-0.006,0-0.013,0-0.019c0-0.022,0-0.048,0-0.07c0-0.012,0-0.013,0-0.025
		c0-0.017,0-0.033,0-0.05c0-0.012,0-0.023,0-0.035c0-0.016,0-0.03-0.001-0.046c0-0.012,0-0.02,0-0.031c0-0.016,0-0.034,0-0.049
		c0-0.006,0-0.023,0-0.029c0-0.018,0-0.034,0-0.051c0-0.012,0-0.017,0-0.028c-0.001-0.023-0.001-0.046-0.001-0.068v-0.016
		c0-0.024,0-0.047,0-0.071c0-0.012,0-0.011,0-0.023c-0.001-0.019-0.001-0.037-0.001-0.056c0-0.006,0-0.021,0-0.027
		c0-0.017,0-0.032,0-0.05c0-0.012,0-0.02-0.001-0.032c0-0.016,0-0.03,0-0.046c0-0.012,0-0.021,0-0.034c0-0.017,0-0.035-0.001-0.053
		c0-0.012,0-0.012,0-0.023c0-0.026,0-0.051,0-0.078v-0.003c-0.001-0.026-0.001-0.05-0.001-0.076c0-0.012,0-0.016,0-0.028
		c-0.001-0.018-0.001-0.033-0.001-0.05c0-0.006,0-0.024,0-0.03c0-0.016,0-0.035-0.001-0.05c0-0.012,0-0.018,0-0.03
		c0-0.016,0-0.032,0-0.048c0-0.006-0.001-0.025-0.001-0.031c0-0.018,0-0.033,0-0.051c0-0.012,0-0.016-0.001-0.028
		c0-0.024,0-0.046,0-0.071v-0.012c-0.001-0.024-0.001-0.048-0.001-0.073c0-0.012,0-0.011-0.001-0.023c0-0.019,0-0.037,0-0.056
		c0-0.006-0.001-0.02-0.001-0.026c0-0.019,0-0.035,0-0.054c0-0.012,0-0.013-0.001-0.025c0-0.019,0-0.035,0-0.054
		c0-0.006-0.001-0.022-0.001-0.028c0-0.018,0-0.033,0-0.05c0-0.012-0.001-0.017-0.001-0.029c0-0.022,0-0.046-0.001-0.069v-0.015
		c0-0.024-0.001-0.047-0.001-0.072c0-0.012,0-0.018,0-0.029c-0.001-0.014-0.001-0.032-0.001-0.045c0-0.012,0-0.028-0.001-0.04
		c0-0.012,0-0.026,0-0.038s-0.001-0.026-0.001-0.039c0-0.014,0-0.028,0-0.042c-0.001-0.012-0.001-0.022-0.001-0.035
		c0-0.017-0.001-0.032-0.001-0.049c0-0.012,0-0.017,0-0.029c-0.001-0.019-0.001-0.039-0.001-0.059
		c-0.001-0.012-0.001-0.024-0.001-0.036c0-0.021-0.001-0.039-0.001-0.06c0-0.012,0-0.016,0-0.027
		c-0.001-0.018-0.001-0.034-0.001-0.051c0-0.006-0.001-0.025-0.001-0.031c0-0.016,0-0.032-0.001-0.048c0-0.012,0-0.021,0-0.032
		c-0.001-0.016-0.001-0.029-0.001-0.045c0-0.012-0.001-0.022-0.001-0.034c0-0.017,0-0.033-0.001-0.05c0-0.012,0-0.014,0-0.026
		c-0.001-0.021-0.001-0.043-0.002-0.064c0-0.012,0-0.018,0-0.03c-0.001-0.021-0.001-0.04-0.001-0.061
		c-0.001-0.012-0.001-0.019-0.001-0.031c0-0.016-0.001-0.031-0.001-0.046c0-0.006-0.001-0.027-0.001-0.033
		c0-0.016,0-0.031-0.001-0.047c0-0.012,0-0.021,0-0.033c-0.001-0.014-0.001-0.028-0.001-0.042c-0.001-0.012-0.001-0.025-0.001-0.038
		s-0.001-0.028-0.001-0.041c0-0.012-0.001-0.025-0.001-0.037c0-0.017-0.001-0.034-0.001-0.051c0-0.012-0.001-0.039-0.001-0.051
		c0-0.016-0.001-0.034-0.001-0.049c0-0.012-0.001-0.025-0.001-0.037c0-0.012-0.001-0.028-0.001-0.041
		c0-0.012-0.001-0.026-0.001-0.038c0-0.014-0.001-0.028-0.001-0.042c0-0.012,0-0.021-0.001-0.033c0-0.016,0-0.031-0.001-0.046
		c0-0.012,0-0.021-0.001-0.034c0-0.016,0-0.031-0.001-0.047c0-0.012,0-0.018-0.001-0.03c0-0.024-0.001-0.05-0.001-0.074
		l-0.001-0.005c0-0.026-0.001-0.051-0.002-0.078c0-0.012,0-0.012,0-0.024c-0.001-0.018-0.001-0.034-0.002-0.051
		c0-0.012,0-0.023,0-0.035c-0.001-0.016-0.001-0.028-0.002-0.044c0-0.012,0-0.021-0.001-0.034c0-0.016,0-0.03-0.001-0.045
		c0-0.012,0-0.021-0.001-0.033c0-0.016-0.001-0.032-0.001-0.047c0-0.012-0.001-0.02-0.001-0.031c0-0.018-0.001-0.031-0.001-0.048
		c-0.001-0.018-0.001-0.034-0.002-0.052c0-0.018-0.001-0.036-0.001-0.053c-0.001-0.012-0.001-0.016-0.001-0.028
		c0-0.017-0.001-0.033-0.001-0.05c-0.001-0.012-0.001-0.021-0.001-0.032c-0.001-0.016-0.001-0.029-0.002-0.044
		c0-0.012,0-0.025-0.001-0.037c0-0.012-0.001-0.025-0.001-0.037c0-0.018-0.001-0.025-0.001-0.043
		c-0.001-0.012-0.001-0.021-0.001-0.033c-0.001-0.018-0.001-0.024-0.002-0.042c0-0.014,0-0.031-0.001-0.045
		c0-0.018-0.001-0.038-0.002-0.056c0-0.017-0.001-0.034-0.001-0.051c-0.001-0.012-0.001-0.021-0.001-0.032
		c-0.001-0.016-0.001-0.029-0.002-0.044c0-0.012,0-0.022-0.001-0.035c0-0.016-0.001-0.03-0.001-0.045
		c-0.001-0.012-0.001-0.021-0.001-0.033c-0.001-0.016-0.001-0.028-0.002-0.043c0-0.012-0.001-0.023-0.001-0.035
		c-0.001-0.016-0.001-0.029-0.001-0.044c-0.001-0.012-0.001-0.022-0.002-0.034c0-0.017-0.001-0.03-0.001-0.048
		c-0.001-0.018-0.001-0.034-0.002-0.052s-0.001-0.035-0.002-0.052c0-0.012,0-0.018-0.001-0.03c0-0.018-0.001-0.031-0.001-0.048
		c-0.001-0.012-0.001-0.023-0.002-0.035c0-0.016-0.001-0.027-0.001-0.043c-0.001-0.012-0.001-0.023-0.001-0.035
		c-0.001-0.014-0.001-0.028-0.002-0.042c0-0.012-0.001-0.026-0.001-0.038c-0.001-0.014-0.001-0.027-0.002-0.042
		c0-0.012-0.001-0.022-0.001-0.034c-0.001-0.019-0.001-0.035-0.002-0.054c0-0.012-0.001-0.029-0.002-0.042
		c0-0.019-0.001-0.039-0.002-0.058c0-0.012,0-0.02-0.001-0.032c0-0.014-0.001-0.029-0.002-0.043c0-0.012,0-0.025-0.001-0.037
		c0-0.014-0.001-0.03-0.002-0.044c0-0.012,0-0.019-0.001-0.031c0-0.018-0.001-0.033-0.002-0.05c0-0.006,0-0.021-0.001-0.027
		c0-0.019-0.001-0.039-0.002-0.058c0-0.012,0-0.009-0.001-0.021c-0.001-0.024-0.002-0.05-0.003-0.075v-0.005
		c-0.001-0.026-0.002-0.05-0.003-0.076c0-0.012-0.001-0.014-0.001-0.026c-0.001-0.017-0.001-0.034-0.002-0.051
		c-0.001-0.012-0.001-0.021-0.001-0.033c-0.001-0.016-0.002-0.029-0.002-0.044c-0.001-0.012-0.001-0.023-0.002-0.035
		c0-0.016-0.001-0.027-0.001-0.042c-0.001-0.012-0.001-0.025-0.002-0.037c-0.001-0.014-0.001-0.029-0.002-0.042
		c0-0.012-0.001-0.021-0.001-0.033c-0.001-0.017-0.002-0.033-0.002-0.051c-0.001-0.018-0.002-0.039-0.003-0.057
		c0-0.014-0.001-0.03-0.002-0.043c0-0.012-0.001-0.027-0.001-0.039c-0.001-0.012-0.001-0.025-0.002-0.037
		c-0.001-0.018-0.001-0.023-0.002-0.041c0-0.012-0.001-0.024-0.001-0.037c-0.001-0.012-0.001-0.028-0.002-0.04
		c-0.001-0.012-0.001-0.025-0.002-0.038c0-0.012-0.001-0.027-0.001-0.039c-0.001-0.014-0.002-0.027-0.002-0.041
		c-0.001-0.012-0.001-0.025-0.002-0.037c0-0.014-0.001-0.029-0.002-0.042c-0.001-0.024-0.002-0.04-0.003-0.063
		c0-0.014-0.001-0.03-0.002-0.043c0-0.012-0.001-0.024-0.001-0.036c-0.001-0.014-0.002-0.028-0.002-0.042
		c-0.001-0.012-0.001-0.024-0.002-0.036c-0.001-0.014-0.001-0.028-0.002-0.042c0-0.012-0.001-0.024-0.002-0.036
		c0-0.014-0.001-0.027-0.002-0.042c0-0.012-0.001-0.025-0.001-0.037c-0.001-0.014-0.002-0.03-0.002-0.043
		c-0.001-0.012-0.001-0.021-0.002-0.033c-0.001-0.018-0.001-0.033-0.002-0.05c-0.001-0.012-0.002-0.041-0.003-0.052
		c-0.001-0.018-0.001-0.032-0.002-0.05c-0.001-0.012-0.001-0.024-0.002-0.037c-0.001-0.012-0.001-0.026-0.002-0.039
		c0-0.012-0.001-0.028-0.002-0.04c0-0.012-0.001-0.027-0.002-0.039c0-0.012-0.001-0.026-0.002-0.038
		c0-0.012-0.001-0.026-0.002-0.038c0-0.012-0.001-0.028-0.002-0.04c0-0.012-0.001-0.027-0.002-0.04c0-0.012-0.001-0.025-0.001-0.037
		c-0.001-0.012-0.002-0.027-0.002-0.039c-0.002-0.024-0.003-0.045-0.004-0.068c-0.001-0.016-0.001-0.027-0.002-0.042
		c-0.001-0.012-0.001-0.022-0.002-0.034c-0.001-0.016-0.001-0.028-0.002-0.043c-0.001-0.012-0.001-0.026-0.002-0.038
		c-0.001-0.012-0.001-0.027-0.002-0.039c-0.001-0.012-0.001-0.028-0.002-0.04c-0.001-0.01-0.001-0.023-0.002-0.034
		c-0.001-0.018-0.001-0.028-0.002-0.046c-0.001-0.01-0.001-0.017-0.002-0.027c-0.001-0.018-0.001-0.03-0.002-0.047
		c-0.001-0.009-0.001-0.016-0.002-0.025c-0.002-0.035-0.003-0.06-0.005-0.096c0-0.008-0.001-0.018-0.001-0.026
		c-0.001-0.018-0.002-0.027-0.003-0.045c0-0.01-0.001-0.02-0.001-0.03c-0.001-0.018-0.002-0.025-0.003-0.043
		c0-0.012-0.001-0.024-0.002-0.037c0-0.012-0.001-0.027-0.002-0.039c-0.001-0.012-0.001-0.023-0.002-0.036
		c-0.001-0.018-0.001-0.025-0.002-0.043c-0.001-0.01-0.001-0.02-0.002-0.03c-0.001-0.018-0.002-0.029-0.003-0.047
		c0-0.005,0-0.012-0.001-0.017c-0.002-0.036-0.004-0.072-0.006-0.107c0-0.007,0-0.014-0.001-0.021
		c-0.001-0.018-0.002-0.03-0.003-0.047c0-0.01-0.001-0.018-0.001-0.028c-0.001-0.018-0.002-0.03-0.003-0.047
		c-0.001-0.01-0.001-0.019-0.002-0.029c0-0.012-0.002-0.032-0.002-0.044c-0.001-0.01-0.002-0.021-0.002-0.032
		c-0.001-0.018-0.002-0.028-0.003-0.046c0-0.01-0.001-0.016-0.001-0.027c-0.001-0.018-0.002-0.031-0.003-0.049
		c-0.001-0.005-0.001-0.009-0.001-0.014c-0.002-0.035-0.005-0.082-0.007-0.118c0-0.003-0.001-0.009-0.001-0.013
		c-0.001-0.018-0.002-0.04-0.003-0.057c-0.001-0.005-0.001-0.01-0.001-0.015c-0.001-0.018-0.003-0.038-0.004-0.056
		c0-0.007,0-0.015-0.001-0.022c-0.001-0.012-0.002-0.038-0.003-0.05c-0.001-0.009-0.001-0.018-0.002-0.026
		c-0.001-0.018-0.002-0.031-0.003-0.048c0-0.01-0.001-0.017-0.001-0.027c-0.001-0.018-0.002-0.032-0.003-0.049
		c-0.001-0.003-0.001-0.007-0.001-0.011c-0.002-0.036-0.005-0.084-0.007-0.12c-0.001-0.005-0.001-0.008-0.001-0.014
		c-0.001-0.018-0.002-0.033-0.003-0.05c-0.001-0.009-0.001-0.016-0.002-0.024c-0.001-0.018-0.002-0.035-0.003-0.053
		c-0.001-0.007-0.001-0.015-0.002-0.022c0-0.012-0.002-0.038-0.003-0.05c-0.001-0.008-0.001-0.017-0.002-0.025
		c-0.001-0.018-0.002-0.033-0.003-0.051c0-0.007-0.001-0.016-0.001-0.023c-0.002-0.018-0.002-0.032-0.004-0.05
		c0-0.007-0.001-0.016-0.001-0.023c-0.003-0.041-0.005-0.077-0.008-0.119c0-0.001,0-0.001,0-0.003
		c-0.001-0.018-0.003-0.042-0.004-0.061c0-0.003-0.001-0.009-0.001-0.013c-0.001-0.018-0.002-0.037-0.003-0.054
		c-0.001-0.007-0.002-0.017-0.002-0.024c-0.001-0.012-0.003-0.039-0.003-0.051c-0.001-0.007-0.001-0.015-0.002-0.021
		c-0.001-0.018-0.002-0.037-0.004-0.054c0-0.005,0-0.012-0.001-0.017c-0.005-0.083-0.011-0.174-0.017-0.256
		c0-0.005-0.001-0.013-0.001-0.018c-0.002-0.018-0.003-0.037-0.004-0.054c-0.001-0.007-0.001-0.014-0.002-0.021
		c0-0.012-0.002-0.039-0.003-0.05c-0.001-0.009-0.001-0.019-0.002-0.027c-0.001-0.018-0.002-0.033-0.003-0.05
		c-0.001-0.007-0.001-0.014-0.002-0.021c-0.001-0.018-0.002-0.035-0.004-0.053c0-0.003,0-0.008-0.001-0.012
		c-0.002-0.036-0.005-0.082-0.008-0.117c0-0.005-0.001-0.01-0.001-0.016c-0.001-0.018-0.003-0.039-0.004-0.056
		c0-0.005-0.001-0.011-0.001-0.016c-0.001-0.018-0.003-0.039-0.004-0.056c-0.001-0.007-0.001-0.012-0.001-0.019
		c-0.002-0.023-0.003-0.032-0.005-0.056c0-0.005,0-0.011-0.001-0.017c-0.001-0.018-0.003-0.039-0.004-0.057
		c0-0.005-0.001-0.012-0.001-0.017c-0.006-0.082-0.013-0.173-0.019-0.255c0-0.005-0.001-0.013-0.001-0.018
		c-0.002-0.018-0.003-0.039-0.005-0.056c0-0.005,0-0.011-0.001-0.016c-0.002-0.024-0.002-0.036-0.004-0.059
		c0-0.003-0.001-0.008-0.001-0.012c-0.002-0.024-0.003-0.04-0.005-0.063c0-0.002,0-0.003,0-0.004
		c-0.007-0.088-0.014-0.177-0.021-0.266c0-0.005,0-0.012-0.001-0.017c-0.001-0.018-0.002-0.032-0.004-0.05
		c-0.001-0.01-0.001-0.019-0.002-0.029c-0.001-0.012-0.003-0.034-0.004-0.045c0-0.008-0.001-0.018-0.002-0.027
		c-0.001-0.018-0.002-0.034-0.004-0.051c0-0.005-0.001-0.012-0.001-0.018c-0.007-0.082-0.014-0.176-0.021-0.259
		c0-0.003,0-0.009-0.001-0.012c-0.001-0.018-0.003-0.041-0.004-0.058c-0.001-0.007-0.001-0.01-0.002-0.017
		c-0.001-0.018-0.003-0.036-0.004-0.053c-0.001-0.007-0.001-0.015-0.002-0.021c-0.001-0.018-0.003-0.039-0.004-0.056
		c-0.001-0.003-0.001-0.007-0.001-0.011c-0.008-0.094-0.015-0.177-0.022-0.271c0-0.002,0-0.001,0-0.002
		c-0.002-0.023-0.003-0.038-0.005-0.062c0-0.003-0.001-0.011-0.001-0.015c-0.002-0.023-0.003-0.034-0.005-0.057
		c0-0.005-0.001-0.012-0.001-0.017c-0.002-0.018-0.003-0.037-0.005-0.055c-0.001-0.007-0.001-0.014-0.002-0.021
		c-0.007-0.082-0.014-0.171-0.021-0.253c-0.001-0.005-0.001-0.012-0.002-0.017c-0.001-0.018-0.003-0.037-0.004-0.055
		c-0.001-0.007-0.002-0.012-0.002-0.019c-0.002-0.023-0.003-0.031-0.005-0.054c0-0.007-0.001-0.011-0.001-0.018
		c-0.002-0.018-0.004-0.042-0.006-0.06v-0.002c-0.008-0.094-0.016-0.184-0.023-0.277c0-0.002,0-0.001,0-0.002
		c-0.002-0.018-0.004-0.043-0.006-0.061c0-0.007-0.001-0.009-0.001-0.016c-0.002-0.023-0.003-0.033-0.005-0.057
		c-0.001-0.005-0.001-0.01-0.002-0.015c-0.002-0.023-0.003-0.036-0.005-0.06c0-0.003-0.001-0.005-0.001-0.009
		c-0.008-0.093-0.016-0.179-0.024-0.272c0-0.002,0-0.001,0-0.002c-0.002-0.023-0.004-0.041-0.006-0.064c0-0.003,0-0.006-0.001-0.009
		c-0.002-0.023-0.003-0.038-0.005-0.061c-0.001-0.003-0.001-0.008-0.001-0.012c-0.013-0.14-0.025-0.271-0.038-0.411
		c0-0.002,0-0.004,0-0.006c-0.003-0.023-0.004-0.042-0.007-0.065c0-0.003,0-0.002,0-0.005c-0.002-0.023-0.004-0.043-0.006-0.067
		l-0.001-0.001c-0.009-0.094-0.017-0.18-0.025-0.273c0-0.003,0-0.004-0.001-0.007c-0.002-0.023-0.004-0.04-0.006-0.063
		c0-0.003,0-0.006-0.001-0.009c-0.002-0.023-0.004-0.039-0.006-0.062c0-0.003,0-0.005-0.001-0.009
		c-0.014-0.14-0.025-0.269-0.039-0.409c-0.001-0.003-0.001-0.008-0.002-0.011c-0.002-0.023-0.003-0.038-0.006-0.062
		c0-0.003,0-0.004-0.001-0.008c-0.002-0.023-0.004-0.042-0.006-0.065l-0.001-0.003c-0.011-0.117-0.022-0.226-0.034-0.342
		c0-0.003,0-0.006-0.001-0.01c-0.002-0.023-0.003-0.035-0.006-0.058c0-0.005-0.001-0.011-0.001-0.016
		c-0.002-0.018-0.005-0.043-0.007-0.061v0c-1.744-17.106-5.916-33.492-12.168-48.811c-0.001-0.001-0.002-0.002-0.002-0.004
		c-0.009-0.021-0.016-0.039-0.024-0.06c-0.001-0.001-0.001-0.002-0.002-0.004c-0.051-0.125-0.101-0.247-0.152-0.372v-0.001
		c-0.052-0.125-0.101-0.243-0.152-0.368c-0.002-0.004-0.003-0.007-0.004-0.011c-0.009-0.021-0.014-0.032-0.022-0.053
		c-0.002-0.004-0.002-0.006-0.004-0.011c-0.009-0.021-0.015-0.034-0.023-0.055c0-0.001-0.002-0.004-0.002-0.006
		c-0.032-0.078-0.066-0.159-0.099-0.237c-0.002-0.003-0.003-0.007-0.005-0.01c-0.006-0.016-0.014-0.033-0.021-0.049
		c-0.002-0.006-0.005-0.013-0.008-0.019c-0.006-0.016-0.012-0.028-0.018-0.044c-0.004-0.008-0.007-0.015-0.01-0.022
		c-0.007-0.016-0.014-0.032-0.02-0.047c-0.002-0.004-0.004-0.008-0.005-0.012c-0.007-0.016-0.017-0.038-0.022-0.053l-0.001-0.002
		c-0.016-0.036-0.031-0.073-0.046-0.109c-0.002-0.005-0.004-0.01-0.006-0.015c-0.007-0.016-0.013-0.03-0.02-0.045
		c-0.003-0.007-0.005-0.012-0.008-0.02c-0.007-0.016-0.012-0.028-0.019-0.044c-0.004-0.009-0.007-0.016-0.011-0.025
		c-0.005-0.01-0.012-0.027-0.016-0.038c-0.005-0.01-0.009-0.02-0.014-0.031c-0.004-0.01-0.011-0.026-0.015-0.037
		c-0.005-0.011-0.009-0.02-0.014-0.031c-0.006-0.016-0.009-0.022-0.016-0.038c-0.003-0.007-0.007-0.017-0.01-0.024
		c-0.009-0.021-0.018-0.041-0.026-0.061c-0.006-0.015-0.013-0.032-0.02-0.047c-0.002-0.005-0.005-0.013-0.008-0.018
		c-0.007-0.017-0.014-0.034-0.021-0.05c-0.003-0.005-0.01-0.022-0.012-0.027c-0.006-0.012-0.011-0.024-0.016-0.037
		c-0.005-0.01-0.011-0.026-0.016-0.036c-0.004-0.009-0.008-0.018-0.012-0.027c-0.006-0.016-0.012-0.027-0.018-0.043
		c-0.004-0.007-0.007-0.015-0.01-0.022c-0.007-0.016-0.011-0.025-0.018-0.041c-0.005-0.011-0.009-0.02-0.013-0.03
		c-0.011-0.026-0.021-0.05-0.032-0.076c-0.003-0.008-0.007-0.016-0.01-0.024c-0.007-0.015-0.01-0.022-0.017-0.038
		c-0.004-0.009-0.009-0.02-0.013-0.028c-0.006-0.016-0.008-0.02-0.015-0.035c-0.005-0.012-0.01-0.024-0.016-0.036
		c-0.004-0.011-0.008-0.02-0.013-0.03c-0.005-0.012-0.01-0.024-0.016-0.036c-0.004-0.01-0.01-0.023-0.014-0.033
		c-0.005-0.01-0.01-0.023-0.015-0.034c-0.005-0.01-0.01-0.023-0.015-0.033c-0.005-0.012-0.011-0.027-0.017-0.039
		c-0.007-0.016-0.009-0.022-0.016-0.038c-0.008-0.018-0.016-0.037-0.023-0.055c-0.005-0.011-0.009-0.02-0.013-0.03
		c-0.006-0.014-0.01-0.023-0.016-0.037c-0.007-0.016-0.009-0.019-0.015-0.034c-0.006-0.012-0.01-0.022-0.016-0.035
		c-0.004-0.01-0.008-0.02-0.013-0.03c-0.006-0.014-0.012-0.027-0.018-0.041c-0.004-0.011-0.007-0.018-0.012-0.028
		c-0.007-0.015-0.012-0.027-0.018-0.042c-0.005-0.01-0.007-0.016-0.012-0.026c-0.007-0.015-0.013-0.03-0.02-0.045
		c-0.004-0.01-0.009-0.021-0.013-0.031c-0.009-0.02-0.018-0.039-0.025-0.059c-0.005-0.01-0.008-0.017-0.012-0.027
		c-0.005-0.012-0.011-0.025-0.016-0.037c-0.007-0.016-0.01-0.021-0.017-0.037c-0.005-0.012-0.009-0.021-0.014-0.033
		c-0.005-0.01-0.009-0.021-0.014-0.031c-0.006-0.014-0.012-0.026-0.018-0.04c-0.004-0.01-0.007-0.016-0.011-0.027
		c-0.008-0.016-0.015-0.032-0.021-0.049c-0.005-0.01-0.004-0.008-0.008-0.018c-0.02-0.045-0.04-0.092-0.06-0.137
		c-0.002-0.005-0.004-0.009-0.006-0.014c-0.009-0.02-0.016-0.035-0.024-0.055c-0.002-0.005-0.006-0.014-0.008-0.019
		c-0.008-0.017-0.016-0.035-0.022-0.051c-0.002-0.005-0.006-0.012-0.008-0.018c-0.007-0.017-0.015-0.035-0.022-0.051
		c-0.002-0.005-0.006-0.014-0.008-0.019c-0.03-0.069-0.061-0.138-0.091-0.208c-0.003-0.005-0.003-0.005-0.005-0.01
		c-0.009-0.02-0.017-0.038-0.025-0.057c-0.002-0.005-0.005-0.013-0.008-0.018c-0.008-0.018-0.016-0.036-0.023-0.054
		c-0.002-0.005-0.004-0.009-0.006-0.014c-0.008-0.018-0.017-0.038-0.024-0.056c-0.003-0.005-0.004-0.009-0.007-0.014
		c-0.009-0.021-0.018-0.041-0.027-0.062l-0.003-0.006c-0.031-0.072-0.062-0.141-0.094-0.213l-0.002-0.003
		c-0.01-0.022-0.02-0.045-0.029-0.067l-0.002-0.004c-0.01-0.021-0.021-0.045-0.029-0.066c-0.002-0.005,0,0-0.003-0.006
		c-0.042-0.094-0.084-0.19-0.126-0.284l-0.001-0.002c-0.011-0.024-0.021-0.046-0.031-0.07l0,0c-1.101-2.467-2.256-4.905-3.463-7.311
		C335.037,94.103,330.628,91.579,326.05,91.579L326.05,91.579z M230.938,9.001c-5.227,0-10.1,3.304-11.851,8.533
		c-2.193,6.546,1.336,13.63,7.883,15.823c23.021,7.71,44.167,21.069,61.154,38.631c2.453,2.536,5.718,3.81,8.986,3.81
		c3.129,0,6.263-1.168,8.689-3.515c4.962-4.8,5.094-12.713,0.294-17.675c-6.076-6.282-12.61-12.115-19.552-17.447l-0.003-0.002
		c-0.087-0.067-0.171-0.131-0.258-0.198l-0.006-0.004c-0.019-0.014-0.04-0.031-0.06-0.045l-0.005-0.003
		c-0.021-0.016-0.042-0.032-0.063-0.048l-0.001-0.001c-0.044-0.033-0.086-0.066-0.13-0.099l-0.003-0.002
		c-0.021-0.016-0.041-0.031-0.062-0.047l-0.005-0.004c-0.02-0.014-0.038-0.029-0.058-0.043l-0.008-0.006
		c-0.043-0.033-0.086-0.066-0.129-0.098l-0.001,0c-0.021-0.017-0.041-0.032-0.063-0.048l-0.003-0.002
		c-0.021-0.016-0.041-0.031-0.062-0.046l-0.005-0.003c-0.065-0.05-0.129-0.098-0.194-0.148l-0.003-0.001
		c-0.021-0.016-0.038-0.029-0.059-0.044c-0.005-0.003-0.005-0.003-0.009-0.007c-0.085-0.064-0.173-0.13-0.258-0.194
		c-0.004-0.003-0.001,0-0.005-0.004c-0.086-0.064-0.172-0.129-0.258-0.193c-0.004-0.003-0.004-0.003-0.009-0.007
		c-0.084-0.063-0.17-0.127-0.254-0.19c-0.004-0.003-0.009-0.006-0.014-0.01c-0.018-0.014-0.038-0.029-0.056-0.042l-0.004-0.002
		c-0.043-0.032-0.086-0.064-0.129-0.096c-0.004-0.003-0.007-0.005-0.012-0.009c-0.017-0.012-0.032-0.024-0.049-0.036
		c-0.009-0.007-0.009-0.007-0.018-0.014c-0.017-0.012-0.034-0.025-0.051-0.038c-0.005-0.003-0.005-0.004-0.01-0.007
		c-0.043-0.032-0.086-0.063-0.129-0.095l-0.003-0.002c-0.02-0.014-0.039-0.029-0.059-0.043c-0.004-0.003-0.009-0.006-0.013-0.01
		c-0.017-0.012-0.036-0.026-0.053-0.039c-0.005-0.003-0.006-0.004-0.01-0.007c-0.021-0.016-0.041-0.031-0.063-0.046l-0.001-0.001
		c-0.041-0.031-0.083-0.062-0.124-0.092c-0.005-0.003-0.017-0.012-0.021-0.015c-0.014-0.01-0.028-0.021-0.042-0.032
		c-0.005-0.003-0.015-0.01-0.019-0.014c-0.017-0.012-0.036-0.026-0.053-0.039c-0.004-0.003-0.004-0.003-0.009-0.006
		c-0.021-0.016-0.04-0.03-0.063-0.046c-0.005-0.003-0.007-0.004-0.011-0.008c-0.017-0.012-0.033-0.025-0.051-0.037
		c-0.004-0.003-0.016-0.011-0.02-0.015c-0.016-0.011-0.03-0.022-0.045-0.033c-0.005-0.003-0.011-0.008-0.016-0.011
		c-0.016-0.011-0.034-0.025-0.05-0.036c-0.009-0.007-0.006-0.004-0.015-0.011c-0.021-0.016-0.041-0.03-0.062-0.045l-0.005-0.003
		c-0.018-0.013-0.036-0.027-0.055-0.04c-0.005-0.003-0.019-0.014-0.022-0.017c-0.013-0.009-0.029-0.021-0.042-0.03
		c-0.009-0.007-0.011-0.008-0.02-0.015c-0.016-0.011-0.03-0.022-0.046-0.034c-0.005-0.003-0.011-0.008-0.016-0.011
		c-0.042-0.031-0.083-0.061-0.125-0.091c-0.004-0.003-0.012-0.009-0.017-0.012c-0.014-0.01-0.03-0.022-0.044-0.032
		c-0.009-0.007-0.013-0.01-0.021-0.016c-0.013-0.009-0.027-0.02-0.04-0.029c-0.004-0.003-0.02-0.014-0.024-0.018
		c-0.014-0.01-0.029-0.021-0.043-0.032c-0.005-0.003-0.013-0.009-0.018-0.012c-0.018-0.013-0.038-0.028-0.056-0.041
		c-0.014-0.01-0.019-0.013-0.032-0.023c-0.01-0.007-0.02-0.015-0.029-0.022c-0.01-0.006-0.022-0.016-0.031-0.022
		c-0.01-0.007-0.02-0.014-0.029-0.021c-0.009-0.007-0.021-0.016-0.031-0.022c-0.011-0.008-0.021-0.015-0.031-0.023
		c-0.041-0.029-0.082-0.06-0.123-0.089c-0.007-0.005-0.014-0.01-0.021-0.015c-0.014-0.01-0.021-0.016-0.035-0.026
		c-0.009-0.006-0.017-0.012-0.025-0.018c-0.014-0.01-0.023-0.018-0.037-0.027c-0.006-0.004-0.012-0.008-0.017-0.012
		c-0.046-0.033-0.089-0.064-0.134-0.097c-0.007-0.005-0.015-0.01-0.021-0.015c-0.014-0.01-0.023-0.017-0.037-0.027
		c-0.007-0.005-0.016-0.011-0.022-0.016c-0.014-0.01-0.023-0.017-0.037-0.027c-0.007-0.005-0.016-0.012-0.022-0.017
		c-0.014-0.01-0.024-0.017-0.038-0.027c-0.002-0.002-0.007-0.005-0.01-0.007c-0.027-0.02-0.055-0.039-0.082-0.059
		c-0.007-0.005-0.014-0.01-0.021-0.015c-0.014-0.01-0.022-0.016-0.035-0.025c-0.01-0.007-0.017-0.012-0.026-0.019
		c-0.009-0.006-0.025-0.018-0.034-0.025c-0.009-0.006-0.019-0.013-0.027-0.019c-0.014-0.01-0.019-0.014-0.032-0.023
		c-0.009-0.006-0.017-0.012-0.025-0.018c-0.022-0.017-0.046-0.033-0.068-0.049c-0.008-0.006-0.014-0.01-0.022-0.016
		c-0.014-0.01-0.021-0.015-0.034-0.025c-0.008-0.006-0.018-0.012-0.025-0.018c-0.01-0.007-0.025-0.018-0.034-0.024
		c-0.01-0.007-0.019-0.014-0.029-0.021c-0.013-0.01-0.018-0.013-0.031-0.023c-0.01-0.007-0.018-0.012-0.027-0.02
		c-0.019-0.013-0.044-0.031-0.063-0.044c-0.009-0.006-0.018-0.013-0.026-0.019s-0.021-0.015-0.029-0.021
		c-0.012-0.008-0.022-0.016-0.034-0.024c-0.009-0.006-0.02-0.014-0.028-0.021c-0.01-0.007-0.022-0.016-0.032-0.022
		c-0.014-0.01-0.017-0.012-0.03-0.021c-0.01-0.007-0.017-0.012-0.026-0.019c-0.022-0.016-0.046-0.033-0.068-0.049
		c-0.008-0.005-0.015-0.01-0.022-0.015c-0.013-0.01-0.02-0.014-0.033-0.024c-0.009-0.006-0.018-0.012-0.025-0.018
		c-0.01-0.006-0.027-0.019-0.036-0.025c-0.008-0.006-0.017-0.012-0.025-0.018c-0.014-0.01-0.021-0.016-0.035-0.025
		c-0.009-0.006-0.017-0.011-0.024-0.018c-0.046-0.032-0.08-0.056-0.125-0.088c-0.009-0.006-0.018-0.012-0.026-0.018
		c-0.014-0.01-0.021-0.015-0.035-0.024c-0.008-0.006-0.017-0.012-0.025-0.018c-0.014-0.01-0.021-0.016-0.035-0.025
		c-0.007-0.005-0.015-0.011-0.022-0.016c-0.045-0.032-0.091-0.064-0.137-0.097c-0.006-0.004-0.009-0.006-0.015-0.01
		c-0.014-0.01-0.023-0.017-0.037-0.026c-0.009-0.006-0.018-0.012-0.025-0.018c-0.014-0.01-0.023-0.016-0.037-0.025
		c-0.007-0.005-0.012-0.009-0.019-0.014c-0.046-0.032-0.09-0.063-0.136-0.095c-0.005-0.004-0.013-0.009-0.019-0.013
		c-0.014-0.01-0.027-0.02-0.041-0.029c-0.006-0.004-0.012-0.008-0.018-0.012c-0.018-0.013-0.025-0.018-0.044-0.03
		c-0.004-0.003-0.007-0.005-0.012-0.008c-0.063-0.044-0.139-0.097-0.202-0.142c-0.005-0.003-0.01-0.007-0.015-0.01
		c-0.018-0.013-0.024-0.018-0.043-0.03c-0.006-0.004-0.01-0.007-0.016-0.011c-0.014-0.009-0.03-0.021-0.044-0.03
		c-0.004-0.003-0.007-0.005-0.012-0.008c-0.045-0.032-0.096-0.067-0.142-0.099c-0.007-0.005-0.012-0.008-0.02-0.013
		c-0.014-0.009-0.023-0.017-0.037-0.026c-0.007-0.005-0.016-0.011-0.022-0.016c-0.014-0.009-0.028-0.019-0.042-0.028
		c-0.002-0.002-0.005-0.004-0.008-0.006c-0.051-0.035-0.098-0.067-0.147-0.102c-0.005-0.003-0.01-0.007-0.015-0.01
		c-0.018-0.013-0.028-0.02-0.047-0.032c-0.003-0.002-0.005-0.004-0.008-0.006c-0.019-0.013-0.032-0.022-0.051-0.035l-0.002-0.001
		c-0.073-0.051-0.141-0.097-0.214-0.147c-0.003-0.002-0.006-0.004-0.009-0.006c-0.019-0.013-0.031-0.021-0.05-0.034
		c-0.001-0.001-0.003-0.002-0.004-0.003c-0.056-0.038-0.103-0.071-0.158-0.108c-0.001-0.001-0.004-0.002-0.005-0.003
		c-0.014-0.01-0.033-0.023-0.047-0.033c-0.005-0.003-0.008-0.005-0.012-0.008c-0.019-0.013-0.027-0.019-0.046-0.031
		c-0.005-0.003-0.009-0.006-0.014-0.009c-0.068-0.047-0.139-0.095-0.208-0.142c-0.001-0.001-0.004-0.003-0.006-0.004
		c-0.018-0.012-0.033-0.023-0.052-0.035c-0.001-0.001-0.002-0.001-0.003-0.002c-0.073-0.05-0.141-0.096-0.215-0.146
		c-0.003-0.002-0.003-0.002-0.006-0.004c-0.019-0.013-0.033-0.022-0.052-0.035c-0.001-0.001-0.003-0.002-0.004-0.003
		c-0.093-0.063-0.181-0.123-0.273-0.185c-0.001-0.001-0.001,0-0.002-0.001c-0.019-0.012-0.034-0.023-0.053-0.036
		c-0.003-0.002-0.003-0.002-0.006-0.004c-0.073-0.05-0.14-0.094-0.214-0.144c-0.001-0.001-0.005-0.003-0.006-0.004
		c-13.077-8.806-27.394-15.917-42.627-21.018C233.58,9.208,232.248,9.001,230.938,9.001L230.938,9.001z M178.5,0.5
		c-0.027,0-0.053,0-0.08,0c-0.012,0-0.013,0-0.025,0c-0.02,0-0.035,0-0.055,0c-0.012,0-0.019,0-0.031,0c-0.016,0-0.032,0-0.049,0
		c-0.012,0-0.02,0-0.032,0c-0.018,0-0.033,0-0.051,0c-0.012,0-0.018,0-0.03,0c-0.027,0-0.051,0-0.078,0h-0.008
		c-0.025,0-0.047,0-0.072,0c-0.012,0-0.013,0-0.024,0c-0.02,0-0.038,0-0.058,0c-0.012,0-0.016,0-0.028,0c-0.016,0-0.033,0-0.049,0
		c-0.012,0-0.021,0-0.033,0c-0.02,0-0.036,0-0.056,0c-0.012,0-0.011,0-0.023,0c-0.027,0-0.054,0-0.081,0c-0.006,0-0.002,0-0.008,0
		c-0.025,0-0.047,0-0.072,0c-0.006,0-0.02,0-0.026,0c-0.02,0-0.036,0-0.055,0c-0.012,0-0.016,0-0.028,0c-0.018,0-0.039,0-0.057,0
		c-0.006,0-0.017,0-0.023,0c-0.02,0-0.042,0-0.062,0c-0.006,0-0.015,0-0.021,0c-0.027,0-0.052,0-0.079,0c-0.006,0-0.012,0-0.018,0
		c-0.02,0-0.042,0-0.062,0c-0.006,0-0.023,0-0.029,0c-0.018,0-0.036,0-0.054,0c-0.012,0-0.016,0-0.028,0c-0.018,0-0.035,0-0.053,0
		c-0.006,0-0.022,0-0.028,0c-0.02,0-0.042,0-0.063,0c-0.006,0-0.011,0-0.017,0c-0.027,0-0.054,0-0.081,0.001
		c-0.006,0-0.008,0-0.014,0c-0.022,0-0.044,0-0.065,0c-0.006,0-0.021,0-0.027,0c-0.018,0-0.036,0-0.054,0c-0.012,0-0.018,0-0.029,0
		c-0.018,0-0.038,0-0.056,0c-0.006,0-0.017,0-0.023,0c-0.021,0-0.042,0-0.063,0.001c-0.006,0-0.014,0-0.02,0
		c-0.027,0-0.054,0.001-0.081,0.001c-0.006,0-0.005,0-0.011,0c-0.023,0-0.046,0-0.069,0c-0.006,0-0.017,0-0.022,0
		c-0.02,0-0.041,0-0.061,0c-0.012,0-0.011,0-0.023,0c-0.02,0-0.038,0-0.057,0.001c-0.006,0-0.02,0-0.026,0
		c-0.02,0-0.043,0-0.063,0.001c-0.006,0-0.011,0-0.017,0c-0.025,0-0.056,0.001-0.081,0.001c-0.006,0-0.011,0-0.017,0
		c-0.02,0-0.042,0.001-0.062,0.001c-0.006,0-0.023,0-0.029,0c-0.016,0-0.033,0-0.049,0.001c-0.012,0-0.023,0-0.035,0
		c-0.017,0-0.033,0-0.049,0c-0.006,0-0.022,0-0.028,0c-0.02,0-0.042,0-0.061,0.001c-0.006,0-0.014,0-0.02,0
		c-0.025,0-0.054,0.001-0.079,0.001c-0.012,0-0.011,0-0.023,0c-0.018,0-0.038,0-0.056,0.001c-0.006,0-0.026,0-0.032,0
		c-0.016,0-0.034,0-0.05,0.001c-0.012,0-0.019,0-0.03,0c-0.016,0-0.036,0-0.052,0.001c-0.006,0-0.022,0-0.028,0
		c-0.023,0-0.05,0.001-0.073,0.001c-0.006,0,0,0-0.005,0c-0.027,0-0.055,0.001-0.082,0.001c-0.006,0-0.01,0-0.016,0
		c-0.021,0-0.043,0-0.065,0.001c-0.006,0-0.017,0-0.022,0c-0.018,0-0.04,0.001-0.058,0.001c-0.012,0-0.014,0-0.026,0
		c-0.021,0-0.04,0-0.062,0.001c-0.006,0-0.012,0-0.018,0c-0.027,0-0.052,0.001-0.079,0.001h-0.003
		c-0.027,0.001-0.055,0.001-0.082,0.002c-0.006,0-0.011,0-0.017,0c-0.022,0-0.042,0.001-0.064,0.001c-0.006,0-0.017,0-0.023,0
		c-0.018,0-0.04,0-0.058,0.001c-0.012,0-0.014,0-0.026,0c-0.018,0-0.036,0.001-0.054,0.001c-0.012,0-0.016,0-0.027,0
		c-0.025,0-0.049,0.001-0.074,0.002h-0.004c-0.027,0-0.055,0.001-0.082,0.002l-0.016,0c-0.021,0-0.043,0.001-0.064,0.001
		c-0.006,0-0.018,0-0.024,0c-0.018,0-0.039,0.001-0.056,0.001c-0.006,0-0.021,0-0.027,0c-0.021,0-0.04,0.001-0.062,0.001
		c-0.006,0-0.011,0-0.017,0c-0.053,0.001-0.108,0.003-0.162,0.004c-0.012,0-0.01,0-0.022,0c-0.02,0-0.038,0.001-0.057,0.001
		c-0.012,0-0.017,0-0.029,0.001c-0.018,0-0.035,0.001-0.053,0.001c-0.006,0-0.022,0-0.028,0c-0.018,0-0.036,0.001-0.054,0.001
		c-0.012,0-0.014,0-0.026,0.001c-0.054,0.001-0.105,0.003-0.159,0.004c-0.006,0-0.019,0-0.025,0c-0.02,0-0.036,0.001-0.055,0.001
		c-0.012,0-0.016,0-0.027,0.001c-0.018,0-0.037,0.001-0.055,0.001c-0.006,0-0.02,0.001-0.026,0.001c-0.02,0-0.04,0.001-0.059,0.002
		c-0.012,0-0.008,0-0.021,0c-0.025,0-0.051,0.001-0.076,0.002c-0.006,0-0.016,0-0.022,0c-0.021,0-0.042,0.001-0.063,0.002
		c-0.006,0-0.017,0-0.022,0c-0.02,0.001-0.038,0.001-0.058,0.002c-0.012,0-0.013,0-0.025,0.001c-0.02,0-0.039,0.001-0.058,0.001
		c-0.006,0-0.018,0.001-0.023,0.001c-0.02,0-0.04,0.001-0.059,0.002c-0.012,0-0.01,0-0.022,0c-0.027,0.001-0.053,0.002-0.08,0.003
		c-0.006,0-0.003,0-0.009,0c-0.025,0.001-0.047,0.001-0.072,0.002c-0.006,0-0.015,0-0.021,0.001c-0.02,0-0.04,0.001-0.06,0.002
		c-0.012,0-0.013,0-0.024,0c-0.02,0.001-0.037,0.001-0.056,0.002c-0.006,0-0.021,0.001-0.027,0.001
		c-0.021,0.001-0.044,0.001-0.065,0.002c-0.006,0-0.006,0-0.012,0c-0.029,0.001-0.053,0.001-0.082,0.002c-0.006,0-0.008,0-0.014,0
		c-0.023,0.001-0.044,0.002-0.067,0.002c-0.006,0-0.017,0.001-0.022,0.001c-0.018,0-0.038,0.001-0.056,0.002
		c-0.012,0-0.016,0-0.028,0.001c-0.018,0.001-0.04,0.001-0.058,0.002c-0.006,0-0.016,0-0.021,0
		c-0.025,0.001-0.049,0.002-0.074,0.003c-0.006,0,0,0-0.005,0c-0.055,0.002-0.108,0.004-0.164,0.006c-0.006,0-0.015,0-0.021,0
		c-0.02,0.001-0.041,0.002-0.061,0.002c-0.012,0-0.009,0-0.021,0.001c-0.021,0-0.042,0.001-0.063,0.002c-0.006,0-0.012,0-0.018,0
		c-0.025,0.001-0.051,0.002-0.076,0.003c-0.006,0,0.002,0-0.004,0c-0.027,0.001-0.055,0.002-0.082,0.003
		c-0.006,0-0.009,0-0.015,0.001c-0.023,0.001-0.044,0.001-0.067,0.002c-0.006,0-0.013,0-0.019,0.001
		c-0.021,0.001-0.04,0.001-0.062,0.002c-0.012,0-0.01,0-0.022,0.001c-0.021,0-0.041,0.001-0.063,0.002c-0.006,0-0.013,0-0.019,0.001
		c-0.023,0.001-0.046,0.002-0.069,0.003c-0.006,0-0.005,0-0.011,0c-0.029,0.001-0.055,0.002-0.083,0.003c-0.006,0,0.002,0-0.003,0
		c-0.025,0.001-0.051,0.002-0.076,0.003c-0.006,0-0.014,0-0.02,0c-0.021,0.001-0.041,0.002-0.062,0.003
		c-0.006,0-0.015,0-0.021,0.001c-0.021,0.001-0.042,0.001-0.063,0.002c-0.006,0-0.013,0-0.019,0.001
		c-0.054,0.002-0.109,0.005-0.163,0.007c-0.006,0-0.007,0-0.013,0c-0.023,0.001-0.044,0.002-0.068,0.003
		c-0.006,0-0.014,0-0.02,0.001c-0.021,0.001-0.039,0.002-0.06,0.003c-0.012,0-0.012,0-0.024,0.001
		c-0.021,0.001-0.041,0.002-0.062,0.003c-0.006,0-0.012,0-0.018,0c-0.055,0.003-0.109,0.005-0.165,0.008l-0.005,0
		c-0.025,0.001-0.05,0.002-0.075,0.003c-0.006,0-0.011,0-0.017,0c-0.021,0.001-0.045,0.002-0.066,0.003
		c-0.006,0-0.009,0-0.015,0.001c-0.023,0.001-0.046,0.002-0.07,0.003l-0.013,0.001c-0.055,0.002-0.11,0.005-0.165,0.008l-0.009,0
		c-0.025,0.001-0.049,0.002-0.074,0.004c-0.006,0-0.006,0-0.012,0c-0.025,0.001-0.047,0.002-0.072,0.003c-0.006,0-0.004,0-0.01,0
		c-0.082,0.004-0.167,0.009-0.249,0.013l-0.011,0c-0.023,0.001-0.046,0.002-0.069,0.003c-0.006,0-0.014,0.001-0.02,0.001
		c-0.021,0.001-0.041,0.002-0.062,0.003c-0.006,0-0.014,0-0.02,0.001c-0.021,0.001-0.042,0.002-0.064,0.003
		c-0.006,0-0.012,0-0.018,0.001c-0.054,0.003-0.109,0.006-0.162,0.009l-0.015,0c-0.021,0.001-0.045,0.003-0.066,0.004
		c-0.006,0-0.013,0-0.019,0.001c-0.021,0.001-0.042,0.002-0.063,0.003c-0.006,0-0.012,0-0.018,0.001
		c-0.083,0.005-0.165,0.009-0.248,0.014h-0.005c-0.025,0.001-0.05,0.003-0.075,0.004c-0.006,0-0.011,0-0.017,0.001
		c-0.021,0.001-0.045,0.002-0.066,0.004c-0.006,0-0.009,0-0.015,0c-0.025,0.001-0.047,0.003-0.072,0.004l-0.009,0
		c-0.055,0.003-0.107,0.006-0.163,0.01c-0.006,0-0.013,0-0.019,0.001c-0.02,0.001-0.043,0.002-0.063,0.004
		c-0.006,0-0.014,0-0.02,0.001c-0.021,0.001-0.042,0.002-0.064,0.004c-0.006,0-0.011,0-0.017,0.001
		c-0.025,0.001-0.05,0.003-0.075,0.004c-0.006,0,0.001,0-0.005,0c-0.028,0.001-0.055,0.003-0.083,0.005c-0.006,0-0.001,0-0.007,0
		c-0.025,0.001-0.05,0.003-0.075,0.004c-0.006,0-0.007,0-0.014,0.001c-0.023,0.001-0.045,0.003-0.068,0.004
		c-0.006,0-0.011,0-0.017,0.001c-0.023,0.001-0.046,0.003-0.069,0.004c-0.006,0-0.005,0-0.011,0
		c-0.082,0.005-0.166,0.01-0.248,0.016c-0.006,0-0.007,0-0.013,0.001c-0.021,0.001-0.046,0.003-0.067,0.004
		c-0.012,0.001-0.007,0-0.019,0.001c-0.021,0.001-0.041,0.002-0.062,0.004c-0.006,0-0.013,0.001-0.019,0.001
		c-0.082,0.005-0.164,0.011-0.246,0.016c-0.006,0-0.004,0-0.01,0c-0.023,0.001-0.046,0.003-0.069,0.004
		c-0.006,0-0.013,0.001-0.019,0.001c-0.021,0.001-0.045,0.003-0.067,0.004c-0.006,0-0.006,0-0.012,0.001
		c-0.081,0.005-0.164,0.011-0.246,0.017c-0.006,0-0.009,0-0.015,0.001c-0.023,0.001-0.048,0.003-0.071,0.005l-0.009,0
		c-0.026,0.002-0.052,0.004-0.078,0.006h-0.003c-0.085,0.006-0.167,0.012-0.251,0.018c-0.006,0,0,0-0.005,0
		c-0.025,0.002-0.052,0.004-0.077,0.005l-0.009,0.001c-0.026,0.002-0.052,0.003-0.078,0.005l-0.003,0
		c-0.083,0.006-0.167,0.012-0.25,0.018c-0.006,0-0.003,0-0.009,0c-0.025,0.002-0.049,0.004-0.074,0.005c-0.006,0-0.004,0-0.01,0.001
		c-0.138,0.01-0.278,0.021-0.416,0.031c-0.006,0-0.001,0-0.007,0c-0.109,0.008-0.224,0.017-0.333,0.026c-0.006,0-0.001,0-0.007,0
		c-0.026,0.002-0.053,0.004-0.079,0.006l-0.003,0c-0.084,0.007-0.167,0.013-0.251,0.02l-0.004,0
		c-0.027,0.002-0.053,0.004-0.079,0.006h-0.005c-0.025,0.002-0.054,0.004-0.079,0.006c-0.006,0,0,0-0.005,0
		c-0.113,0.009-0.221,0.018-0.334,0.028h-0.004c-0.141,0.012-0.279,0.023-0.42,0.036h0c-0.028,0.002-0.054,0.004-0.082,0.007
		c-0.006,0,0.002,0-0.004,0c-0.113,0.01-0.222,0.019-0.334,0.029l-0.004,0c-0.282,0.025-0.561,0.05-0.842,0.076h-0.001
		c-0.281,0.026-0.562,0.053-0.842,0.08h0c-21.095,2.054-41.106,7.8-59.382,16.585l-0.003,0.001
		c-0.022,0.011-0.046,0.022-0.069,0.033l-0.003,0.002c-0.073,0.035-0.143,0.069-0.216,0.104l-0.005,0.002
		c-0.021,0.01-0.042,0.02-0.063,0.03l-0.013,0.006c-0.021,0.01-0.041,0.02-0.063,0.03l-0.006,0.003
		c-0.071,0.035-0.141,0.068-0.212,0.103c-0.005,0.002-0.007,0.003-0.012,0.006c-0.018,0.009-0.04,0.019-0.058,0.028l-0.014,0.007
		c-0.02,0.009-0.038,0.018-0.057,0.028c-0.005,0.002-0.009,0.004-0.014,0.006c-0.045,0.022-0.092,0.045-0.138,0.067
		c-0.005,0.002-0.012,0.006-0.017,0.008c-0.017,0.008-0.035,0.017-0.052,0.025c-0.005,0.002-0.014,0.007-0.019,0.009
		c-0.017,0.008-0.035,0.017-0.052,0.025c-0.005,0.003-0.012,0.006-0.017,0.008c-0.018,0.009-0.039,0.019-0.057,0.028
		c-0.005,0.002-0.008,0.004-0.013,0.006c-0.02,0.01-0.038,0.019-0.058,0.028c-0.005,0.002-0.008,0.004-0.013,0.006
		c-0.022,0.011-0.043,0.021-0.066,0.032c-0.01,0.005-0.01,0.005-0.021,0.01c-0.015,0.007-0.032,0.016-0.047,0.023
		c-0.01,0.005-0.017,0.008-0.026,0.013c-0.014,0.007-0.026,0.013-0.04,0.02c-0.01,0.005-0.019,0.009-0.029,0.014
		c-0.012,0.006-0.024,0.012-0.036,0.018c-0.015,0.007-0.018,0.009-0.033,0.016c-0.018,0.009-0.034,0.017-0.052,0.025
		c-0.005,0.003-0.007,0.003-0.012,0.006c-0.021,0.011-0.043,0.021-0.064,0.032c-0.01,0.005-0.022,0.011-0.032,0.016
		c-0.012,0.006-0.023,0.011-0.035,0.018c-0.01,0.005-0.023,0.011-0.034,0.017c-0.009,0.004-0.022,0.011-0.031,0.015
		c-0.01,0.005-0.026,0.013-0.036,0.018c-0.011,0.005-0.021,0.011-0.032,0.016c-0.015,0.007-0.021,0.01-0.036,0.018
		c-0.009,0.004-0.016,0.007-0.024,0.012c-0.03,0.015-0.049,0.024-0.079,0.039c-0.007,0.003-0.015,0.007-0.022,0.011
		c-0.015,0.008-0.023,0.012-0.038,0.019c-0.009,0.004-0.019,0.009-0.028,0.014c-0.015,0.007-0.027,0.014-0.042,0.021
		c-0.006,0.003-0.015,0.007-0.021,0.01c-0.015,0.008-0.028,0.014-0.043,0.021c-0.007,0.004-0.014,0.007-0.022,0.011
		c-0.015,0.008-0.03,0.015-0.045,0.023l-0.001,0c-0.055,0.027-0.116,0.058-0.171,0.085c-0.004,0.002-0.008,0.004-0.013,0.006
		c-0.015,0.008-0.033,0.017-0.048,0.024c-0.006,0.003-0.01,0.005-0.016,0.008c-0.015,0.007-0.034,0.017-0.049,0.024
		c-0.004,0.002-0.007,0.003-0.012,0.006c-0.075,0.038-0.153,0.077-0.229,0.115c-0.001,0-0.003,0.001-0.005,0.002
		c-0.02,0.01-0.036,0.018-0.056,0.028c-0.001,0-0.003,0.001-0.005,0.002c-0.02,0.01-0.037,0.019-0.057,0.029h0
		c-0.08,0.041-0.16,0.081-0.239,0.121h-0.001c-0.615,0.311-1.229,0.626-1.84,0.944c-6.113,3.19-8.489,10.73-5.306,16.85
		c2.227,4.281,6.586,6.734,11.1,6.734c1.943,0,3.915-0.455,5.758-1.413C130.065,31.255,153.704,25.5,178.5,25.5l0,0
		c0.979,0,1.954,0.009,2.929,0.027c0.08,0.001,0.159,0.002,0.239,0.002c6.794,0,12.364-5.443,12.493-12.266
		c0.129-6.902-5.361-12.603-12.264-12.732c-0.812-0.015-1.624-0.025-2.438-0.029h-0.004c-0.034,0-0.069,0-0.104,0h-0.003
		c-0.032,0-0.064,0-0.097,0c-0.006,0-0.007,0-0.013,0c-0.033,0-0.066,0-0.1,0c-0.006,0-0.001,0-0.007,0c-0.03,0-0.061,0-0.091,0
		c-0.006,0-0.013,0-0.02,0c-0.031,0-0.063,0-0.095,0c-0.006,0-0.003,0-0.009,0c-0.028,0-0.057,0-0.085,0c-0.012,0-0.014,0-0.026,0
		c-0.03,0-0.06,0-0.09,0c-0.006,0-0.009,0-0.016,0c-0.027,0-0.054,0-0.082,0c-0.012,0-0.014,0-0.026,0
		C178.563,0.5,178.531,0.5,178.5,0.5L178.5,0.5L178.5,0.5z"/>
</g>
</svg>
