<?xml version="1.0" encoding="iso-8859-1"?>
<!-- Generator: Adobe Illustrator 16.0.0, SVG Export Plug-In . SVG Version: 6.00 Build 0)  -->
<!DOCTYPE svg PUBLIC "-//W3C//DTD SVG 1.1//EN" "http://www.w3.org/Graphics/SVG/1.1/DTD/svg11.dtd">
<svg version="1.1" id="&#x56FE;&#x5C42;_1" xmlns="http://www.w3.org/2000/svg" xmlns:xlink="http://www.w3.org/1999/xlink" x="0px"
	 y="0px" width="1300px" height="1300px" viewBox="0 0 1300 1300" style="enable-background:new 0 0 1300 1300;"
	 xml:space="preserve">
<g>
	<path style="fill:#F6EDCF;" d="M650.001,530c-0.028,0-0.056,0-0.083,0c-0.004,0-0.004,0-0.009,0c-0.026,0-0.052,0-0.078,0
		c-0.004,0-0.009,0-0.013,0c-0.026,0-0.051,0-0.077,0c-0.005,0-0.009,0-0.013,0c-0.026,0-0.053,0-0.078,0c-0.004,0-0.008,0-0.012,0
		c-0.026,0-0.053,0-0.08,0c-0.004,0-0.003,0-0.007,0c-0.026,0-0.055,0-0.081,0h-0.003c-0.027,0-0.054,0-0.081,0
		c-0.004,0-0.008,0-0.012,0c-0.025,0-0.05,0-0.076,0c-0.004,0-0.01,0-0.014,0c-0.026,0-0.053,0-0.078,0c-0.004,0-0.007,0-0.011,0
		c-0.026,0-0.052,0-0.079,0c-0.004,0-0.006,0-0.01,0c-0.028,0-0.055,0-0.082,0c-0.004,0,0,0-0.004,0c-0.027,0-0.056,0-0.084,0.001
		h-0.002c-0.028,0-0.054,0-0.082,0h-0.01c-0.025,0-0.052,0-0.078,0.001c-0.004,0-0.008,0-0.013,0c-0.026,0-0.052,0-0.077,0.001
		c-0.004,0-0.008,0-0.012,0c-0.026,0-0.051,0-0.077,0.001c-0.004,0-0.011,0-0.015,0c-0.025,0-0.052,0-0.078,0.001
		c-0.004,0-0.002,0-0.006,0c-0.027,0-0.053,0-0.08,0.001c-0.004,0-0.002,0-0.006,0c-0.026,0-0.054,0.001-0.08,0.001h-0.01
		c-0.025,0-0.052,0-0.078,0.001c-0.004,0-0.01,0-0.014,0c-0.025,0-0.051,0.001-0.075,0.001c-0.004,0-0.011,0-0.015,0
		c-0.025,0-0.051,0.001-0.076,0.001c-0.004,0-0.009,0-0.013,0c-0.026,0-0.053,0.001-0.079,0.001c-0.004,0-0.002,0-0.006,0
		c-0.026,0-0.053,0.001-0.079,0.001c-0.004,0-0.003,0-0.007,0c-0.026,0-0.053,0.001-0.08,0.001c-0.004,0-0.006,0-0.01,0
		c-0.026,0-0.053,0.001-0.078,0.001c-0.004,0-0.008,0-0.013,0c-0.025,0-0.05,0.001-0.076,0.001c-0.004,0-0.011,0-0.015,0
		c-0.024,0-0.051,0.001-0.075,0.001c-0.004,0-0.011,0-0.015,0c-0.025,0-0.051,0.001-0.076,0.001c-0.005,0-0.004,0-0.008,0
		c-0.026,0-0.053,0.001-0.078,0.001c-0.004,0-0.004,0-0.008,0c-0.025,0-0.053,0.001-0.078,0.002c-0.004,0-0.008,0-0.012,0
		c-0.025,0-0.051,0.001-0.076,0.002c-0.004,0-0.012,0-0.016,0c-0.025,0-0.049,0.001-0.074,0.001c-0.004,0-0.012,0-0.016,0
		c-0.025,0-0.05,0.001-0.075,0.002c-0.005,0-0.007,0-0.011,0c-0.027,0.001-0.055,0.001-0.082,0.002l0,0
		c-0.028,0.001-0.056,0.001-0.084,0.002c-0.004,0-0.002,0-0.006,0c-0.026,0.001-0.054,0.001-0.08,0.002c-0.004,0-0.006,0-0.01,0
		c-0.027,0.001-0.052,0.001-0.078,0.002c-0.004,0-0.009,0-0.013,0c-0.026,0.001-0.052,0.001-0.077,0.002c-0.004,0-0.008,0-0.012,0
		c-0.025,0.001-0.052,0.001-0.077,0.002c-0.005,0-0.009,0-0.013,0c-0.025,0-0.053,0.001-0.078,0.002c-0.004,0-0.002,0-0.006,0
		c-0.026,0-0.054,0.001-0.079,0.002c-0.004,0-0.003,0-0.007,0c-0.027,0.001-0.053,0.001-0.08,0.002c-0.004,0-0.007,0-0.011,0
		c-0.026,0-0.052,0.001-0.077,0.002c-0.004,0-0.009,0-0.013,0c-0.026,0.001-0.052,0.002-0.077,0.002c-0.004,0-0.008,0-0.012,0
		c-0.026,0.001-0.053,0.002-0.078,0.002l-0.01,0c-0.027,0.001-0.054,0.002-0.081,0.003h-0.003c-0.027,0.001-0.053,0.002-0.08,0.003
		c-0.004,0-0.004,0-0.008,0c-0.026,0.001-0.053,0.002-0.078,0.003c-0.004,0-0.009,0-0.013,0c-0.024,0.001-0.052,0.002-0.076,0.002
		c-0.008,0-0.006,0-0.014,0c-0.026,0.001-0.051,0.002-0.076,0.003c-0.004,0-0.009,0-0.013,0c-0.025,0.001-0.052,0.002-0.078,0.003
		c-0.004,0-0.005,0-0.009,0c-0.027,0.001-0.054,0.002-0.081,0.003h-0.002c-0.026,0.001-0.053,0.002-0.08,0.003
		c-0.004,0-0.006,0-0.01,0c-0.025,0.001-0.051,0.002-0.077,0.003c-0.004,0-0.01,0-0.014,0c-0.024,0.001-0.05,0.002-0.075,0.003
		c-0.008,0-0.007,0-0.015,0c-0.024,0.001-0.051,0.002-0.075,0.003c-0.004,0-0.008,0-0.012,0c-0.025,0.001-0.053,0.002-0.078,0.003
		c-0.004,0-0.005,0-0.009,0c-0.054,0.002-0.108,0.004-0.163,0.007c-0.004,0-0.007,0-0.011,0c-0.025,0.001-0.052,0.002-0.077,0.003
		c-0.004,0-0.008,0-0.012,0c-0.025,0.001-0.052,0.002-0.076,0.003c-0.008,0-0.007,0-0.015,0c-0.024,0.001-0.05,0.002-0.075,0.003
		c-0.004,0-0.01,0-0.014,0c-0.025,0.001-0.051,0.002-0.076,0.004c-0.004,0-0.007,0-0.011,0c-0.026,0.001-0.053,0.002-0.079,0.003
		h-0.002c-0.027,0.001-0.053,0.003-0.08,0.004c-0.004,0-0.006,0-0.01,0c-0.027,0.001-0.052,0.002-0.078,0.004
		c-0.004,0-0.008,0-0.012,0c-0.025,0.001-0.051,0.002-0.077,0.004c-0.004,0-0.009,0-0.013,0c-0.026,0.001-0.051,0.002-0.078,0.004
		c-0.004,0-0.004,0-0.008,0c-0.027,0.001-0.055,0.003-0.082,0.004c-0.004,0,0,0-0.004,0c-0.027,0.001-0.056,0.002-0.084,0.004
		h-0.001c-0.026,0.001-0.054,0.002-0.08,0.004l-0.011,0c-0.025,0.001-0.051,0.003-0.076,0.004c-0.004,0-0.01,0-0.014,0
		c-0.025,0.001-0.051,0.002-0.076,0.004c-0.004,0-0.009,0-0.013,0.001c-0.025,0.001-0.051,0.002-0.076,0.004
		c-0.004,0-0.008,0-0.012,0c-0.026,0.001-0.052,0.003-0.078,0.004c-0.004,0-0.005,0-0.009,0c-0.026,0.001-0.051,0.003-0.078,0.004
		c-0.004,0,0,0-0.004,0c-0.027,0.001-0.053,0.003-0.079,0.004c-0.004,0-0.008,0-0.013,0c-0.023,0.001-0.051,0.003-0.076,0.004
		c-0.004,0-0.008,0-0.013,0c-0.024,0.001-0.05,0.003-0.073,0.004c-0.004,0-0.014,0.001-0.018,0.001
		c-0.024,0.001-0.049,0.003-0.073,0.004c-0.005,0-0.009,0-0.013,0.001c-0.025,0.001-0.053,0.003-0.078,0.004
		c-0.004,0-0.002,0-0.006,0c-0.027,0.001-0.055,0.003-0.081,0.005h-0.003c-0.026,0.001-0.053,0.003-0.079,0.005
		c-0.004,0-0.008,0-0.013,0c-0.023,0.001-0.051,0.003-0.074,0.005c-0.005,0-0.01,0-0.015,0c-0.025,0.002-0.05,0.003-0.075,0.005
		c-0.004,0-0.01,0-0.014,0.001c-0.025,0.001-0.051,0.003-0.076,0.005l-0.009,0c-0.026,0.001-0.054,0.003-0.081,0.005
		c-0.004,0-0.002,0-0.006,0c-0.025,0.001-0.052,0.003-0.077,0.005c-0.004,0-0.004,0-0.008,0c-0.025,0.001-0.052,0.003-0.078,0.005
		c-0.004,0-0.008,0-0.012,0c-0.025,0.001-0.05,0.003-0.076,0.005c-0.004,0-0.009,0-0.013,0.001c-0.025,0.001-0.05,0.003-0.075,0.005
		c-0.005,0-0.01,0.001-0.014,0.001c-0.025,0.002-0.05,0.003-0.075,0.005c-0.004,0-0.008,0-0.012,0
		c-0.026,0.002-0.053,0.003-0.079,0.005l-0.004,0c-0.026,0.001-0.052,0.003-0.079,0.005c-0.004,0-0.004,0-0.008,0
		c-0.025,0.001-0.051,0.003-0.076,0.005c-0.004,0-0.01,0-0.014,0.001c-0.025,0.001-0.05,0.003-0.074,0.005
		c-0.004,0-0.012,0.001-0.016,0.001c-0.023,0.002-0.049,0.004-0.073,0.005c-0.005,0-0.011,0.001-0.015,0.001
		c-0.025,0.002-0.05,0.003-0.075,0.005l-0.011,0.001c-0.025,0.002-0.054,0.004-0.079,0.006c-0.004,0-0.001,0-0.005,0
		c-0.027,0.002-0.054,0.004-0.08,0.006c-0.004,0-0.002,0-0.006,0c-0.025,0.002-0.053,0.004-0.078,0.006c-0.004,0-0.007,0-0.012,0
		c-0.025,0.002-0.051,0.004-0.076,0.006c-0.004,0-0.008,0-0.012,0.001c-0.025,0.002-0.051,0.004-0.076,0.006
		c-0.004,0-0.009,0-0.014,0.001c-0.025,0.002-0.052,0.004-0.077,0.006l-0.006,0c-0.028,0.002-0.054,0.004-0.083,0.006h-0.002
		c-0.026,0.002-0.054,0.004-0.08,0.006c-0.004,0-0.004,0-0.008,0c-0.025,0.002-0.051,0.004-0.076,0.006
		c-0.004,0-0.01,0.001-0.014,0.001c-0.025,0.002-0.05,0.004-0.075,0.006c-0.004,0-0.009,0.001-0.013,0.001
		c-0.025,0.002-0.05,0.004-0.075,0.006c-0.004,0-0.01,0-0.014,0.001c-0.025,0.002-0.05,0.004-0.075,0.006
		c-0.004,0-0.007,0-0.012,0.001c-0.025,0.002-0.051,0.004-0.076,0.006l-0.007,0c-0.026,0.002-0.052,0.004-0.077,0.006
		c-0.004,0-0.005,0-0.009,0c-0.026,0.002-0.052,0.004-0.078,0.006c-0.004,0-0.007,0.001-0.011,0.001
		c-0.025,0.002-0.051,0.004-0.076,0.006c-0.008,0-0.005,0-0.013,0.001c-0.025,0.002-0.05,0.004-0.075,0.006
		c-0.004,0-0.008,0.001-0.013,0.001c-0.025,0.002-0.052,0.005-0.077,0.007c-0.004,0-0.004,0-0.008,0
		c-0.055,0.005-0.108,0.009-0.162,0.014c-0.004,0-0.005,0-0.009,0c-0.025,0.002-0.052,0.004-0.077,0.007
		c-0.004,0-0.009,0-0.013,0.001c-0.025,0.002-0.05,0.004-0.075,0.007c-0.004,0-0.009,0-0.014,0.001
		c-0.024,0.002-0.05,0.004-0.075,0.007c-0.004,0-0.007,0-0.011,0.001c-0.026,0.002-0.053,0.004-0.078,0.007
		c-0.004,0-0.002,0-0.006,0c-0.027,0.002-0.055,0.005-0.082,0.007h-0.002c-0.025,0.002-0.053,0.005-0.079,0.007
		c-0.004,0-0.007,0-0.011,0.001c-0.025,0.002-0.049,0.004-0.074,0.007c-0.004,0-0.012,0.001-0.016,0.001
		c-0.025,0.002-0.049,0.004-0.074,0.007c-0.004,0-0.009,0-0.013,0.001c-0.024,0.002-0.05,0.004-0.074,0.007
		c-0.004,0-0.011,0.001-0.015,0.001c-0.025,0.002-0.05,0.005-0.075,0.007c-0.004,0-0.004,0-0.008,0.001
		c-0.026,0.002-0.052,0.005-0.078,0.007l-0.005,0c-0.026,0.002-0.053,0.005-0.08,0.007l-0.008,0.001
		c-0.025,0.002-0.051,0.005-0.077,0.007c-0.004,0-0.008,0.001-0.012,0.001c-0.025,0.002-0.052,0.005-0.077,0.007
		c-0.004,0-0.006,0.001-0.01,0.001c-0.025,0.002-0.052,0.005-0.077,0.008c-0.004,0-0.007,0-0.011,0.001
		c-0.025,0.002-0.053,0.005-0.078,0.008c-0.004,0-0.002,0-0.006,0c-0.025,0.002-0.053,0.005-0.078,0.008c-0.004,0-0.002,0-0.006,0
		c-0.026,0.002-0.054,0.005-0.08,0.008l-0.008,0c-0.026,0.003-0.053,0.005-0.078,0.008c-0.004,0-0.007,0.001-0.011,0.001
		c-0.026,0.003-0.052,0.005-0.077,0.008c-0.004,0-0.006,0-0.01,0c-0.025,0.003-0.053,0.005-0.078,0.008l-0.008,0
		c-0.027,0.003-0.055,0.006-0.082,0.008l-0.002,0c-0.026,0.002-0.054,0.005-0.08,0.008c-0.004,0-0.002,0-0.006,0
		c-0.025,0.003-0.053,0.005-0.079,0.008l-0.009,0.001c-0.025,0.002-0.051,0.005-0.076,0.008c-0.004,0-0.01,0.001-0.014,0.001
		c-0.024,0.002-0.049,0.005-0.074,0.008c-0.004,0-0.009,0.001-0.013,0.001c-0.024,0.003-0.05,0.005-0.075,0.008
		c-0.004,0-0.008,0-0.012,0.001c-0.025,0.003-0.053,0.006-0.078,0.008l-0.002,0c-0.027,0.003-0.055,0.006-0.082,0.009
		c-0.004,0-0.001,0-0.005,0c-0.026,0.003-0.054,0.006-0.08,0.009l-0.008,0c-0.026,0.003-0.052,0.006-0.077,0.008
		c-0.004,0-0.008,0.001-0.012,0.001c-0.025,0.002-0.051,0.005-0.076,0.008c-0.004,0-0.007,0.001-0.011,0.001
		c-0.026,0.003-0.05,0.006-0.077,0.009l-0.01,0.001c-0.055,0.006-0.109,0.012-0.164,0.018c-0.004,0,0.001,0-0.003,0
		c-0.026,0.003-0.054,0.006-0.081,0.009c-0.004,0-0.003,0-0.007,0c-0.026,0.003-0.051,0.006-0.077,0.009
		c-0.004,0-0.008,0.001-0.012,0.001c-0.025,0.003-0.051,0.006-0.076,0.009c-0.004,0-0.006,0-0.01,0.001
		c-0.026,0.003-0.052,0.006-0.078,0.009l-0.01,0.001c-0.026,0.003-0.052,0.006-0.078,0.009l-0.004,0
		c-0.025,0.003-0.051,0.006-0.076,0.009c-0.004,0-0.007,0-0.011,0.001c-0.024,0.002-0.05,0.006-0.075,0.009
		c-0.004,0-0.008,0.001-0.012,0.001c-0.025,0.003-0.051,0.006-0.074,0.009c-0.008,0.001-0.008,0.001-0.016,0.002
		c-0.023,0.003-0.049,0.006-0.072,0.009c-0.004,0-0.01,0.001-0.014,0.001c-0.025,0.003-0.051,0.006-0.076,0.009l-0.008,0.001
		c-0.055,0.006-0.109,0.013-0.164,0.02c-0.004,0,0,0-0.004,0c-0.025,0.003-0.052,0.006-0.078,0.01c-0.004,0-0.008,0.001-0.012,0.001
		c-0.023,0.003-0.049,0.006-0.073,0.009c-0.008,0.001-0.007,0.001-0.015,0.002c-0.024,0.003-0.05,0.006-0.074,0.009
		c-0.004,0-0.008,0.001-0.012,0.001c-0.025,0.003-0.051,0.006-0.076,0.009c-0.004,0-0.004,0-0.008,0.001
		c-0.027,0.003-0.053,0.007-0.08,0.01h-0.002c-0.027,0.003-0.051,0.006-0.078,0.01c-0.004,0-0.006,0.001-0.01,0.001
		c-0.026,0.003-0.051,0.006-0.077,0.009c-0.004,0-0.007,0.001-0.011,0.001c-0.024,0.003-0.05,0.006-0.074,0.009
		c-0.008,0.001-0.006,0.001-0.014,0.002c-0.025,0.003-0.05,0.006-0.076,0.01c-0.004,0-0.004,0-0.008,0.001
		c-0.026,0.003-0.052,0.006-0.078,0.01c-0.004,0-0.006,0.001-0.01,0.001c-0.053,0.007-0.105,0.013-0.158,0.02l-0.01,0.001
		c-0.025,0.003-0.051,0.006-0.076,0.01c-0.004,0-0.007,0.001-0.011,0.001c-0.024,0.003-0.05,0.007-0.074,0.01
		c-0.008,0.001-0.007,0.001-0.015,0.002c-0.023,0.003-0.05,0.006-0.074,0.01c-0.004,0-0.006,0.001-0.01,0.001
		c-0.026,0.003-0.051,0.006-0.077,0.01c-0.004,0-0.005,0.001-0.009,0.001c-0.026,0.003-0.051,0.007-0.077,0.01l-0.004,0
		c-0.025,0.003-0.052,0.007-0.077,0.01c-0.004,0-0.008,0.001-0.012,0.001c-0.024,0.003-0.049,0.006-0.073,0.01
		c-0.004,0-0.011,0.001-0.015,0.002c-0.023,0.003-0.048,0.007-0.072,0.01c-0.004,0-0.011,0.001-0.015,0.002
		c-0.024,0.003-0.048,0.007-0.072,0.01c-0.004,0.001-0.011,0.001-0.015,0.002c-0.025,0.003-0.049,0.007-0.074,0.01
		c-0.004,0-0.005,0-0.009,0.001c-0.026,0.003-0.05,0.007-0.075,0.01c-0.004,0-0.002,0-0.006,0c-0.025,0.004-0.051,0.007-0.076,0.011
		c-0.004,0-0.008,0.001-0.012,0.001c-0.024,0.003-0.049,0.007-0.072,0.01c-0.004,0-0.012,0.001-0.016,0.002
		c-0.023,0.003-0.049,0.007-0.071,0.01c-0.004,0.001-0.013,0.002-0.017,0.002c-0.023,0.003-0.049,0.007-0.072,0.01
		c-0.004,0-0.008,0.001-0.012,0.001c-0.025,0.004-0.051,0.007-0.076,0.011c-0.004,0-0.006,0.001-0.01,0.001
		c-0.023,0.003-0.048,0.007-0.072,0.01c-0.004,0-0.004,0-0.008,0.001c-0.025,0.004-0.051,0.007-0.075,0.011
		c-0.004,0-0.009,0.001-0.013,0.002c-0.024,0.003-0.05,0.007-0.074,0.011c-0.004,0-0.009,0.001-0.013,0.001
		c-0.024,0.004-0.048,0.007-0.073,0.011c-0.004,0-0.01,0.001-0.014,0.002c-0.025,0.003-0.049,0.007-0.074,0.011
		c-0.004,0-0.006,0.001-0.01,0.001c-0.026,0.004-0.052,0.007-0.078,0.011c-0.004,0-0.003,0-0.006,0.001
		c-0.026,0.004-0.053,0.008-0.078,0.011c-0.004,0,0,0-0.004,0c-0.025,0.004-0.051,0.008-0.077,0.012
		c-0.004,0-0.007,0.001-0.011,0.001c-0.024,0.003-0.051,0.007-0.074,0.011c-0.004,0-0.01,0.001-0.014,0.002
		c-0.023,0.004-0.048,0.007-0.072,0.011c-0.004,0-0.012,0.002-0.016,0.002c-0.025,0.004-0.048,0.007-0.072,0.011
		c-0.004,0-0.007,0.001-0.011,0.002c-0.024,0.003-0.052,0.007-0.077,0.011c-0.004,0-0.002,0-0.006,0.001
		c-0.025,0.003-0.051,0.007-0.076,0.011c-0.004,0-0.003,0-0.007,0.001c-0.024,0.004-0.05,0.008-0.075,0.012
		c-0.004,0-0.01,0.001-0.014,0.002c-0.023,0.003-0.049,0.007-0.072,0.011c-0.004,0-0.01,0.001-0.014,0.002
		c-0.025,0.003-0.049,0.007-0.074,0.011c-0.004,0-0.008,0.001-0.012,0.002c-0.024,0.003-0.051,0.007-0.075,0.011l-0.009,0.001
		c-0.026,0.004-0.052,0.008-0.078,0.012l-0.004,0c-0.027,0.004-0.053,0.008-0.078,0.012c-0.004,0-0.002,0-0.006,0
		c-0.025,0.004-0.051,0.008-0.076,0.012c-0.004,0-0.008,0.001-0.012,0.001c-0.024,0.004-0.049,0.008-0.073,0.012
		c-0.008,0.001-0.007,0.001-0.015,0.002c-0.023,0.003-0.048,0.007-0.07,0.011c-0.004,0.001-0.014,0.002-0.018,0.003
		c-0.024,0.004-0.047,0.007-0.072,0.011l-0.01,0.001c-0.026,0.004-0.051,0.008-0.077,0.012l-0.004,0.001
		c-0.026,0.004-0.051,0.008-0.076,0.012c-0.004,0.001-0.005,0.001-0.009,0.001c-0.023,0.004-0.049,0.008-0.072,0.012
		c-0.004,0-0.014,0.002-0.017,0.002c-0.023,0.004-0.048,0.008-0.071,0.012c-0.007,0.001-0.008,0.001-0.016,0.002
		c-0.022,0.003-0.047,0.007-0.07,0.011c-0.004,0-0.012,0.002-0.016,0.003c-0.023,0.003-0.049,0.008-0.072,0.012
		c-0.004,0-0.008,0.001-0.012,0.001c-0.023,0.004-0.048,0.008-0.072,0.012c-0.004,0.001-0.006,0.001-0.01,0.002
		c-0.025,0.004-0.049,0.008-0.074,0.012c-0.004,0-0.004,0-0.008,0.001c-0.024,0.004-0.049,0.008-0.074,0.012
		c-0.004,0-0.01,0.002-0.014,0.002c-0.023,0.004-0.048,0.008-0.072,0.012c-0.008,0.001-0.006,0.001-0.014,0.002
		c-0.023,0.004-0.049,0.008-0.071,0.012c-0.004,0.001-0.013,0.002-0.017,0.003c-0.023,0.004-0.047,0.008-0.071,0.012
		c-0.004,0-0.008,0.001-0.012,0.002c-0.023,0.004-0.048,0.008-0.072,0.012l-0.009,0.001c-0.024,0.004-0.048,0.008-0.072,0.012
		c-0.004,0-0.009,0.001-0.013,0.002c-0.022,0.004-0.048,0.008-0.071,0.012c-0.004,0-0.012,0.002-0.016,0.002
		c-0.023,0.004-0.047,0.008-0.07,0.012c-0.008,0.001-0.009,0.001-0.017,0.002c-0.024,0.004-0.046,0.008-0.069,0.012
		c-0.004,0-0.014,0.002-0.017,0.002c-0.023,0.004-0.048,0.008-0.071,0.012c-0.004,0.001-0.01,0.002-0.013,0.002
		c-0.024,0.004-0.046,0.008-0.07,0.012c-0.004,0-0.005,0-0.009,0.001c-0.023,0.004-0.048,0.008-0.072,0.012
		c-0.007,0.001-0.006,0.001-0.014,0.002c-0.023,0.004-0.047,0.008-0.07,0.012c-0.004,0-0.013,0.002-0.017,0.003
		c-0.022,0.004-0.046,0.008-0.069,0.012c-0.008,0.001-0.01,0.001-0.018,0.003c-0.023,0.004-0.045,0.008-0.068,0.012
		c-0.004,0.001-0.014,0.002-0.018,0.003c-0.022,0.004-0.047,0.008-0.07,0.012c-0.004,0-0.01,0.001-0.013,0.002
		c-0.023,0.004-0.046,0.008-0.069,0.012c-0.004,0.001-0.006,0.001-0.01,0.002c-0.024,0.004-0.048,0.008-0.072,0.013
		c-0.008,0.001-0.006,0.001-0.014,0.002c-0.023,0.004-0.047,0.008-0.07,0.013c-0.004,0-0.013,0.002-0.017,0.003
		c-0.022,0.004-0.048,0.008-0.07,0.013c-0.008,0.001-0.007,0.001-0.015,0.002c-0.024,0.004-0.047,0.008-0.07,0.013
		c-0.004,0-0.014,0.002-0.018,0.003c-0.023,0.004-0.047,0.008-0.07,0.013c-0.004,0-0.008,0.001-0.012,0.002
		c-0.021,0.004-0.043,0.008-0.064,0.012c-0.004,0-0.015,0.002-0.019,0.003c-0.022,0.004-0.045,0.008-0.066,0.012
		c-0.008,0.001-0.009,0.001-0.017,0.003c-0.022,0.004-0.045,0.008-0.067,0.012c-0.008,0.001-0.013,0.002-0.021,0.004
		c-0.021,0.004-0.044,0.008-0.066,0.012c-0.007,0.001-0.012,0.002-0.02,0.004c-0.021,0.004-0.044,0.008-0.066,0.012
		c-0.008,0.001-0.012,0.002-0.02,0.003c-0.021,0.004-0.046,0.009-0.068,0.013c-0.004,0-0.01,0.002-0.014,0.002
		c-0.021,0.004-0.042,0.008-0.063,0.012c-0.004,0.001-0.016,0.003-0.02,0.003c-0.021,0.004-0.043,0.008-0.064,0.012
		c-0.008,0.001-0.012,0.002-0.02,0.003c-0.021,0.004-0.043,0.008-0.063,0.012c-0.008,0.001-0.018,0.003-0.024,0.004
		c-0.021,0.004-0.043,0.008-0.063,0.012c-0.008,0.001-0.014,0.003-0.021,0.004c-0.022,0.004-0.044,0.008-0.065,0.012
		c-0.008,0.001-0.012,0.002-0.02,0.003c-0.022,0.004-0.045,0.009-0.068,0.013c-0.004,0-0.01,0.002-0.014,0.002
		c-0.02,0.004-0.042,0.008-0.063,0.012c-0.004,0.001-0.013,0.002-0.017,0.003c-0.022,0.004-0.044,0.008-0.067,0.013
		c-0.008,0.001-0.011,0.002-0.018,0.003c-0.023,0.004-0.045,0.009-0.068,0.013c-0.008,0.001-0.011,0.002-0.018,0.003
		c-0.023,0.004-0.045,0.008-0.068,0.013c-0.008,0.001-0.012,0.002-0.02,0.004c-0.021,0.004-0.043,0.008-0.065,0.013
		c-0.008,0.001-0.013,0.002-0.021,0.004c-0.021,0.004-0.043,0.008-0.064,0.013c-0.004,0-0.013,0.002-0.017,0.003
		c-0.021,0.004-0.042,0.008-0.062,0.012c-0.004,0-0.014,0.002-0.018,0.003c-0.022,0.005-0.045,0.009-0.068,0.014
		c-0.004,0-0.014,0.002-0.018,0.003c-0.021,0.004-0.044,0.008-0.066,0.013c-0.007,0.001-0.014,0.003-0.021,0.004
		c-0.021,0.004-0.043,0.008-0.064,0.013c-0.008,0.001-0.012,0.002-0.02,0.004c-0.023,0.004-0.044,0.009-0.066,0.013
		c-0.008,0.001-0.012,0.002-0.02,0.003c-0.021,0.004-0.045,0.009-0.067,0.014c-0.003,0-0.008,0.001-0.012,0.002
		c-0.021,0.004-0.042,0.009-0.063,0.013c-0.008,0.001-0.01,0.002-0.018,0.004c-0.022,0.004-0.044,0.009-0.066,0.013
		c-0.004,0.001-0.017,0.003-0.02,0.004c-0.022,0.004-0.044,0.008-0.065,0.013c-0.008,0.001-0.014,0.002-0.021,0.004
		c-0.022,0.004-0.044,0.009-0.065,0.013c-0.004,0.001-0.016,0.003-0.02,0.004c-0.021,0.004-0.045,0.009-0.066,0.013
		c-0.008,0.002-0.012,0.002-0.02,0.004c-0.021,0.004-0.041,0.008-0.063,0.012c-0.007,0.001-0.01,0.002-0.018,0.004
		c-0.021,0.004-0.043,0.009-0.063,0.013c-0.008,0.002-0.009,0.002-0.016,0.003c-0.022,0.004-0.046,0.009-0.068,0.014
		c-0.004,0.001-0.015,0.003-0.019,0.004c-0.021,0.004-0.045,0.009-0.066,0.014c-0.008,0.001-0.012,0.002-0.02,0.004
		c-0.022,0.004-0.044,0.009-0.066,0.014c-0.004,0-0.016,0.003-0.02,0.004c-0.021,0.004-0.044,0.009-0.066,0.014
		c-0.008,0.001-0.01,0.002-0.017,0.003c-0.022,0.004-0.042,0.009-0.063,0.013c-0.008,0.001-0.01,0.002-0.018,0.004
		c-0.021,0.004-0.041,0.008-0.063,0.013c-0.008,0.001-0.01,0.002-0.018,0.004c-0.021,0.004-0.045,0.009-0.066,0.014
		c-0.004,0-0.017,0.003-0.021,0.004c-0.022,0.004-0.042,0.009-0.063,0.013c-0.008,0.001-0.016,0.003-0.023,0.005
		c-0.021,0.004-0.041,0.009-0.063,0.013c-0.012,0.002-0.012,0.002-0.023,0.005c-0.021,0.004-0.04,0.008-0.061,0.013
		c-0.008,0.001-0.017,0.003-0.024,0.005c-0.019,0.004-0.037,0.008-0.056,0.012c-0.008,0.002-0.018,0.004-0.025,0.005
		c-0.018,0.004-0.037,0.008-0.055,0.012c-0.008,0.002-0.018,0.003-0.024,0.005c-0.021,0.004-0.04,0.008-0.062,0.013
		c-0.012,0.003-0.013,0.003-0.024,0.005c-0.021,0.004-0.04,0.009-0.06,0.013c-0.008,0.001-0.02,0.004-0.027,0.005
		c-0.021,0.004-0.04,0.009-0.061,0.013c-0.004,0.001-0.02,0.004-0.023,0.005c-0.02,0.004-0.041,0.009-0.063,0.013
		c-0.008,0.002-0.015,0.003-0.021,0.005c-0.019,0.004-0.036,0.008-0.055,0.012c-0.008,0.002-0.019,0.004-0.026,0.006
		c-0.019,0.004-0.036,0.008-0.054,0.012c-0.008,0.001-0.018,0.004-0.025,0.005c-0.021,0.004-0.04,0.009-0.061,0.013
		c-0.008,0.001-0.017,0.003-0.024,0.005c-0.021,0.004-0.041,0.009-0.062,0.013c-0.008,0.001-0.018,0.004-0.025,0.006
		c-0.02,0.004-0.041,0.009-0.061,0.013c-0.008,0.001-0.016,0.003-0.023,0.005c-0.02,0.004-0.037,0.008-0.057,0.013
		c-0.012,0.002-0.019,0.004-0.029,0.006c-0.018,0.004-0.035,0.008-0.051,0.011c-0.012,0.002-0.018,0.004-0.029,0.006
		c-0.019,0.004-0.036,0.008-0.055,0.012c-0.008,0.001-0.017,0.003-0.024,0.005c-0.02,0.004-0.038,0.008-0.058,0.013
		c-0.012,0.002-0.02,0.004-0.03,0.007c-0.019,0.004-0.037,0.008-0.056,0.012c-0.008,0.002-0.022,0.005-0.029,0.007
		c-0.02,0.004-0.037,0.008-0.057,0.012c-0.012,0.003-0.02,0.004-0.03,0.007c-0.017,0.004-0.033,0.007-0.05,0.011
		c-0.012,0.002-0.021,0.005-0.031,0.007c-0.016,0.003-0.033,0.007-0.049,0.011c-0.011,0.002-0.023,0.005-0.035,0.008
		c-0.016,0.003-0.031,0.007-0.047,0.011c-0.012,0.002-0.018,0.004-0.029,0.006c-0.02,0.004-0.037,0.008-0.056,0.013
		c-0.012,0.002-0.019,0.004-0.03,0.007c-0.02,0.004-0.037,0.008-0.056,0.013c-0.011,0.002-0.019,0.004-0.03,0.007
		c-0.019,0.004-0.037,0.009-0.057,0.013c-0.011,0.003-0.018,0.004-0.029,0.007c-0.014,0.003-0.027,0.006-0.041,0.01
		c-0.016,0.003-0.029,0.006-0.045,0.01c-0.014,0.003-0.027,0.006-0.041,0.01c-0.012,0.002-0.027,0.006-0.039,0.009
		c-0.016,0.004-0.03,0.007-0.046,0.011c-0.011,0.002-0.019,0.004-0.029,0.007c-0.019,0.004-0.037,0.008-0.057,0.013
		c-0.011,0.003-0.019,0.004-0.03,0.007c-0.018,0.004-0.035,0.008-0.054,0.013c-0.011,0.002-0.022,0.005-0.033,0.008
		c-0.017,0.004-0.032,0.007-0.049,0.011c-0.011,0.002-0.025,0.006-0.036,0.008c-0.014,0.003-0.025,0.006-0.039,0.009
		c-0.015,0.003-0.031,0.007-0.047,0.011c-0.012,0.003-0.023,0.006-0.036,0.009c-0.015,0.003-0.033,0.007-0.048,0.011
		c-0.012,0.002-0.024,0.005-0.035,0.008c-0.016,0.004-0.035,0.009-0.051,0.012c-0.012,0.002-0.023,0.005-0.035,0.008
		c-0.015,0.003-0.021,0.005-0.037,0.009c-0.017,0.004-0.033,0.008-0.05,0.012c-0.012,0.002-0.023,0.005-0.035,0.008
		c-0.017,0.004-0.031,0.007-0.048,0.011c-0.016,0.003-0.021,0.005-0.036,0.009c-0.013,0.003-0.026,0.006-0.04,0.009
		c-0.015,0.003-0.031,0.007-0.046,0.011c-0.013,0.003-0.024,0.006-0.036,0.009c-0.019,0.004-0.029,0.007-0.047,0.011
		c-0.014,0.003-0.025,0.006-0.038,0.009c-0.015,0.004-0.028,0.007-0.043,0.011c-0.014,0.003-0.028,0.007-0.042,0.01
		c-0.012,0.003-0.025,0.006-0.036,0.009c-0.017,0.004-0.034,0.008-0.05,0.012c-0.012,0.002-0.025,0.006-0.037,0.008
		c-0.012,0.003-0.023,0.006-0.036,0.009c-0.015,0.004-0.034,0.008-0.049,0.012c-0.011,0.002-0.021,0.005-0.032,0.008
		c-0.016,0.003-0.037,0.009-0.052,0.012c-0.011,0.003-0.022,0.006-0.034,0.008c-0.019,0.005-0.031,0.008-0.051,0.012
		c-0.011,0.003-0.021,0.006-0.033,0.008c-0.012,0.003-0.027,0.007-0.039,0.01c-0.016,0.004-0.03,0.007-0.047,0.011
		c-0.015,0.004-0.021,0.005-0.037,0.009c-0.016,0.003-0.029,0.007-0.045,0.011c-0.012,0.002-0.031,0.007-0.042,0.01
		c-0.009,0.002-0.019,0.005-0.027,0.007c-0.019,0.005-0.041,0.01-0.06,0.015c-0.008,0.002-0.017,0.004-0.023,0.006
		c-0.022,0.006-0.041,0.01-0.063,0.016c-0.009,0.002-0.017,0.004-0.025,0.006c-0.019,0.004-0.041,0.01-0.061,0.015
		c-0.008,0.002-0.017,0.004-0.025,0.006c-0.015,0.004-0.039,0.01-0.054,0.014c-0.011,0.002-0.022,0.005-0.033,0.008
		c-0.015,0.003-0.023,0.005-0.038,0.009c-0.012,0.003-0.024,0.006-0.036,0.009c-0.015,0.004-0.036,0.009-0.051,0.013
		c-0.009,0.002-0.019,0.005-0.028,0.007c-0.019,0.004-0.039,0.01-0.057,0.014c-0.01,0.002-0.018,0.004-0.026,0.006
		c-0.022,0.006-0.04,0.01-0.062,0.016c-0.008,0.001-0.016,0.003-0.023,0.005c-0.021,0.006-0.043,0.011-0.064,0.017
		c-0.008,0.001-0.014,0.003-0.021,0.005c-0.026,0.007-0.045,0.011-0.071,0.018c-0.005,0.001-0.01,0.003-0.016,0.004
		c-0.015,0.004-0.025,0.007-0.041,0.011c-0.008,0.002-0.017,0.004-0.025,0.006c-0.019,0.005-0.043,0.011-0.061,0.016
		c-0.008,0.001-0.016,0.003-0.022,0.005c-0.022,0.006-0.042,0.011-0.065,0.017c-0.006,0.002-0.012,0.003-0.02,0.005
		c-0.021,0.006-0.045,0.012-0.068,0.018c-0.006,0.001-0.012,0.003-0.019,0.005c-0.019,0.005-0.045,0.012-0.063,0.017
		c-0.008,0.002-0.016,0.004-0.023,0.006c-0.03,0.008-0.053,0.014-0.082,0.021c-0.002,0-0.002,0-0.003,0.001
		c-0.045,0.011-0.087,0.022-0.132,0.034c-0.004,0.001-0.006,0.002-0.01,0.003c-0.022,0.006-0.055,0.014-0.076,0.02
		c-0.005,0.001-0.01,0.002-0.014,0.004c-0.023,0.006-0.053,0.014-0.075,0.02c-0.004,0.001-0.008,0.002-0.012,0.003
		c-0.03,0.008-0.052,0.014-0.081,0.021c-0.002,0-0.004,0.001-0.006,0.001c-0.045,0.012-0.088,0.023-0.133,0.035
		c-0.001,0,0,0-0.001,0c-0.03,0.008-0.056,0.015-0.085,0.023c-0.005,0.001-0.008,0.001-0.012,0.002
		c-0.025,0.007-0.052,0.014-0.078,0.021c-0.002,0-0.006,0.001-0.008,0.002c-0.03,0.008-0.052,0.014-0.082,0.022
		c-0.002,0-0.004,0.001-0.006,0.001c-0.104,0.028-0.206,0.055-0.311,0.083l-0.002,0c-0.029,0.008-0.055,0.015-0.085,0.022
		c-0.001,0.001-0.005,0.001-0.007,0.002c-0.029,0.008-0.055,0.015-0.084,0.023c-0.001,0-0.002,0-0.003,0
		c-0.134,0.036-0.267,0.072-0.4,0.109h-0.001c-3.837,1.051-7.593,2.287-11.266,3.699c-3.854,1.493-5.773,5.823-4.291,9.683
		c1.146,2.982,3.988,4.812,7.004,4.812c0.894,0,1.803-0.161,2.688-0.501c11.997-4.609,24.663-6.946,37.647-6.946
		c4.143,0,7.5-3.358,7.5-7.5S654.144,530,650.001,530L650.001,530L650.001,530z M577.531,556.443c-1.701,0-3.412,0.577-4.817,1.755
		c-11.207,9.446-20.666,20.913-27.808,33.83c-1.99,3.622-0.676,8.175,2.943,10.177c1.15,0.636,2.395,0.938,3.623,0.938
		c2.641,0,5.201-1.397,6.57-3.872c6.245-11.293,14.43-21.25,24.326-29.593c3.167-2.67,3.57-7.401,0.9-10.568
		C581.786,557.35,579.666,556.443,577.531,556.443L577.531,556.443z M539.113,623.345c-3.585,0-6.756,2.581-7.383,6.234
		c-0.782,4.563-1.307,9.213-1.559,13.937l0,0c-0.008,0.161-0.017,0.322-0.024,0.483c0,0.004,0-0.003,0,0
		c-0.001,0.027-0.003,0.053-0.004,0.08v0.001c-0.003,0.053-0.005,0.106-0.008,0.16v0.001c-0.001,0.026-0.003,0.053-0.004,0.08v0.001
		c-0.003,0.053-0.005,0.106-0.007,0.159v0.003c-0.002,0.026-0.003,0.053-0.004,0.079v0.002c-0.002,0.053-0.005,0.105-0.008,0.159
		v0.003c0,0.025-0.002,0.051-0.003,0.076c0,0.004,0,0.004,0,0.008c-0.001,0.025-0.003,0.05-0.003,0.076c0,0.004,0-0.003,0,0.001
		c-0.002,0.026-0.003,0.053-0.004,0.079v0.001c-0.001,0.025-0.002,0.05-0.003,0.076l-0.001,0.009c0,0.024-0.002,0.05-0.002,0.075
		v0.004c-0.003,0.052-0.005,0.103-0.007,0.154v0.008c-0.003,0.052-0.005,0.104-0.007,0.156c0,0.004,0.001-0.002,0,0.001
		c0,0.025-0.002,0.051-0.002,0.076c0,0.004,0,0.004,0,0.008c-0.002,0.025-0.002,0.049-0.004,0.074v0.009
		c0,0.025-0.002,0.05-0.002,0.075v0c-0.001,0.025-0.002,0.05-0.003,0.075c0,0.004-0.001,0.007-0.001,0.011
		c0,0.024-0.001,0.049-0.002,0.074v0.006c-0.002,0.051-0.004,0.101-0.006,0.151c0,0.004,0,0.007,0,0.011
		c0,0.024-0.002,0.048-0.002,0.072c0,0.004,0,0.007,0,0.011c-0.002,0.05-0.004,0.1-0.006,0.149c0,0.004,0,0.006,0,0.01
		c0,0.024-0.001,0.048-0.002,0.073c0,0.004,0,0.006,0,0.01c-0.001,0.025-0.002,0.05-0.002,0.075v0.001
		c-0.001,0.025-0.002,0.05-0.002,0.075c-0.001,0.004-0.001,0.004-0.001,0.008c-0.001,0.024-0.001,0.048-0.002,0.073
		c0,0.004,0,0.008-0.001,0.012c0,0.024-0.001,0.049-0.002,0.073c0,0.004,0,0,0,0.003c0,0.024-0.001,0.048-0.002,0.072v0.01
		c0,0.024-0.001,0.049-0.002,0.073c0,0.004,0,0.005,0,0.009c0,0.025-0.002,0.051-0.002,0.076v0.001
		c-0.001,0.026-0.002,0.051-0.002,0.077v0.004c-0.001,0.024-0.002,0.049-0.002,0.073c0,0.008,0,0.006,0,0.014
		c-0.001,0.024-0.002,0.048-0.002,0.072v0.007c-0.001,0.023-0.002,0.047-0.002,0.07c0,0.004,0,0.004,0,0.008
		c0,0.023-0.001,0.048-0.002,0.071c0,0.004,0,0.01,0,0.014c0,0.023-0.001,0.046-0.002,0.069c0,0.008,0,0.007,0,0.015
		c0,0.022-0.001,0.044-0.001,0.066c-0.001,0.004-0.001,0.003-0.001,0.007c0,0.023,0,0.047-0.001,0.071c0,0.004,0,0.011,0,0.015
		c-0.001,0.023-0.001,0.047-0.001,0.07c0,0.004-0.001,0.009-0.001,0.013c-0.001,0.023-0.001,0.045-0.001,0.068
		c0,0.004,0,0.002,0,0.007c-0.001,0.024-0.001,0.048-0.002,0.072c0,0.004,0,0.009,0,0.013c0,0.024-0.001,0.047-0.001,0.071
		c0,0.004-0.001,0.009-0.001,0.013c0,0.024,0,0.048,0,0.073v0c-0.001,0.024-0.002,0.048-0.002,0.072c0,0.004,0,0.01,0,0.015
		c0,0.022-0.001,0.046-0.001,0.069c-0.001,0.004-0.001,0.012-0.001,0.016c0,0.024,0,0.047,0,0.071v0.006
		c-0.001,0.023-0.002,0.045-0.002,0.068c0,0.004,0,0.009,0,0.014c0,0.023,0,0.046-0.001,0.07c0,0.004,0,0.011,0,0.015
		c-0.001,0.024-0.001,0.048-0.001,0.072v0.002c0,0.024,0,0.048-0.001,0.072c0,0.004,0,0.007,0,0.011
		c-0.001,0.024-0.001,0.047-0.001,0.07c0,0.004,0,0.011,0,0.015c0,0.023,0,0.047-0.001,0.07c0,0.004,0,0.007,0,0.011
		c0,0.021-0.001,0.043-0.001,0.064c0,0.008,0,0.005,0,0.013c0,0.023,0,0.046,0,0.069c0,0.008,0,0.008,0,0.016
		c-0.001,0.023-0.001,0.047-0.002,0.07c0,0.004,0,0.006,0,0.01c0,0.021,0,0.044,0,0.066c0,0.004,0,0.008,0,0.012
		c0,0.023,0,0.047,0,0.07c0,0.008,0,0.007,0,0.015c-0.001,0.023-0.001,0.047-0.001,0.071c0,0.004,0,0.007,0,0.011
		c-0.001,0.022-0.001,0.045-0.001,0.067c0,0.004,0,0.006,0,0.01c0,0.022,0,0.045,0,0.068c0,0.008,0,0.011,0,0.02
		c0,0.022,0,0.045,0,0.068c0,0.004,0,0.009,0,0.013c-0.001,0.022-0.001,0.043-0.001,0.065c0,0.004,0,0.006,0,0.01
		c0,0.023,0,0.047,0,0.07C530,649.587,530,649.595,530,649.599c0,0.023,0,0.046,0,0.07c0,0.004,0,0.01,0,0.015
		c0,0.023,0,0.046,0,0.069v0.004c0,0.024,0,0.048,0,0.072c0,0.004,0,0.011,0,0.016c0,0.023,0,0.046,0,0.069c0,0.004,0,0.01,0,0.014
		c0,0.024,0,0.049,0,0.073l0,0l0,0c0,0.016,0,0.032,0,0.048c0,0.003,0,0.007,0,0.011c0,0.012,0,0.025,0,0.037
		c0,0.005,0,0.01,0,0.016c0,0.012,0,0.02,0,0.032c0,0.006,0,0.012,0,0.018c0,0.012,0,0.018,0,0.03c0,0.008,0,0.015,0,0.022
		c0,0.008,0,0.017,0,0.024c0,0.007,0,0.016,0,0.023c0,0.012,0,0.013,0,0.025c0,0.008,0,0.016,0,0.023c0,0.008,0,0.016,0,0.024
		c0,0.008,0,0.015,0,0.023s0,0.016,0,0.024c0,0.009,0,0.016,0,0.025c0,0.008,0.001,0.015,0.001,0.023c0,0.008,0,0.015,0,0.022
		s0,0.018,0,0.026c0,0.007,0,0.014,0,0.021c0,0.008,0,0.018,0,0.026c0,0.007,0,0.014,0,0.021c0.001,0.008,0.001,0.018,0.001,0.025
		s0,0.015,0,0.023c0,0.008,0,0.018,0,0.026c0,0.006,0,0.013,0,0.02c0,0.008,0,0.021,0,0.029c0,0.006,0,0.012,0,0.019
		c0,0.008,0,0.021,0,0.029c0,0.006,0,0.012,0,0.019c0,0.008,0,0.02,0,0.028c0,0.007,0,0.014,0,0.021c0,0.008,0,0.018,0.001,0.026
		c0,0.007,0,0.014,0,0.021c0,0.008,0,0.016,0,0.024s0,0.017,0,0.025c0.001,0.008,0.001,0.015,0.001,0.023c0,0.007,0,0.015,0,0.022
		c0,0.012,0,0.014,0,0.026c0,0.007,0,0.015,0,0.022c0,0.008,0,0.018,0,0.026c0,0.007,0,0.014,0,0.021c0,0.009,0,0.019,0,0.026
		c0,0.007,0.001,0.015,0.001,0.022c0,0.012,0,0.02,0,0.031c0,0.005,0,0.01,0,0.015c0.001,0.012,0.001,0.02,0.001,0.031
		c0,0.006,0,0.012,0,0.018c0,0.013,0,0.021,0,0.034c0,0.004,0,0.009,0,0.013c0,0.012,0,0.024,0,0.037c0,0.004,0,0.007,0,0.011
		c0.001,0.032,0.002,0.063,0.002,0.095c0,0.006,0,0.012,0,0.017c0,0.013,0,0.021,0,0.033c0,0.003,0,0.006,0,0.009
		c0,0.012,0,0.025,0.001,0.037c0,0.007,0,0.013,0,0.019c0,0.013,0,0.018,0.001,0.03c0,0.006,0,0.014,0,0.021
		c0,0.012,0,0.013,0,0.025c0,0.008,0,0.016,0,0.023c0,0.012,0,0.014,0,0.025c0.001,0.007,0.001,0.013,0.001,0.02
		c0,0.008,0,0.019,0,0.027c0.001,0.007,0.001,0.015,0.001,0.021c0,0.008,0,0.019,0,0.026s0,0.015,0,0.022s0,0.016,0,0.023
		c0,0.009,0.001,0.016,0.001,0.024c0,0.008,0,0.017,0.001,0.024c0,0.007,0,0.015,0,0.021c0,0.009,0,0.019,0,0.026
		c0,0.007,0,0.013,0,0.02c0,0.009,0,0.021,0.001,0.03c0,0.007,0,0.013,0,0.019c0,0.009,0.001,0.018,0.001,0.025s0,0.017,0,0.024
		s0,0.016,0,0.024c0,0.008,0,0.015,0,0.022c0.001,0.009,0.001,0.015,0.001,0.023c0,0.008,0.001,0.017,0.001,0.024s0,0.017,0,0.024
		s0,0.015,0,0.022s0,0.016,0,0.023c0.001,0.009,0.001,0.017,0.001,0.025c0.001,0.008,0.001,0.015,0.001,0.022s0,0.017,0,0.024
		s0,0.016,0,0.023s0.001,0.016,0.001,0.023c0,0.012,0,0.015,0.001,0.027c0,0.007,0,0.013,0,0.02c0,0.009,0,0.017,0,0.024
		s0,0.017,0,0.024c0.001,0.008,0.001,0.016,0.001,0.024c0.001,0.007,0.001,0.015,0.001,0.022c0,0.012,0,0.015,0,0.027
		c0,0.006,0,0.013,0,0.02c0.001,0.012,0.001,0.02,0.001,0.031c0.001,0.006,0.001,0.011,0.001,0.017c0,0.008,0,0.019,0,0.026
		c0,0.007,0,0.015,0,0.021c0.002,0.049,0.002,0.094,0.004,0.143c0,0.007,0,0.014,0,0.021s0,0.016,0,0.024
		c0.001,0.009,0.001,0.019,0.002,0.027c0,0.008,0,0.013,0,0.021c0,0.007,0,0.015,0,0.022s0,0.018,0.001,0.025
		c0,0.007,0,0.015,0.001,0.022c0,0.008,0,0.017,0,0.024c0,0.009,0,0.017,0,0.024c0,0.004,0.001,0.019,0.001,0.022
		c0.001,0.009,0.001,0.017,0.001,0.025c0,0.004,0,0.02,0,0.023c0,0.007,0,0.014,0.001,0.021c0,0.008,0.001,0.019,0.001,0.026
		c0,0.009,0,0.017,0,0.025c0,0.008,0,0.012,0,0.021c0.001,0.01,0.001,0.019,0.002,0.029c0,0.004,0,0.012,0,0.016
		c0,0.012,0,0.022,0,0.033c0.001,0.004,0.001,0.01,0.001,0.015c0.001,0.01,0.001,0.02,0.001,0.029c0,0.008,0,0.012,0,0.02
		c0,0.01,0.001,0.019,0.001,0.028c0.001,0.008,0.001,0.011,0.001,0.019c0,0.01,0,0.019,0,0.028c0,0.008,0,0.01,0.001,0.018
		c0,0.011,0.001,0.021,0.001,0.03c0,0.008,0,0.011,0,0.019c0,0.009,0,0.018,0.001,0.026c0,0.008,0.001,0.015,0.001,0.022
		c0,0.009,0,0.018,0,0.025s0,0.014,0.001,0.021c0,0.008,0.001,0.018,0.001,0.025c0,0.004,0,0.016,0,0.02
		c0,0.01,0.001,0.021,0.001,0.03c0,0.004,0.001,0.012,0.001,0.016c0,0.01,0,0.02,0,0.029c0,0.004,0.001,0.016,0.001,0.021
		c0,0.009,0.001,0.019,0.001,0.027c0,0.005,0,0.016,0,0.021c0,0.009,0.001,0.017,0.001,0.025c0.001,0.009,0.001,0.013,0.001,0.021
		c0,0.01,0,0.02,0.001,0.029c0,0.008,0,0.005,0,0.014c0.001,0.011,0.001,0.021,0.001,0.032c0,0.008,0,0.007,0,0.015
		c0.004,0.086,0.006,0.172,0.009,0.258c0,0.004,0,0.005,0.001,0.009c0,0.014,0,0.027,0,0.04l0.001,0.006
		c0,0.012,0.001,0.023,0.001,0.035c0,0.004,0,0.009,0,0.014c0.001,0.011,0.002,0.022,0.002,0.034c0,0.004,0,0.008,0,0.012
		c0,0.011,0.001,0.021,0.001,0.032c0.001,0.004,0.001,0.012,0.001,0.016c0,0.011,0,0.021,0.001,0.032c0,0.004,0,0.01,0.001,0.014
		c0,0.011,0,0.021,0,0.032c0,0.004,0.001,0.013,0.001,0.017c0.001,0.01,0.001,0.02,0.001,0.029c0,0.004,0,0.014,0.001,0.018
		c0,0.01,0.001,0.02,0.001,0.028s0,0.012,0,0.02c0.001,0.01,0.002,0.02,0.002,0.029c0,0.008,0,0.008,0,0.016
		c0,0.011,0.001,0.021,0.002,0.031c0,0.008,0,0.01,0,0.018c0,0.01,0.001,0.02,0.001,0.029c0.001,0.008,0.001,0.008,0.001,0.016
		c0,0.011,0,0.021,0.001,0.033c0,0.004,0.001,0.009,0.001,0.013c0,0.013,0,0.024,0.001,0.036c0,0.004,0,0.003,0,0.007
		c0.001,0.014,0.001,0.026,0.001,0.04c0.001,0.004,0.001,0.005,0.001,0.009c0.001,0.013,0.001,0.025,0.001,0.038
		c0.001,0.004,0,0.003,0.001,0.007c0.001,0.014,0.001,0.025,0.001,0.039c0,0.004,0,0.006,0.001,0.01
		c0,0.013,0.001,0.025,0.001,0.038v0.005c0.001,0.014,0.002,0.027,0.002,0.041v0.008c0.001,0.014,0.002,0.026,0.002,0.04v0.002
		c0.008,0.2,0.017,0.399,0.025,0.599v0.002c0.001,0.015,0.002,0.028,0.002,0.044v0.003c0.001,0.014,0.002,0.028,0.002,0.042
		c0,0.004,0,0.001,0.001,0.005c0.001,0.015,0.001,0.028,0.002,0.043c0,0.004-0.001-0.002,0,0.003
		c0.001,0.014,0.001,0.027,0.002,0.042c0,0.004,0,0.001,0,0.005c0.001,0.014,0.001,0.028,0.002,0.042l0.001,0.004
		c0,0.015,0,0.028,0.002,0.042v0.005c0,0.014,0.001,0.028,0.002,0.042v0.005c0,0.013,0.001,0.025,0.002,0.038
		c0,0.005,0,0.008,0,0.012c0.001,0.012,0.002,0.024,0.002,0.036c0,0.005,0,0.005,0,0.009c0.001,0.013,0.002,0.024,0.002,0.037
		c0,0.005,0,0.006,0.001,0.01c0.001,0.013,0.001,0.026,0.002,0.039c0,0.004,0,0,0,0.004c0.001,0.015,0.001,0.028,0.002,0.042
		l0.001,0.005c0.266,5.359,0.883,10.625,1.83,15.776v0.005c0.003,0.013,0.005,0.025,0.008,0.038c0,0.004,0,0.003,0.001,0.007
		c0.002,0.012,0.004,0.023,0.007,0.035c0,0.004,0.001,0.008,0.002,0.012c0.002,0.012,0.004,0.023,0.006,0.035
		c0.001,0.004,0.001,0.003,0.002,0.007c0.002,0.013,0.004,0.026,0.007,0.039l0.001,0.006c0.002,0.013,0.005,0.025,0.008,0.038v0.007
		c0.003,0.012,0.005,0.023,0.008,0.035c0.001,0.008,0,0.005,0.002,0.013c0.002,0.011,0.004,0.022,0.006,0.033
		c0.001,0.004,0.002,0.006,0.002,0.01c0.002,0.012,0.004,0.023,0.006,0.034c0.002,0.004,0.002,0.008,0.003,0.012
		c0.002,0.011,0.004,0.022,0.006,0.033c0.001,0.004,0.001,0.007,0.002,0.011c0.003,0.012,0.005,0.022,0.007,0.033
		c0,0.004,0.002,0.01,0.002,0.014c0.002,0.011,0.004,0.022,0.006,0.033c0.001,0.004,0.002,0.004,0.002,0.008
		c0.002,0.012,0.005,0.024,0.007,0.037c0.001,0.004,0.001,0.005,0.002,0.009c0.002,0.012,0.005,0.022,0.007,0.034
		c0,0.004,0.002,0.01,0.002,0.014c0.002,0.01,0.004,0.021,0.006,0.031c0.001,0.004,0.002,0.009,0.003,0.013
		c0.002,0.011,0.004,0.021,0.006,0.032l0.002,0.01c0.002,0.012,0.005,0.023,0.007,0.035c0,0.004,0.001,0.008,0.002,0.012
		c0.002,0.011,0.004,0.021,0.006,0.033c0.001,0.004,0.002,0.009,0.003,0.013c0.002,0.011,0.004,0.021,0.006,0.032
		c0.001,0.004,0.001,0.002,0.001,0.005c0.011,0.056,0.021,0.112,0.032,0.167c0.001,0.004,0.001,0.002,0.001,0.006
		c0.002,0.011,0.004,0.021,0.006,0.032c0.002,0.008,0.002,0.006,0.003,0.014c0.002,0.009,0.003,0.018,0.005,0.027
		c0.002,0.008,0.002,0.01,0.004,0.018c0.002,0.009,0.004,0.017,0.005,0.025c0.001,0.007,0.003,0.013,0.004,0.021
		c0.001,0.007,0.003,0.013,0.004,0.02c0.002,0.012,0.003,0.016,0.005,0.027c0.002,0.005,0.003,0.012,0.004,0.018
		c0.002,0.012,0.003,0.016,0.006,0.027c0,0.006,0.002,0.011,0.003,0.018s0.004,0.02,0.005,0.027
		c0.002,0.006,0.003,0.013,0.004,0.019c0.002,0.012,0.003,0.017,0.006,0.027c0,0.006,0.002,0.01,0.002,0.015
		c0.002,0.012,0.004,0.021,0.007,0.031c0.001,0.006,0.001,0.01,0.003,0.015c0.002,0.011,0.004,0.021,0.006,0.032
		c0.001,0.004,0.002,0.008,0.002,0.012c0.002,0.007,0.006,0.025,0.007,0.033c0.001,0.004,0.002,0.009,0.003,0.013
		c0.002,0.012,0.004,0.023,0.006,0.035c0.001,0.003,0.002,0.005,0.002,0.008c0.002,0.008,0.003,0.013,0.004,0.021
		c0.706,3.573,3.84,6.049,7.351,6.049c0.48,0,0.969-0.047,1.458-0.143c4.064-0.802,6.709-4.745,5.908-8.81
		C545.668,663.754,545,656.879,545,650c0-6.005,0.51-12.023,1.516-17.887c0.699-4.083-2.043-7.959-6.125-8.659
		C539.961,623.38,539.535,623.345,539.113,623.345L539.113,623.345z M552.846,699.271c-1.287,0-2.592,0.332-3.783,1.029
		c-3.574,2.094-4.773,6.688-2.682,10.261l0.004,0.006c0.014,0.023,0.027,0.046,0.041,0.069v0.002
		c0.043,0.073,0.087,0.147,0.13,0.221c0.002,0.003-0.001-0.001,0.001,0.002c0.016,0.025,0.029,0.049,0.043,0.073l0.002,0.001
		c0.014,0.024,0.027,0.049,0.042,0.072l0.002,0.003c0.014,0.023,0.028,0.047,0.042,0.07c0.002,0.003,0,0.002,0.002,0.005
		c0.014,0.023,0.027,0.046,0.041,0.069l0.004,0.006c0.014,0.023,0.027,0.046,0.041,0.069c0.002,0.003,0,0.001,0.002,0.004
		c0.015,0.024,0.029,0.047,0.043,0.071l0.002,0.002c0.014,0.024,0.028,0.049,0.043,0.073l0,0c0.073,0.123,0.146,0.245,0.22,0.367
		l0.003,0.004c0.014,0.023,0.027,0.047,0.041,0.069c0.002,0.004,0.002,0.002,0.004,0.006c0.014,0.022,0.027,0.046,0.041,0.069
		c0.002,0.003,0.001,0.001,0.003,0.004c0.015,0.023,0.028,0.047,0.042,0.07l0.003,0.004c0.014,0.023,0.028,0.047,0.042,0.069
		c0.002,0.004,0.001,0.002,0.003,0.005c0.015,0.023,0.028,0.047,0.042,0.07l0.002,0.003c0.09,0.147,0.178,0.293,0.268,0.439
		l0.002,0.001c0.014,0.024,0.027,0.046,0.042,0.07c0.002,0.003,0.001,0.002,0.003,0.006c0.015,0.022,0.029,0.045,0.043,0.068
		l0.002,0.005c0.015,0.022,0.028,0.045,0.043,0.067l0.004,0.007c0.014,0.022,0.027,0.046,0.041,0.068
		c0.002,0.003,0.002,0.001,0.004,0.005c0.014,0.022,0.027,0.044,0.041,0.067c0.002,0.003,0.004,0.005,0.006,0.008
		c0.014,0.022,0.027,0.045,0.041,0.067l0.002,0.004c0.015,0.023,0.029,0.047,0.044,0.07l0.001,0.001
		c0.029,0.049,0.059,0.097,0.09,0.146v0.001c0.016,0.023,0.03,0.048,0.045,0.071l0.001,0.002c0.015,0.023,0.029,0.047,0.044,0.07
		l0.002,0.004c0.015,0.022,0.029,0.047,0.044,0.069c0.002,0.004,0,0,0.002,0.004c0.014,0.021,0.028,0.046,0.042,0.068
		c0.002,0.003,0.003,0.003,0.005,0.007c0.015,0.022,0.028,0.044,0.042,0.067l0.004,0.005c0.014,0.022,0.027,0.045,0.042,0.067
		c0.002,0.004,0.001,0.003,0.003,0.006c0.016,0.023,0.029,0.046,0.043,0.068l0.003,0.004c0.015,0.023,0.029,0.047,0.044,0.069
		l0.002,0.004c0.015,0.023,0.029,0.047,0.045,0.07v0.001c0.031,0.049,0.061,0.096,0.091,0.144c0.002,0.004-0.001-0.001,0.001,0.002
		c0.015,0.022,0.029,0.046,0.043,0.068l0.004,0.006c0.014,0.022,0.028,0.044,0.042,0.066c0.002,0.003,0.003,0.005,0.005,0.008
		c0.014,0.021,0.027,0.043,0.041,0.065c0.003,0.003,0.004,0.005,0.006,0.008c0.014,0.021,0.027,0.044,0.041,0.064
		c0.002,0.003,0.004,0.006,0.006,0.009c0.014,0.021,0.027,0.044,0.041,0.064c0.002,0.004,0.003,0.005,0.005,0.009
		c0.015,0.021,0.028,0.043,0.042,0.065c0.002,0.003,0.002,0.003,0.004,0.006c0.014,0.022,0.029,0.046,0.043,0.067l0.003,0.005
		c0.015,0.023,0.03,0.046,0.044,0.069l0.001,0.001c0.046,0.072,0.093,0.144,0.138,0.215c0.002,0.003,0,0,0.002,0.003
		c0.015,0.022,0.029,0.045,0.044,0.068l0.004,0.005c0.015,0.022,0.028,0.044,0.042,0.066c0.002,0.003,0.004,0.004,0.006,0.008
		c0.014,0.021,0.027,0.043,0.041,0.064c0.002,0.003,0.004,0.005,0.006,0.009c0.014,0.021,0.027,0.042,0.041,0.063
		c0.004,0.007,0.002,0.005,0.006,0.011c0.014,0.021,0.027,0.041,0.041,0.063c0.002,0.003,0.005,0.008,0.007,0.011
		c0.013,0.021,0.026,0.041,0.04,0.062c0.002,0.003,0.006,0.008,0.008,0.011c0.014,0.021,0.026,0.042,0.04,0.063
		c0.002,0.004,0.004,0.007,0.006,0.01c0.014,0.021,0.028,0.043,0.042,0.064c0.002,0.003,0.002,0.003,0.004,0.006
		c0.016,0.022,0.029,0.045,0.045,0.067v0.001c0.016,0.023,0.029,0.046,0.045,0.069l0.002,0.004c0.016,0.022,0.029,0.045,0.045,0.067
		c0.002,0.004,0.001,0.001,0.003,0.005c0.015,0.021,0.028,0.043,0.042,0.064c0.003,0.004,0.004,0.006,0.006,0.009
		c0.015,0.022,0.027,0.042,0.043,0.064c0.002,0.003,0.003,0.005,0.006,0.009c0.014,0.021,0.027,0.042,0.041,0.063
		c0.002,0.003,0.004,0.007,0.006,0.01c0.014,0.021,0.028,0.043,0.043,0.064l0.004,0.007c0.014,0.021,0.029,0.043,0.043,0.064
		c0.002,0.003,0.004,0.006,0.006,0.009c0.014,0.022,0.027,0.042,0.042,0.064c0.002,0.003,0.003,0.004,0.005,0.007
		c0.014,0.022,0.028,0.043,0.043,0.064l0.006,0.009c0.014,0.021,0.027,0.043,0.043,0.065c0.002,0.003,0,0,0.002,0.004
		c0.016,0.022,0.029,0.045,0.045,0.067l0.002,0.004c0.016,0.021,0.03,0.044,0.045,0.066c0.002,0.004,0,0,0.002,0.004
		c0.015,0.021,0.029,0.043,0.043,0.064c0.002,0.003,0.004,0.006,0.006,0.009c0.016,0.021,0.029,0.043,0.043,0.064l0.005,0.007
		c0.015,0.021,0.028,0.043,0.042,0.063c0.002,0.003,0.005,0.007,0.008,0.01c0.014,0.021,0.027,0.041,0.041,0.063
		c0.002,0.003,0.004,0.007,0.006,0.01c0.014,0.021,0.027,0.041,0.041,0.062c0.005,0.006,0.004,0.005,0.008,0.012
		c0.014,0.02,0.027,0.04,0.041,0.061c0.002,0.003,0.005,0.007,0.008,0.01c0.014,0.021,0.027,0.042,0.041,0.063
		c0.002,0.003,0.004,0.007,0.006,0.01c0.015,0.021,0.029,0.043,0.043,0.063l0.005,0.007c0.015,0.021,0.029,0.043,0.044,0.064
		c0.002,0.004,0.002,0.004,0.004,0.007c0.031,0.045,0.062,0.091,0.092,0.136c0.002,0.003,0,0,0.002,0.004
		c0.016,0.021,0.03,0.043,0.045,0.065c0.002,0.003,0.002,0.003,0.004,0.007c0.015,0.021,0.029,0.042,0.043,0.063
		c0.003,0.004,0.005,0.007,0.008,0.01c0.014,0.021,0.027,0.042,0.041,0.062c0.002,0.003,0.005,0.008,0.008,0.011
		c0.013,0.02,0.027,0.041,0.041,0.061c0.002,0.004,0.006,0.009,0.008,0.012c0.013,0.02,0.027,0.04,0.04,0.06
		c0.005,0.006,0.005,0.007,0.009,0.013c0.014,0.02,0.027,0.039,0.04,0.059c0.002,0.003,0.007,0.011,0.01,0.014
		c0.013,0.02,0.026,0.04,0.04,0.06c0.002,0.003,0.006,0.008,0.008,0.011c0.014,0.021,0.027,0.04,0.041,0.061
		c0.002,0.004,0.005,0.007,0.007,0.01c0.015,0.021,0.028,0.042,0.043,0.063c0.002,0.004,0.003,0.004,0.005,0.007
		c0.014,0.021,0.027,0.041,0.042,0.062c0.002,0.003,0.004,0.006,0.006,0.009c0.015,0.021,0.028,0.041,0.042,0.062
		c0.002,0.003,0.004,0.005,0.006,0.008c0.014,0.021,0.028,0.041,0.043,0.062c0.004,0.007,0.002,0.004,0.006,0.011
		c0.014,0.019,0.028,0.04,0.041,0.06c0.003,0.003,0.008,0.01,0.01,0.013c0.013,0.02,0.025,0.038,0.039,0.058
		c0.002,0.003,0.008,0.012,0.01,0.015c0.014,0.019,0.027,0.038,0.041,0.058c0.004,0.006,0.004,0.007,0.009,0.013
		c0.013,0.02,0.026,0.039,0.04,0.059c0.002,0.003,0.007,0.01,0.009,0.013c0.015,0.021,0.027,0.039,0.041,0.059
		c0.002,0.003,0.007,0.01,0.009,0.013c0.014,0.021,0.027,0.039,0.041,0.059c0.004,0.006,0.004,0.007,0.008,0.013
		c0.015,0.021,0.028,0.04,0.042,0.06c0.003,0.004,0.005,0.007,0.007,0.01c0.014,0.021,0.028,0.041,0.043,0.062
		c0.002,0.003,0.004,0.006,0.006,0.009c0.014,0.02,0.027,0.04,0.041,0.059c0.002,0.003,0.005,0.007,0.007,0.01
		c0.013,0.02,0.026,0.038,0.04,0.057c0.004,0.007,0.005,0.008,0.01,0.015c0.014,0.019,0.025,0.037,0.039,0.057
		c0.005,0.006,0.006,0.009,0.011,0.015c0.013,0.019,0.026,0.037,0.04,0.057c0.002,0.003,0.008,0.011,0.01,0.014
		c0.014,0.02,0.026,0.039,0.04,0.058c0.002,0.003,0.007,0.011,0.01,0.014c0.013,0.019,0.026,0.037,0.039,0.056
		c0.004,0.006,0.008,0.011,0.012,0.018c0.013,0.018,0.026,0.036,0.039,0.055c0.004,0.006,0.007,0.01,0.011,0.016
		c0.013,0.019,0.025,0.036,0.039,0.055c0.002,0.003,0.01,0.014,0.012,0.017c0.013,0.019,0.025,0.037,0.039,0.056
		c0.004,0.006,0.006,0.008,0.01,0.015c0.014,0.019,0.026,0.037,0.04,0.056c0.004,0.006,0.007,0.01,0.011,0.016
		c0.013,0.018,0.026,0.037,0.039,0.055c0.002,0.004,0.006,0.008,0.008,0.011c0.014,0.02,0.026,0.037,0.039,0.057
		c0.003,0.003,0.007,0.009,0.01,0.012c0.014,0.02,0.027,0.04,0.041,0.06c0.002,0.003,0.005,0.006,0.007,0.009
		c0.015,0.02,0.027,0.038,0.041,0.058c0.005,0.007,0.007,0.01,0.011,0.016c0.014,0.018,0.026,0.036,0.039,0.055
		c0.002,0.003,0.01,0.013,0.012,0.016c0.012,0.018,0.025,0.036,0.038,0.054c0.005,0.006,0.009,0.013,0.014,0.02
		c0.013,0.017,0.024,0.034,0.037,0.052c0.005,0.006,0.009,0.012,0.013,0.018c0.013,0.018,0.025,0.035,0.037,0.052
		c0.005,0.007,0.011,0.015,0.016,0.021c0.012,0.018,0.023,0.034,0.036,0.052c0.005,0.006,0.009,0.012,0.013,0.018
		c0.013,0.018,0.025,0.036,0.038,0.054c0.005,0.006,0.009,0.011,0.013,0.017c0.013,0.019,0.025,0.036,0.039,0.055
		c0.002,0.003,0.008,0.011,0.01,0.014c0.013,0.018,0.025,0.035,0.038,0.053c0.005,0.006,0.007,0.011,0.012,0.017
		c0.013,0.018,0.024,0.034,0.037,0.052c0.003,0.003,0.009,0.013,0.012,0.016c0.013,0.018,0.025,0.035,0.038,0.053
		c0.004,0.006,0.007,0.01,0.012,0.016c0.013,0.019,0.025,0.035,0.038,0.054c0.005,0.006,0.009,0.012,0.013,0.018
		c0.013,0.018,0.025,0.035,0.038,0.053c0.005,0.006,0.009,0.013,0.014,0.019c0.013,0.018,0.025,0.034,0.038,0.052
		c0.004,0.007,0.008,0.012,0.012,0.018c0.014,0.018,0.027,0.036,0.039,0.054c0.005,0.006,0.009,0.011,0.014,0.017
		c0.012,0.018,0.025,0.036,0.037,0.053c0.005,0.007,0.01,0.012,0.014,0.019c0.013,0.017,0.026,0.035,0.039,0.053
		c0.004,0.006,0.007,0.01,0.012,0.017c0.013,0.018,0.026,0.036,0.039,0.055c0.005,0.006,0.007,0.008,0.012,0.014
		c0.013,0.019,0.025,0.037,0.039,0.055c0.004,0.006,0.008,0.01,0.012,0.016c0.012,0.018,0.023,0.033,0.036,0.05
		c0.005,0.006,0.01,0.013,0.015,0.02c0.012,0.016,0.023,0.031,0.035,0.048c0.006,0.009,0.008,0.011,0.014,0.02
		c0.013,0.017,0.024,0.032,0.037,0.049c0.004,0.007,0.008,0.012,0.012,0.018c0.014,0.018,0.026,0.035,0.039,0.053
		c0.004,0.006,0.009,0.012,0.014,0.018c0.013,0.019,0.025,0.035,0.039,0.053c0.004,0.007,0.008,0.011,0.012,0.018
		c0.014,0.018,0.025,0.034,0.039,0.053c0.004,0.006,0.008,0.012,0.013,0.018c0.013,0.017,0.026,0.034,0.038,0.052
		c0.005,0.006,0.01,0.013,0.015,0.02c0.013,0.017,0.024,0.033,0.037,0.05c0.007,0.009,0.008,0.011,0.015,0.02
		c0.013,0.018,0.025,0.034,0.038,0.051c0.005,0.007,0.009,0.013,0.014,0.019c0.013,0.018,0.025,0.034,0.038,0.052
		c0.004,0.006,0.009,0.012,0.014,0.018c0.012,0.018,0.024,0.033,0.037,0.051c0.002,0.003,0.01,0.014,0.012,0.017
		c0.014,0.017,0.025,0.032,0.037,0.05c0.005,0.006,0.01,0.013,0.014,0.019c0.013,0.017,0.025,0.033,0.037,0.05
		c0.005,0.006,0.008,0.01,0.013,0.016c0.013,0.018,0.026,0.035,0.039,0.053c0.005,0.006,0.007,0.01,0.012,0.016
		c0.014,0.019,0.027,0.036,0.04,0.055c0.005,0.006,0.008,0.01,0.012,0.016c0.014,0.018,0.027,0.035,0.039,0.052
		c0.005,0.006,0.01,0.013,0.015,0.019c0.013,0.017,0.025,0.034,0.038,0.051c0.004,0.006,0.01,0.014,0.015,0.021
		c0.012,0.016,0.024,0.032,0.036,0.048c0.005,0.006,0.012,0.016,0.017,0.022c0.013,0.016,0.025,0.033,0.037,0.049
		c0.005,0.006,0.01,0.013,0.015,0.019c0.013,0.018,0.025,0.033,0.037,0.051c0.005,0.006,0.011,0.014,0.016,0.02
		c0.013,0.018,0.025,0.034,0.038,0.051c0.005,0.006,0.008,0.011,0.013,0.017c0.012,0.017,0.023,0.031,0.036,0.048
		c0.005,0.006,0.011,0.015,0.016,0.021c0.013,0.017,0.023,0.032,0.036,0.048c0.004,0.006,0.008,0.011,0.013,0.018
		c0.013,0.016,0.025,0.033,0.038,0.049c0.004,0.007,0.008,0.012,0.013,0.018c0.013,0.017,0.026,0.034,0.039,0.052
		c0.005,0.006,0.009,0.011,0.013,0.017c0.013,0.017,0.025,0.034,0.038,0.05c0.007,0.01,0.009,0.013,0.017,0.021
		c0.012,0.017,0.023,0.032,0.037,0.049c0.004,0.006,0.01,0.014,0.014,0.02c0.014,0.017,0.026,0.033,0.039,0.051
		c0.005,0.006,0.01,0.013,0.015,0.019c0.013,0.017,0.024,0.033,0.038,0.05c0.004,0.006,0.01,0.014,0.016,0.02
		c0.012,0.017,0.024,0.033,0.037,0.049c0.006,0.009,0.009,0.012,0.016,0.021c0.012,0.017,0.025,0.034,0.038,0.051
		c0.005,0.006,0.009,0.011,0.013,0.017c0.014,0.018,0.025,0.033,0.039,0.05c0.004,0.006,0.01,0.014,0.015,0.02
		c0.012,0.016,0.022,0.029,0.034,0.045c0.007,0.009,0.012,0.016,0.019,0.024c0.011,0.014,0.021,0.026,0.031,0.04
		c0.007,0.009,0.016,0.021,0.022,0.029c0.01,0.014,0.021,0.027,0.031,0.04c0.004,0.006,0.013,0.017,0.018,0.022
		c0.012,0.016,0.023,0.031,0.035,0.047c0.004,0.006,0.012,0.015,0.016,0.021c0.012,0.016,0.025,0.032,0.037,0.048
		c0.007,0.009,0.01,0.012,0.017,0.021c0.012,0.016,0.024,0.032,0.036,0.048c0.005,0.006,0.014,0.017,0.018,0.022
		c0.012,0.016,0.024,0.031,0.037,0.047c0.004,0.006,0.011,0.015,0.016,0.021c0.013,0.017,0.025,0.033,0.038,0.05
		c0.005,0.006,0.011,0.013,0.015,0.019c0.013,0.017,0.025,0.033,0.038,0.049c0.007,0.009,0.009,0.012,0.017,0.021
		c0.012,0.016,0.024,0.031,0.037,0.048c0.005,0.006,0.012,0.015,0.016,0.021c0.012,0.015,0.023,0.03,0.035,0.045
		c0.008,0.009,0.01,0.013,0.018,0.021c0.012,0.016,0.023,0.03,0.035,0.045c0.004,0.006,0.012,0.016,0.016,0.021
		c0.012,0.015,0.023,0.03,0.035,0.045c0.008,0.009,0.011,0.013,0.018,0.022c0.012,0.014,0.023,0.029,0.034,0.043
		c0.005,0.006,0.013,0.017,0.018,0.022c0.013,0.016,0.024,0.03,0.036,0.046c0.007,0.009,0.01,0.012,0.016,0.021
		c0.013,0.016,0.026,0.033,0.039,0.049c0.006,0.009,0.008,0.011,0.016,0.02c0.012,0.017,0.024,0.032,0.037,0.048
		c0.004,0.006,0.012,0.016,0.018,0.021c0.012,0.016,0.023,0.031,0.035,0.046c0.005,0.006,0.014,0.018,0.019,0.023
		c0.012,0.015,0.024,0.031,0.036,0.046c0.008,0.009,0.011,0.014,0.018,0.022c0.012,0.016,0.024,0.03,0.037,0.046
		c0.006,0.009,0.01,0.014,0.018,0.022c0.012,0.016,0.022,0.029,0.035,0.045c0.004,0.006,0.014,0.018,0.019,0.023
		c0.01,0.013,0.021,0.026,0.03,0.039c0.008,0.009,0.016,0.02,0.023,0.028c0.01,0.013,0.021,0.027,0.032,0.041
		c0.005,0.006,0.015,0.019,0.019,0.024c0.012,0.013,0.022,0.027,0.033,0.041c0.007,0.009,0.014,0.017,0.021,0.025
		c0.011,0.014,0.023,0.029,0.034,0.044c0.005,0.006,0.01,0.012,0.015,0.018c0.013,0.016,0.025,0.032,0.038,0.048
		c0.007,0.009,0.011,0.014,0.018,0.022c0.013,0.016,0.025,0.03,0.037,0.046c0.007,0.009,0.01,0.013,0.017,0.021
		c0.013,0.016,0.024,0.031,0.038,0.047c0.004,0.006,0.012,0.016,0.017,0.021c0.013,0.016,0.025,0.031,0.038,0.048
		c0.005,0.006,0.012,0.014,0.016,0.02c0.014,0.016,0.025,0.031,0.039,0.048c0.006,0.009,0.009,0.012,0.016,0.021
		c0.014,0.016,0.026,0.032,0.039,0.048c0.005,0.006,0.01,0.013,0.015,0.019c0.013,0.016,0.026,0.033,0.04,0.05
		c0.005,0.006,0.01,0.012,0.015,0.018c0.013,0.016,0.025,0.032,0.038,0.047c0.007,0.009,0.008,0.011,0.015,0.02
		c0.012,0.015,0.022,0.028,0.034,0.043c0.008,0.009,0.014,0.017,0.021,0.025c0.011,0.014,0.022,0.028,0.033,0.042
		c0.005,0.006,0.011,0.013,0.016,0.019c0.014,0.017,0.025,0.031,0.037,0.047c0.006,0.006,0.012,0.015,0.018,0.021
		c0.012,0.016,0.025,0.031,0.038,0.048c0.007,0.008,0.009,0.011,0.016,0.02c0.013,0.015,0.026,0.031,0.038,0.047
		c0.008,0.009,0.011,0.013,0.018,0.021c0.014,0.016,0.025,0.03,0.038,0.047c0.005,0.006,0.012,0.014,0.017,0.02
		c0.012,0.016,0.025,0.032,0.038,0.048c0.005,0.006,0.013,0.015,0.017,0.021c0.014,0.016,0.025,0.031,0.039,0.047
		c0.007,0.009,0.009,0.012,0.016,0.02c0.014,0.017,0.025,0.032,0.039,0.048c0.005,0.006,0.012,0.015,0.017,0.021
		c0.013,0.016,0.025,0.031,0.038,0.046c0.004,0.006,0.011,0.015,0.016,0.021c0.012,0.014,0.024,0.029,0.036,0.044
		c0.007,0.009,0.011,0.013,0.019,0.021c0.012,0.015,0.023,0.029,0.035,0.044c0.005,0.006,0.012,0.015,0.018,0.021
		c0.012,0.015,0.024,0.03,0.037,0.046c0.005,0.006,0.01,0.012,0.015,0.018c0.013,0.017,0.026,0.032,0.039,0.048
		c0.005,0.006,0.011,0.013,0.016,0.019c0.013,0.017,0.026,0.032,0.04,0.049c0.005,0.006,0.01,0.013,0.016,0.019
		c0.012,0.016,0.026,0.033,0.039,0.049c0.006,0.006,0.011,0.013,0.016,0.019c0.014,0.016,0.027,0.032,0.04,0.048
		c0.005,0.006,0.011,0.014,0.016,0.02c0.013,0.016,0.026,0.032,0.04,0.048c0.004,0.006,0.012,0.014,0.016,0.02
		c0.014,0.016,0.026,0.031,0.039,0.048c0.008,0.009,0.01,0.011,0.017,0.02c0.013,0.016,0.026,0.031,0.04,0.047
		c0.004,0.006,0.01,0.014,0.016,0.02c0.012,0.015,0.025,0.031,0.038,0.046c0.005,0.006,0.011,0.014,0.017,0.02
		c0.012,0.015,0.023,0.029,0.035,0.043c0.008,0.009,0.012,0.015,0.02,0.023c0.012,0.014,0.022,0.027,0.033,0.041
		c0.008,0.009,0.014,0.016,0.021,0.024c0.013,0.014,0.022,0.026,0.034,0.041c0.006,0.006,0.014,0.017,0.02,0.022
		c0.012,0.015,0.023,0.028,0.036,0.044c0.005,0.006,0.012,0.014,0.017,0.02c0.014,0.016,0.026,0.031,0.039,0.047
		c0.008,0.009,0.01,0.012,0.018,0.021c0.013,0.016,0.025,0.031,0.039,0.047c0.004,0.006,0.012,0.014,0.017,0.02
		c0.013,0.017,0.024,0.03,0.038,0.046c0.005,0.006,0.014,0.017,0.019,0.021c0.013,0.016,0.025,0.03,0.038,0.046
		c0.007,0.009,0.01,0.012,0.018,0.021c0.013,0.016,0.025,0.031,0.039,0.047c0.008,0.009,0.01,0.012,0.017,0.02
		c0.013,0.016,0.026,0.031,0.039,0.047c0.005,0.006,0.012,0.014,0.017,0.02c0.012,0.015,0.023,0.027,0.035,0.042
		c0.008,0.009,0.014,0.016,0.021,0.024c0.011,0.014,0.021,0.026,0.032,0.039c0.007,0.009,0.015,0.018,0.022,0.025
		c0.011,0.014,0.023,0.028,0.035,0.042c0.007,0.009,0.011,0.014,0.018,0.021c0.012,0.015,0.023,0.028,0.036,0.043
		c0.005,0.006,0.014,0.016,0.019,0.021c0.013,0.016,0.025,0.029,0.037,0.045c0.006,0.006,0.013,0.014,0.018,0.02
		c0.013,0.015,0.025,0.03,0.039,0.046c0.007,0.009,0.01,0.012,0.018,0.021c0.014,0.016,0.026,0.031,0.039,0.047
		c0.006,0.006,0.012,0.014,0.017,0.019c0.013,0.016,0.026,0.032,0.04,0.047c0.004,0.006,0.012,0.015,0.018,0.021
		c0.013,0.016,0.025,0.03,0.039,0.046c0.005,0.006,0.012,0.015,0.017,0.021c0.013,0.015,0.026,0.03,0.04,0.046
		c0.007,0.008,0.01,0.012,0.017,0.02c0.015,0.017,0.026,0.032,0.041,0.048c0.005,0.006,0.009,0.011,0.013,0.016
		c0.014,0.016,0.026,0.03,0.04,0.046c0.007,0.009,0.01,0.013,0.018,0.021c0.012,0.015,0.024,0.029,0.036,0.043
		c0.006,0.006,0.014,0.017,0.02,0.021c0.011,0.014,0.022,0.027,0.033,0.04c0.008,0.009,0.016,0.019,0.023,0.026
		c0.012,0.014,0.022,0.026,0.034,0.04c0.005,0.006,0.011,0.013,0.017,0.019c0.013,0.016,0.026,0.031,0.039,0.047
		c0.008,0.009,0.011,0.012,0.018,0.021c0.014,0.015,0.027,0.03,0.04,0.046c0.005,0.006,0.013,0.014,0.017,0.02
		c0.014,0.015,0.026,0.03,0.039,0.045c0.005,0.006,0.015,0.017,0.02,0.022c0.013,0.015,0.025,0.03,0.039,0.045
		c0.005,0.006,0.012,0.013,0.016,0.019c0.014,0.016,0.027,0.032,0.041,0.047c0.008,0.009,0.01,0.012,0.018,0.02
		c0.014,0.017,0.026,0.031,0.04,0.047c0.005,0.006,0.011,0.013,0.016,0.019c0.013,0.015,0.026,0.029,0.038,0.044
		c0.006,0.006,0.016,0.017,0.02,0.022c0.013,0.015,0.024,0.027,0.037,0.041c0.007,0.009,0.011,0.014,0.018,0.021
		c0.014,0.015,0.024,0.028,0.037,0.043c0.006,0.006,0.015,0.017,0.02,0.021c0.013,0.015,0.024,0.028,0.037,0.043
		c0.008,0.008,0.011,0.012,0.018,0.021c0.012,0.014,0.025,0.028,0.037,0.042c0.006,0.006,0.016,0.018,0.021,0.023
		c0.013,0.015,0.025,0.028,0.038,0.043c0.008,0.009,0.008,0.01,0.016,0.019c0.014,0.016,0.028,0.032,0.043,0.048
		c0.004,0.006,0.01,0.012,0.015,0.018c0.014,0.016,0.028,0.032,0.042,0.048c0.004,0.005,0.012,0.013,0.016,0.019
		c0.014,0.016,0.027,0.03,0.041,0.046c0.005,0.006,0.012,0.014,0.018,0.02c0.014,0.016,0.027,0.031,0.041,0.047
		c0.004,0.005,0.01,0.011,0.015,0.017c0.015,0.017,0.028,0.032,0.043,0.049c0.005,0.006,0.009,0.011,0.015,0.017
		c0.014,0.016,0.028,0.032,0.043,0.048c0.004,0.006,0.01,0.012,0.015,0.018c0.013,0.014,0.024,0.027,0.037,0.042
		c0.007,0.008,0.013,0.014,0.02,0.022c0.013,0.014,0.026,0.028,0.038,0.043c0.006,0.006,0.01,0.011,0.015,0.016
		c0.015,0.018,0.028,0.032,0.043,0.049c0.005,0.006,0.006,0.007,0.011,0.013c0.016,0.017,0.031,0.034,0.045,0.051
		c0.006,0.006,0.009,0.009,0.014,0.015c0.014,0.017,0.029,0.033,0.043,0.049c0.008,0.009,0.008,0.009,0.016,0.017
		c0.015,0.018,0.028,0.032,0.043,0.049c0.006,0.006,0.01,0.011,0.014,0.016c0.016,0.017,0.029,0.032,0.045,0.049
		c0.004,0.006,0.008,0.011,0.014,0.017c0.014,0.016,0.029,0.033,0.043,0.049c0.006,0.006,0.01,0.011,0.015,0.016
		c0.015,0.017,0.028,0.032,0.044,0.049c0.005,0.006,0.01,0.011,0.015,0.017c0.015,0.016,0.029,0.033,0.044,0.049
		c0.005,0.006,0.008,0.009,0.013,0.015c0.015,0.017,0.03,0.033,0.045,0.05c0.005,0.006,0.007,0.008,0.013,0.014
		c0.014,0.017,0.028,0.032,0.043,0.049c0.006,0.006,0.008,0.008,0.013,0.014c0.014,0.016,0.028,0.031,0.042,0.046
		c0.004,0.006,0.011,0.013,0.016,0.019c0.014,0.016,0.027,0.03,0.041,0.045c0.005,0.006,0.009,0.01,0.014,0.016
		c0.015,0.016,0.029,0.032,0.043,0.048c0.006,0.006,0.011,0.012,0.016,0.017c0.015,0.017,0.029,0.033,0.044,0.049
		c0.003,0.003,0.012,0.014,0.015,0.016c0.014,0.017,0.028,0.032,0.043,0.048c0.004,0.006,0.01,0.012,0.016,0.018
		c0.014,0.016,0.029,0.032,0.043,0.048c0.006,0.006,0.009,0.01,0.014,0.016c0.016,0.016,0.031,0.033,0.046,0.05
		c0.003,0.002,0.009,0.01,0.012,0.013c0.016,0.018,0.032,0.035,0.048,0.053c0.002,0.003,0.007,0.007,0.01,0.01
		c0.016,0.019,0.031,0.035,0.047,0.053c0.006,0.006,0.007,0.007,0.012,0.013c0.016,0.018,0.032,0.035,0.049,0.054
		c0.002,0.002,0.004,0.004,0.007,0.007c0.017,0.019,0.033,0.037,0.05,0.055c0.002,0.003,0.004,0.005,0.007,0.008
		c0.017,0.019,0.032,0.036,0.05,0.055c0.002,0.003,0.003,0.003,0.006,0.006c0.016,0.019,0.033,0.036,0.049,0.054
		c0.006,0.006,0.006,0.007,0.011,0.012c0.017,0.018,0.032,0.035,0.048,0.053c0.002,0.003,0.008,0.008,0.011,0.011
		c0.017,0.019,0.032,0.035,0.048,0.053c0.002,0.003,0.008,0.009,0.011,0.012c0.017,0.018,0.032,0.035,0.049,0.053
		c0.003,0.003,0.007,0.007,0.009,0.01c0.017,0.018,0.032,0.035,0.049,0.053c0.005,0.006,0.006,0.007,0.012,0.013
		c0.016,0.017,0.031,0.034,0.047,0.052c0.002,0.003,0.008,0.009,0.011,0.012c0.017,0.018,0.032,0.034,0.048,0.052
		c0.003,0.003,0.008,0.009,0.011,0.012c0.016,0.017,0.033,0.035,0.049,0.053c0.003,0.003,0.007,0.006,0.009,0.009
		c0.016,0.019,0.033,0.036,0.05,0.054c0.003,0.003,0.007,0.008,0.01,0.011c0.016,0.018,0.031,0.034,0.047,0.051
		c0.003,0.003,0.006,0.006,0.009,0.009c0.016,0.018,0.032,0.036,0.049,0.054c0.002,0.003,0.005,0.005,0.008,0.008
		c0.017,0.019,0.034,0.037,0.051,0.056c0.003,0.002,0.005,0.004,0.008,0.007c0.017,0.019,0.033,0.036,0.051,0.055
		c0.002,0.003,0.006,0.007,0.008,0.01c0.018,0.018,0.033,0.035,0.051,0.053c0.002,0.003,0.006,0.008,0.009,0.011
		c0.017,0.018,0.033,0.035,0.05,0.053c0.005,0.006,0.004,0.005,0.01,0.011c0.016,0.017,0.033,0.035,0.049,0.053
		c0.002,0.002,0.008,0.008,0.01,0.011c0.018,0.018,0.033,0.034,0.049,0.052c0.003,0.003,0.009,0.009,0.012,0.012
		c0.016,0.018,0.032,0.035,0.049,0.052c0.002,0.003,0.006,0.008,0.009,0.011c0.017,0.018,0.034,0.035,0.051,0.054
		c0.003,0.003,0.004,0.004,0.007,0.007c0.018,0.02,0.035,0.037,0.053,0.057c0.003,0.003,0.001,0.001,0.004,0.004
		c0.019,0.02,0.036,0.038,0.055,0.058l0.002,0.003c0.019,0.02,0.035,0.037,0.054,0.057c0.003,0.003,0.004,0.004,0.007,0.007
		c0.018,0.019,0.033,0.036,0.051,0.055c0.006,0.005,0.004,0.004,0.009,0.009c0.017,0.018,0.034,0.036,0.05,0.053
		c0.003,0.003,0.008,0.008,0.01,0.011c0.017,0.017,0.033,0.034,0.049,0.051c0.003,0.003,0.01,0.01,0.012,0.013
		c0.016,0.017,0.033,0.035,0.049,0.052c0.006,0.005,0.005,0.005,0.01,0.011c0.018,0.017,0.033,0.034,0.051,0.052
		c0.002,0.003,0.006,0.007,0.009,0.01c0.017,0.018,0.034,0.037,0.052,0.055c0.002,0.002,0.004,0.004,0.007,0.007
		c0.018,0.019,0.034,0.037,0.052,0.056l0.007,0.007c0.019,0.019,0.036,0.038,0.054,0.057c0.003,0.003,0.002,0.001,0.004,0.004
		c0.02,0.02,0.037,0.038,0.057,0.059l0.002,0.002c0.019,0.02,0.037,0.04,0.057,0.06l0.002,0.002c0.018,0.02,0.036,0.038,0.055,0.057
		c0.002,0.003,0.003,0.004,0.006,0.006c0.018,0.02,0.036,0.039,0.055,0.058l0.004,0.005c0.019,0.019,0.036,0.037,0.055,0.056
		c0.002,0.003,0.004,0.004,0.006,0.007c0.019,0.019,0.036,0.037,0.054,0.056c0.003,0.003,0.003,0.004,0.006,0.007
		c0.019,0.019,0.036,0.036,0.054,0.055l0.007,0.008c0.019,0.019,0.036,0.037,0.054,0.056c0.003,0.003,0.002,0.002,0.005,0.005
		c0.019,0.02,0.036,0.037,0.055,0.057c0.003,0.003,0.003,0.004,0.006,0.006c0.019,0.02,0.036,0.038,0.056,0.058l0.002,0.002
		c0.02,0.02,0.039,0.04,0.057,0.06c0.004,0.002,0.002,0,0.004,0.003c0.078,0.081,0.156,0.161,0.234,0.241l0.004,0.004
		c0.02,0.02,0.039,0.04,0.059,0.06v0.001c0.02,0.02,0.039,0.039,0.059,0.06l0.003,0.003c0.019,0.02,0.038,0.039,0.057,0.059
		l0.003,0.003c0.02,0.02,0.038,0.038,0.057,0.058c0.003,0.002,0.002,0.002,0.005,0.005c0.02,0.02,0.038,0.038,0.058,0.058v0.001
		c0.101,0.103,0.2,0.203,0.301,0.305v0.001c0.02,0.02,0.039,0.04,0.059,0.06l0.003,0.002c0.02,0.02,0.038,0.038,0.058,0.058
		c0.002,0.003,0.001,0.002,0.004,0.004c0.019,0.02,0.038,0.039,0.057,0.058l0.003,0.003c0.02,0.02,0.039,0.04,0.06,0.06v0.001
		c0.021,0.02,0.039,0.039,0.06,0.06c0.003,0.003-0.001-0.002,0.001,0.001c3.169,3.182,6.514,6.187,10.021,8.999
		c1.385,1.109,3.041,1.648,4.688,1.648c2.197,0,4.374-0.961,5.855-2.809c2.592-3.231,2.072-7.952-1.16-10.543
		c-10.096-8.095-18.522-17.848-25.049-28.988C557.93,700.599,555.422,699.271,552.846,699.271L552.846,699.271z M612.268,748.517
		c-3.082,0-5.973,1.916-7.065,4.986c-1.388,3.898,0.644,8.183,4.538,9.576c6.845,2.438,13.98,4.271,21.334,5.437
		c0,0,0.001,0,0.002,0.001c0.108,0.017,0.214,0.033,0.322,0.05c0.002,0.001,0.002,0.001,0.003,0.001
		c0.077,0.012,0.149,0.023,0.228,0.035c0.004,0,0.005,0.001,0.008,0.001c0.031,0.005,0.055,0.009,0.086,0.014
		c0.001,0,0.003,0,0.005,0c0.046,0.008,0.09,0.014,0.136,0.021c0.002,0,0.004,0,0.006,0c0.031,0.005,0.057,0.009,0.088,0.014
		c0,0,0.002,0,0.003,0c0.046,0.008,0.09,0.014,0.136,0.021c0.003,0.001,0.007,0.001,0.01,0.002c0.026,0.004,0.055,0.008,0.082,0.012
		c0.003,0.001,0.005,0.001,0.008,0.002c0.074,0.011,0.15,0.021,0.224,0.032c0.004,0.001,0.009,0.002,0.013,0.002
		c0.023,0.004,0.056,0.009,0.079,0.012c0.003,0.001,0.007,0.001,0.011,0.002c0.046,0.007,0.085,0.012,0.131,0.019
		c0.006,0.001,0.012,0.002,0.016,0.003c0.023,0.003,0.051,0.007,0.074,0.011c0.005,0,0.01,0.001,0.015,0.002
		c0.047,0.007,0.086,0.012,0.132,0.019c0.004,0.001,0.008,0.001,0.012,0.002c0.023,0.003,0.055,0.008,0.078,0.011
		c0.004,0.001,0.008,0.001,0.012,0.002c0.074,0.011,0.146,0.021,0.221,0.031c0.007,0.001,0.012,0.001,0.018,0.002
		c0.023,0.004,0.053,0.008,0.076,0.011c0.003,0.001,0.008,0.001,0.011,0.002c0.047,0.006,0.087,0.012,0.134,0.019
		c0.004,0,0.008,0.001,0.012,0.001c0.023,0.004,0.053,0.008,0.076,0.011c0.005,0.001,0.01,0.001,0.016,0.002
		c0.027,0.004,0.059,0.008,0.086,0.012h0.001c0.016,0.003,0.03,0.005,0.045,0.007c0.003,0,0.005,0,0.008,0.001
		c0.023,0.003,0.058,0.008,0.081,0.011c0.005,0.001,0.01,0.001,0.014,0.002c0.023,0.003,0.055,0.007,0.078,0.011
		c0.003,0,0.008,0.001,0.011,0.001c0.047,0.007,0.085,0.012,0.132,0.018c0.006,0.001,0.011,0.002,0.016,0.002
		c0.023,0.004,0.052,0.007,0.075,0.011c0.005,0,0.01,0.001,0.014,0.001c0.047,0.007,0.086,0.012,0.133,0.018
		c0.005,0.001,0.008,0.001,0.013,0.002c0.023,0.003,0.051,0.007,0.074,0.01c0.006,0.001,0.012,0.002,0.018,0.002
		c0.023,0.003,0.051,0.007,0.074,0.01c0.006,0.001,0.01,0.001,0.015,0.002c0.016,0.002,0.026,0.004,0.042,0.006
		c0.007,0.001,0.014,0.001,0.021,0.002c0.02,0.003,0.047,0.007,0.066,0.009c0.007,0.001,0.013,0.002,0.021,0.003
		c0.023,0.003,0.042,0.005,0.065,0.008c0.007,0.001,0.017,0.002,0.023,0.003c0.012,0.002,0.026,0.004,0.038,0.005
		c0.015,0.002,0.029,0.004,0.044,0.006c0.012,0.002,0.032,0.004,0.044,0.006c0.009,0.001,0.017,0.002,0.025,0.003
		c0.023,0.003,0.037,0.005,0.061,0.008c0.008,0.001,0.018,0.002,0.026,0.003c0.02,0.003,0.046,0.006,0.065,0.009
		c0.007,0.001,0.014,0.001,0.02,0.002c0.016,0.002,0.025,0.003,0.041,0.005c0.009,0.002,0.016,0.002,0.024,0.004
		c0.021,0.002,0.041,0.005,0.061,0.007c0.009,0.001,0.019,0.003,0.026,0.004c0.02,0.002,0.041,0.005,0.061,0.007
		c0.009,0.001,0.017,0.002,0.025,0.003c0.016,0.002,0.023,0.003,0.039,0.005c0.01,0.001,0.019,0.003,0.027,0.004
		c0.02,0.002,0.04,0.005,0.06,0.007c0.009,0.001,0.018,0.002,0.026,0.003c0.02,0.003,0.036,0.005,0.056,0.007
		c0.011,0.002,0.021,0.003,0.032,0.004c0.012,0.002,0.025,0.003,0.037,0.005c0.016,0.002,0.031,0.004,0.049,0.006
		c0.012,0.001,0.026,0.003,0.038,0.005c0.009,0.001,0.017,0.002,0.025,0.003c0.02,0.002,0.042,0.005,0.062,0.007
		c0.008,0.001,0.018,0.002,0.025,0.003c0.016,0.002,0.037,0.005,0.053,0.007c0.012,0.001,0.022,0.002,0.034,0.004
		c0.012,0.001,0.024,0.003,0.036,0.004c0.014,0.002,0.025,0.003,0.037,0.005c0.016,0.002,0.034,0.004,0.05,0.006
		c0.01,0.001,0.021,0.002,0.03,0.003c0.02,0.003,0.032,0.004,0.052,0.006c0.011,0.002,0.024,0.003,0.035,0.005
		c0.012,0.001,0.022,0.002,0.034,0.004c0.018,0.002,0.035,0.004,0.053,0.006c0.012,0.001,0.021,0.002,0.033,0.004
		c0.012,0.001,0.023,0.002,0.037,0.004c0.016,0.002,0.029,0.004,0.045,0.005c0.012,0.002,0.024,0.003,0.036,0.005
		c0.012,0.001,0.022,0.002,0.034,0.004c0.018,0.002,0.035,0.004,0.053,0.006c0.012,0.001,0.021,0.002,0.033,0.004
		c0.013,0.001,0.025,0.002,0.037,0.004c0.016,0.002,0.033,0.004,0.049,0.005c0.011,0.002,0.023,0.003,0.033,0.004
		c0.016,0.002,0.027,0.003,0.043,0.005c0.015,0.002,0.029,0.003,0.043,0.005c0.012,0.001,0.023,0.003,0.035,0.004
		c0.014,0.002,0.029,0.003,0.043,0.005c0.016,0.002,0.025,0.003,0.041,0.004c0.012,0.002,0.024,0.003,0.036,0.004
		c0.016,0.002,0.03,0.004,0.046,0.006c0.012,0.001,0.025,0.003,0.038,0.004c0.012,0.001,0.021,0.002,0.033,0.004
		c0.017,0.002,0.036,0.004,0.052,0.006c0.013,0.001,0.022,0.002,0.034,0.003c0.013,0.002,0.026,0.003,0.038,0.005
		c0.017,0.001,0.029,0.003,0.045,0.004c0.013,0.002,0.025,0.003,0.038,0.005c0.012,0.001,0.021,0.002,0.032,0.003
		c0.018,0.002,0.036,0.004,0.054,0.006c0.008,0.001,0.024,0.003,0.032,0.003c0.015,0.002,0.028,0.003,0.043,0.005
		c0.012,0.001,0.029,0.003,0.041,0.004c0.014,0.002,0.027,0.003,0.04,0.005c0.009,0.001,0.022,0.002,0.03,0.003
		c0.018,0.002,0.035,0.004,0.053,0.006c0.008,0.001,0.023,0.002,0.031,0.003c0.019,0.002,0.037,0.004,0.055,0.006
		c0.012,0.001,0.02,0.002,0.031,0.003s0.026,0.003,0.039,0.004c0.016,0.002,0.026,0.003,0.043,0.005
		c0.014,0.001,0.028,0.003,0.043,0.004c0.012,0.001,0.016,0.002,0.027,0.003c0.02,0.002,0.038,0.004,0.059,0.006
		c0.008,0.001,0.02,0.002,0.027,0.003c0.017,0.002,0.033,0.003,0.05,0.005c0.012,0.002,0.021,0.002,0.032,0.004
		c0.016,0.001,0.029,0.003,0.043,0.004c0.012,0.001,0.018,0.002,0.029,0.003c0.019,0.002,0.039,0.004,0.057,0.006
		c0.008,0.001,0.021,0.002,0.029,0.003c0.018,0.002,0.036,0.003,0.055,0.005c0.008,0.001,0.022,0.003,0.03,0.003
		c0.015,0.002,0.028,0.003,0.042,0.005c0.013,0.001,0.023,0.002,0.036,0.003c0.015,0.002,0.03,0.003,0.046,0.005
		c0.012,0.001,0.021,0.002,0.033,0.003c0.018,0.002,0.037,0.004,0.055,0.006c0.012,0.001,0.016,0.001,0.027,0.002
		c0.017,0.002,0.032,0.003,0.049,0.005c0.008,0.001,0.023,0.002,0.031,0.003c0.017,0.002,0.032,0.003,0.049,0.005
		c0.008,0.001,0.018,0.002,0.025,0.002c0.02,0.002,0.039,0.004,0.059,0.006c0.008,0.001,0.021,0.002,0.029,0.003
		c0.017,0.002,0.033,0.003,0.05,0.005c0.012,0.001,0.021,0.002,0.032,0.003c0.016,0.001,0.029,0.003,0.044,0.004
		c0.009,0.001,0.021,0.002,0.028,0.003c0.02,0.002,0.038,0.003,0.058,0.005c0.008,0.001,0.019,0.002,0.026,0.003
		c0.02,0.002,0.04,0.004,0.059,0.005c0.009,0.001,0.02,0.002,0.027,0.003c0.016,0.001,0.029,0.003,0.045,0.004
		c0.012,0.001,0.022,0.002,0.034,0.003c0.017,0.002,0.032,0.003,0.048,0.005c0.012,0.001,0.016,0.001,0.028,0.002
		c0.021,0.002,0.039,0.004,0.06,0.006c0.008,0.001,0.018,0.001,0.025,0.002c0.016,0.002,0.033,0.003,0.051,0.005
		c0.012,0.001,0.02,0.002,0.031,0.003c0.017,0.001,0.031,0.003,0.049,0.004c0.008,0.001,0.016,0.002,0.024,0.002
		c0.019,0.002,0.038,0.004,0.058,0.006c0.008,0,0.021,0.001,0.029,0.002c0.02,0.002,0.039,0.004,0.059,0.005
		c0.008,0.001,0.018,0.002,0.025,0.003c0.014,0.001,0.029,0.002,0.043,0.004c0.012,0.001,0.021,0.001,0.033,0.003
		c0.018,0.001,0.035,0.002,0.053,0.004c0.008,0.001,0.019,0.002,0.026,0.002c0.02,0.002,0.04,0.004,0.06,0.006
		c0.008,0,0.019,0.001,0.026,0.002c0.016,0.001,0.032,0.003,0.049,0.004c0.008,0.001,0.021,0.002,0.028,0.003
		c0.019,0.001,0.035,0.003,0.053,0.004c0.012,0.001,0.014,0.001,0.025,0.002c0.021,0.002,0.039,0.004,0.06,0.005
		c0.008,0.001,0.018,0.002,0.025,0.003c0.02,0.001,0.04,0.003,0.06,0.005c0.008,0,0.014,0.001,0.021,0.002
		c0.018,0.001,0.033,0.002,0.051,0.004c0.008,0,0.016,0.001,0.023,0.002c0.021,0.001,0.039,0.003,0.061,0.005
		c0.008,0,0.019,0.001,0.026,0.002c0.021,0.002,0.04,0.003,0.06,0.005c0.008,0.001,0.016,0.001,0.023,0.002
		c0.018,0.001,0.034,0.003,0.051,0.004c0.008,0.001,0.016,0.001,0.023,0.002c0.021,0.002,0.039,0.003,0.06,0.005
		c0.009,0,0.015,0.001,0.023,0.002c0.021,0.001,0.041,0.003,0.062,0.005c0.008,0,0.016,0.001,0.023,0.001
		c0.02,0.002,0.039,0.004,0.059,0.005c0.008,0.001,0.01,0.001,0.018,0.002c0.02,0.001,0.039,0.003,0.059,0.004
		c0.008,0.001,0.014,0.001,0.021,0.002c0.021,0.002,0.041,0.003,0.063,0.005c0.008,0,0.014,0.001,0.021,0.001
		c0.021,0.002,0.043,0.004,0.064,0.005c0.008,0.001,0.013,0.001,0.021,0.002c0.017,0.001,0.035,0.003,0.052,0.004
		c0.008,0.001,0.013,0.001,0.021,0.002c0.021,0.001,0.042,0.003,0.063,0.004c0.008,0.001,0.016,0.002,0.023,0.002
		c0.021,0.002,0.041,0.003,0.063,0.005c0.008,0,0.014,0.001,0.021,0.002c0.018,0.001,0.035,0.002,0.053,0.004
		c0.009,0,0.016,0.001,0.023,0.001c0.019,0.002,0.039,0.003,0.058,0.005c0.008,0,0.016,0.001,0.024,0.001
		c0.02,0.002,0.041,0.003,0.061,0.005c0.009,0,0.016,0.001,0.023,0.002c0.02,0.001,0.038,0.002,0.058,0.004
		c0.009,0,0.017,0.001,0.024,0.002c0.018,0.001,0.035,0.002,0.052,0.003c0.008,0.001,0.017,0.001,0.024,0.002
		c0.021,0.001,0.04,0.003,0.061,0.004c0.008,0.001,0.017,0.002,0.024,0.002c0.021,0.002,0.042,0.003,0.063,0.005
		c0.008,0,0.013,0,0.021,0.001c0.018,0.001,0.036,0.003,0.054,0.004c0.008,0,0.011,0.001,0.019,0.001
		c0.021,0.002,0.041,0.003,0.063,0.004c0.008,0.001,0.017,0.002,0.025,0.002c0.021,0.002,0.04,0.003,0.061,0.004
		c0.009,0.001,0.015,0.001,0.022,0.002c0.019,0.001,0.036,0.002,0.056,0.004c0.008,0,0.017,0.001,0.025,0.001
		c0.018,0.001,0.035,0.003,0.054,0.004c0.008,0.001,0.017,0.001,0.024,0.002c0.02,0.001,0.041,0.002,0.061,0.004
		c0.008,0,0.018,0.001,0.025,0.001c0.02,0.002,0.042,0.003,0.063,0.004c0.004,0.001,0.014,0.001,0.018,0.002
		c0.018,0.001,0.037,0.002,0.055,0.003c0.009,0.001,0.012,0.001,0.02,0.001c0.021,0.002,0.043,0.003,0.064,0.005
		c0.008,0,0.014,0.001,0.021,0.001c0.021,0.001,0.042,0.003,0.063,0.004c0.009,0.001,0.016,0.001,0.023,0.002
		c0.018,0.001,0.036,0.002,0.054,0.003c0.004,0,0.015,0.001,0.019,0.001c0.021,0.001,0.042,0.003,0.063,0.004
		c0.008,0,0.015,0.001,0.022,0.001c0.021,0.002,0.043,0.003,0.064,0.004c0.004,0.001,0.017,0.001,0.021,0.002
		c0.02,0.001,0.039,0.002,0.059,0.003c0.008,0.001,0.015,0.001,0.023,0.002c0.018,0.001,0.037,0.002,0.056,0.003
		c0.004,0,0.015,0.001,0.019,0.001c0.021,0.001,0.044,0.003,0.065,0.004c0.008,0,0.014,0.001,0.021,0.001
		c0.022,0.002,0.044,0.003,0.065,0.004c0.008,0.001,0.008,0.001,0.016,0.001c0.02,0.001,0.039,0.002,0.059,0.004
		c0.008,0,0.01,0,0.018,0c0.021,0.002,0.043,0.003,0.064,0.004c0.008,0.001,0.014,0.001,0.021,0.002
		c0.021,0.001,0.044,0.002,0.065,0.003c0.008,0.001,0.011,0.001,0.019,0.001c0.02,0.001,0.04,0.002,0.06,0.004
		c0.004,0,0.013,0,0.017,0.001c0.021,0.001,0.041,0.002,0.063,0.003c0.004,0,0.017,0.001,0.021,0.001
		c0.022,0.001,0.043,0.003,0.065,0.004c0.004,0,0.016,0.001,0.02,0.001c0.021,0.001,0.043,0.002,0.065,0.003
		c0.004,0.001,0.011,0.001,0.015,0.001c0.021,0.001,0.041,0.002,0.062,0.003c0.008,0.001,0.008,0.001,0.016,0.001
		c0.022,0.002,0.044,0.003,0.067,0.004c0.008,0,0.01,0,0.019,0.001c0.022,0.001,0.046,0.002,0.069,0.003
		c0.004,0.001,0.006,0.001,0.01,0.001c0.021,0.001,0.045,0.002,0.068,0.003c0.004,0.001,0.005,0.001,0.009,0.001
		c0.022,0.001,0.047,0.002,0.069,0.003c0.005,0.001,0.014,0.001,0.018,0.001c0.021,0.001,0.045,0.003,0.067,0.004
		c0.004,0,0.014,0,0.018,0.001c0.021,0.001,0.042,0.002,0.063,0.003c0.008,0,0.006,0,0.014,0c0.021,0.001,0.043,0.003,0.064,0.003
		c0.004,0.001,0.014,0.001,0.018,0.001c0.022,0.001,0.045,0.003,0.066,0.004c0.008,0,0.012,0,0.02,0.001
		c0.021,0.001,0.045,0.002,0.067,0.003c0.004,0,0.011,0,0.015,0c0.02,0.001,0.039,0.002,0.06,0.003c0.008,0,0.009,0,0.017,0.001
		c0.021,0.001,0.044,0.002,0.066,0.003c0.008,0,0.012,0,0.02,0.001c0.021,0.001,0.044,0.002,0.066,0.003c0.008,0,0.01,0,0.018,0.001
		c0.02,0.001,0.039,0.001,0.058,0.002c0.004,0,0.017,0.001,0.021,0.001c0.021,0.001,0.043,0.002,0.063,0.003
		c0.004,0,0.014,0.001,0.019,0.001c0.021,0.001,0.043,0.002,0.065,0.003c0.005,0,0.017,0,0.021,0
		c0.021,0.001,0.046,0.002,0.068,0.003c0.004,0,0.002,0,0.006,0.001c0.021,0.001,0.044,0.001,0.065,0.002
		c0.008,0.001,0.011,0.001,0.019,0.001c0.021,0.001,0.044,0.002,0.066,0.003c0.008,0,0.01,0,0.019,0.001
		c0.022,0,0.046,0.001,0.067,0.002c0.004,0,0.012,0.001,0.016,0.001c0.021,0.001,0.041,0.002,0.063,0.002
		c0.004,0.001,0.008,0.001,0.012,0.001c0.023,0.001,0.047,0.002,0.069,0.003c0.009,0,0.011,0,0.019,0
		c0.023,0.001,0.045,0.002,0.067,0.003c0.005,0,0.011,0,0.016,0c0.022,0.001,0.046,0.002,0.067,0.003h0.006
		c0.023,0.001,0.047,0.002,0.071,0.003c0.004,0,0.012,0,0.016,0c0.022,0.001,0.046,0.002,0.068,0.003c0.004,0,0.013,0,0.017,0.001
		c0.023,0,0.047,0.001,0.07,0.002c0.004,0,0.006,0,0.01,0c0.021,0.001,0.043,0.002,0.064,0.003c0.008,0,0.008,0,0.016,0
		c0.023,0.001,0.045,0.002,0.068,0.003c0.008,0,0.01,0,0.018,0c0.023,0.001,0.045,0.002,0.068,0.002
		c0.008,0.001,0.008,0.001,0.016,0.001c0.022,0.001,0.043,0.001,0.065,0.002c0.004,0,0.003,0,0.007,0
		c0.023,0.001,0.048,0.002,0.07,0.003c0.004,0,0.014,0,0.019,0c0.022,0.001,0.045,0.002,0.067,0.002
		c0.005,0,0.012,0.001,0.016,0.001c0.022,0,0.046,0.001,0.068,0.002c0.004,0,0.008,0,0.012,0c0.022,0.001,0.044,0.001,0.066,0.002
		c0.004,0,0.01,0,0.014,0.001c0.024,0,0.047,0.001,0.071,0.002c0.004,0,0.011,0,0.015,0c0.023,0.001,0.047,0.001,0.071,0.002
		c0.004,0,0.005,0,0.009,0c0.022,0.001,0.045,0.002,0.068,0.002c0.004,0,0.007,0,0.011,0.001c0.024,0,0.047,0.001,0.071,0.001
		c0.008,0.001,0.006,0.001,0.015,0.001c0.024,0.001,0.048,0.001,0.071,0.002h0.01c0.025,0.001,0.05,0.001,0.075,0.002h0.001
		c0.024,0.001,0.049,0.001,0.072,0.002c0.004,0,0.014,0,0.018,0c0.023,0.001,0.045,0.001,0.068,0.002c0.004,0,0.012,0,0.016,0
		c0.023,0.001,0.047,0.001,0.071,0.002c0.004,0,0.004,0,0.008,0c0.022,0.001,0.045,0.001,0.067,0.002c0.004,0,0.01,0,0.014,0
		c0.021,0.001,0.046,0.001,0.068,0.002c0.008,0,0.011,0,0.02,0c0.021,0.001,0.046,0.001,0.068,0.002c0.004,0,0.008,0,0.012,0
		c0.022,0,0.043,0.001,0.065,0.001c0.004,0,0.009,0,0.013,0c0.023,0.001,0.047,0.001,0.07,0.002c0.004,0,0.011,0,0.015,0
		c0.023,0.001,0.048,0.001,0.071,0.002c0.004,0,0.009,0,0.013,0c0.024,0,0.048,0.001,0.073,0.001h0.001
		c0.024,0.001,0.048,0.001,0.073,0.002c0.004,0,0.011,0,0.015,0c0.022,0,0.047,0.001,0.069,0.001c0.004,0,0.012,0,0.016,0
		c0.023,0.001,0.047,0.001,0.071,0.002c0.004,0,0.007,0,0.011,0c0.021,0,0.045,0,0.066,0.001c0.004,0,0.008,0,0.012,0
		c0.023,0,0.047,0.001,0.07,0.001c0.008,0,0.009,0,0.017,0c0.024,0.001,0.046,0.001,0.071,0.001l0.011,0.001
		c0.023,0,0.046,0,0.069,0c0.004,0.001,0.003,0.001,0.008,0.001c0.023,0,0.049,0,0.072,0.001c0.004,0,0.01,0,0.014,0
		c0.023,0,0.047,0,0.071,0.001c0.004,0,0.01,0,0.014,0c0.024,0,0.048,0,0.073,0.001h0.005c0.023,0,0.046,0,0.069,0.001
		c0.004,0,0.011,0,0.015,0c0.024,0,0.047,0,0.071,0.001c0.004,0,0.01,0,0.014,0c0.023,0,0.049,0,0.072,0c0.004,0,0.004,0,0.008,0
		c0.023,0.001,0.048,0.001,0.072,0.001c0.004,0,0.003,0,0.007,0c0.024,0,0.049,0.001,0.073,0.001c0.004,0,0.01,0,0.014,0
		c0.023,0,0.049,0,0.072,0c0.004,0.001,0.007,0.001,0.011,0.001c0.024,0,0.05,0,0.074,0h0.002c0.024,0,0.05,0.001,0.075,0.001
		c0.004,0,0.008,0,0.012,0c0.023,0,0.048,0,0.07,0c0.005,0,0.014,0,0.018,0c0.023,0,0.047,0,0.071,0.001c0.005,0,0.001,0,0.005,0
		c0.023,0,0.047,0,0.07,0c0.005,0,0.009,0,0.014,0c0.022,0,0.047,0,0.07,0c0.008,0,0.007,0,0.015,0c0.024,0,0.048,0,0.072,0.001
		c0.004,0,0.007,0,0.011,0c0.023,0,0.045,0,0.068,0c0.004,0,0.006,0,0.01,0c0.023,0,0.047,0,0.071,0c0.004,0,0.011,0,0.016,0
		c0.022,0,0.047,0,0.07,0c0.004,0,0.009,0,0.014,0c0.024,0,0.05,0,0.074,0l0,0c0.017,0,0.031,0,0.048,0c0.004,0,0.008,0,0.012,0
		c0.013,0,0.024,0,0.037,0c0.003,0,0.006,0,0.01,0c0.012,0,0.024,0,0.037,0c0.005,0,0.01,0,0.015,0c0.013,0,0.021,0,0.032,0
		c0.006,0,0.013,0,0.019,0c0.013,0,0.017,0,0.029,0c0.006,0,0.012,0,0.018,0c0.013,0,0.019,0,0.03,0c0.006,0,0.014,0,0.02,0
		c0.008,0,0.019,0,0.027,0c0.006,0,0.014,0,0.021,0c0.008-0.001,0.019-0.001,0.027-0.001c0.007,0,0.014,0,0.021,0
		c0.008,0,0.02,0,0.027,0c0.006,0,0.012,0,0.018,0c0.008,0,0.023,0,0.031,0c0.006,0,0.012,0,0.018,0c0.008,0,0.021,0,0.029,0
		c0.006,0,0.012,0,0.018,0c0.008,0,0.023,0,0.031,0c0.006,0,0.012,0,0.017,0c0.009-0.001,0.025-0.001,0.034-0.001
		c0.004,0,0.008,0,0.012,0c0.012,0,0.024,0,0.036,0c0.004,0,0.008,0,0.012,0c0.013,0,0.024,0,0.037,0c0.003,0,0.007,0,0.011,0
		c0.012,0,0.022,0,0.035,0c0.004,0,0.01,0,0.014-0.001c0.012,0,0.025,0,0.037,0c0.004,0,0.006,0,0.01,0c0.012,0,0.025,0,0.037,0
		c0.004,0,0.008,0,0.012,0c0.031,0,0.059-0.001,0.091-0.001c0.001,0,0.003,0,0.004,0c0.129-0.001,0.257-0.002,0.386-0.004
		c0.001,0,0.002,0,0.003,0c0.032,0,0.062,0,0.094-0.001c0.001,0,0.002,0,0.002,0c0.017,0,0.031,0,0.047,0c0.001,0,0.001,0,0.001,0
		c0.017-0.001,0.029-0.001,0.046-0.001c0.002,0,0.003,0,0.005,0c0.476-0.006,0.945-0.015,1.42-0.026
		c4.136-0.106,7.406-3.542,7.306-7.68c-0.099-4.079-3.437-7.317-7.494-7.317c-0.062,0-0.124,0-0.186,0.002
		c-0.861,0.021-1.735,0.031-2.6,0.031c-12.095,0-23.943-2.035-35.218-6.048C613.951,748.656,613.104,748.516,612.268,748.517
		L612.268,748.517z M724.566,726.738c-1.769,0-3.543,0.622-4.971,1.887c-9.695,8.589-20.729,15.234-32.795,19.75
		c-3.879,1.451-5.847,5.773-4.395,9.652c1.127,3.014,3.986,4.873,7.025,4.873c0.873,0,1.762-0.153,2.627-0.478
		c11.565-4.328,22.284-10.391,31.841-17.87l0,0c0.045-0.035,0.089-0.069,0.134-0.104l0.002-0.001
		c0.044-0.035,0.088-0.07,0.133-0.105h0.001c0.089-0.07,0.178-0.141,0.267-0.211c0.004-0.003-0.002,0.001,0.001-0.001
		c0.022-0.018,0.044-0.034,0.065-0.052l0.003-0.002c0.021-0.017,0.041-0.032,0.062-0.049c0.003-0.003,0.004-0.004,0.007-0.006
		c0.021-0.017,0.04-0.032,0.062-0.049c0.003-0.002,0.002-0.002,0.005-0.004c0.021-0.016,0.04-0.032,0.061-0.048
		c0.003-0.003,0.006-0.005,0.009-0.007c0.02-0.016,0.039-0.031,0.059-0.047c0.003-0.002,0.006-0.005,0.009-0.007
		c0.02-0.016,0.038-0.03,0.058-0.046c0.003-0.003,0.008-0.007,0.011-0.009c0.02-0.016,0.038-0.03,0.058-0.046
		c0.003-0.003,0.004-0.004,0.007-0.006c0.021-0.017,0.041-0.032,0.061-0.049c0.003-0.002,0.002-0.001,0.005-0.004
		c0.02-0.016,0.041-0.032,0.061-0.048c0.003-0.002,0.001-0.001,0.004-0.004c0.02-0.016,0.04-0.031,0.06-0.047
		c0.003-0.003,0.006-0.005,0.009-0.008c0.02-0.016,0.037-0.03,0.057-0.046c0.003-0.002,0.009-0.006,0.012-0.009
		c0.019-0.015,0.037-0.029,0.056-0.045c0.003-0.002,0.009-0.007,0.012-0.009c0.019-0.016,0.035-0.029,0.054-0.044
		c0.006-0.005,0.009-0.007,0.015-0.012c0.017-0.014,0.034-0.027,0.052-0.042c0.006-0.004,0.011-0.009,0.017-0.014
		c0.018-0.014,0.033-0.026,0.051-0.041c0.003-0.002,0.013-0.01,0.016-0.013c0.018-0.014,0.035-0.028,0.053-0.042
		c0.006-0.005,0.008-0.007,0.014-0.012c0.018-0.014,0.036-0.028,0.054-0.043c0.003-0.003,0.009-0.008,0.012-0.01
		c0.018-0.014,0.034-0.027,0.052-0.042c0.006-0.005,0.009-0.007,0.015-0.012c0.016-0.014,0.034-0.028,0.051-0.041
		c0.003-0.003,0.007-0.006,0.01-0.009c0.019-0.015,0.037-0.03,0.056-0.045c0.006-0.005,0.006-0.005,0.012-0.01
		c0.018-0.015,0.035-0.028,0.053-0.043c0.006-0.005,0.01-0.008,0.016-0.013c0.017-0.014,0.033-0.027,0.05-0.04
		c0.006-0.005,0.013-0.011,0.019-0.016c0.016-0.014,0.032-0.026,0.048-0.039c0.006-0.005,0.014-0.011,0.02-0.016
		c0.016-0.014,0.032-0.026,0.049-0.04c0.006-0.005,0.012-0.01,0.018-0.015c0.016-0.013,0.033-0.027,0.049-0.041
		c0.006-0.004,0.013-0.01,0.019-0.015c0.017-0.014,0.032-0.026,0.049-0.04c0.006-0.005,0.012-0.01,0.018-0.015
		c0.016-0.013,0.031-0.026,0.047-0.038c0.006-0.005,0.013-0.011,0.019-0.016c0.016-0.013,0.028-0.023,0.044-0.036
		c0.006-0.005,0.017-0.014,0.022-0.019c0.014-0.012,0.028-0.023,0.043-0.035c0.008-0.007,0.014-0.012,0.022-0.019
		c0.014-0.012,0.026-0.022,0.04-0.034c0.006-0.004,0.02-0.016,0.025-0.021c0.015-0.012,0.028-0.022,0.042-0.035
		c0.009-0.007,0.014-0.011,0.022-0.018c0.015-0.013,0.029-0.024,0.045-0.037c0.008-0.008,0.013-0.011,0.021-0.019
		c0.015-0.013,0.03-0.024,0.045-0.037c0.006-0.005,0.018-0.015,0.022-0.019c0.015-0.013,0.028-0.024,0.043-0.036
		c0.009-0.007,0.017-0.014,0.025-0.021c0.015-0.012,0.028-0.022,0.042-0.035c0.009-0.007,0.017-0.013,0.025-0.02
		c0.011-0.01,0.022-0.02,0.033-0.028c0.012-0.01,0.021-0.019,0.033-0.028c0.012-0.009,0.021-0.018,0.032-0.026
		c0.012-0.01,0.023-0.02,0.034-0.029c0.01-0.007,0.019-0.015,0.027-0.022c0.015-0.012,0.029-0.023,0.043-0.036
		c0.008-0.006,0.016-0.012,0.022-0.019c0.015-0.012,0.027-0.022,0.041-0.034c0.009-0.008,0.018-0.015,0.026-0.022
		c0.015-0.012,0.026-0.021,0.041-0.034c0.008-0.007,0.018-0.015,0.025-0.021c0.012-0.009,0.025-0.021,0.037-0.03
		c0.009-0.008,0.019-0.016,0.028-0.024c0.034-0.028,0.064-0.055,0.1-0.083c0.006-0.006,0.012-0.011,0.019-0.017
		c0.017-0.014,0.032-0.027,0.05-0.042c0.004-0.003,0.008-0.007,0.012-0.01c0.018-0.015,0.038-0.031,0.055-0.046
		c0.005-0.005,0.01-0.009,0.015-0.013c0.02-0.017,0.034-0.029,0.055-0.046c0.003-0.003,0.007-0.007,0.011-0.009
		c0.017-0.015,0.039-0.033,0.056-0.048c0.005-0.004,0.008-0.007,0.013-0.011c0.017-0.015,0.041-0.034,0.058-0.049
		c0.002-0.002,0.006-0.005,0.008-0.007c0.02-0.017,0.04-0.034,0.061-0.051c0.003-0.003,0.005-0.005,0.007-0.007
		c0.62-0.527,1.229-1.057,1.839-1.596c3.091-2.748,3.374-7.481,0.63-10.578C728.7,727.592,726.639,726.738,724.566,726.738
		L724.566,726.738z M761.304,658.908c-3.663,0-6.867,2.687-7.412,6.418c-1.865,12.771-6.029,24.947-12.376,36.193
		c-2.035,3.607-0.762,8.183,2.846,10.219c1.165,0.657,2.431,0.969,3.68,0.969c2.611,0,5.148-1.366,6.529-3.799
		c0.839-1.486,1.649-2.995,2.426-4.521c0,0,0-0.001,0.001-0.001c0.014-0.027,0.024-0.049,0.038-0.075
		c0.002-0.003,0.004-0.008,0.006-0.012c0.012-0.023,0.023-0.046,0.035-0.069c0.001-0.003,0.003-0.006,0.004-0.009
		c0.014-0.026,0.023-0.046,0.037-0.073c0.002-0.002,0.002-0.004,0.004-0.006c0.014-0.027,0.025-0.05,0.039-0.077
		c0-0.001,0-0.002,0.001-0.003c0.012-0.023,0.023-0.047,0.036-0.07c0.001-0.004,0.003-0.008,0.005-0.011
		c0.007-0.014,0.013-0.024,0.02-0.038c0.003-0.006,0.005-0.01,0.007-0.015c0.013-0.024,0.021-0.041,0.032-0.064
		c0.003-0.006,0.007-0.012,0.009-0.018c0.011-0.021,0.021-0.04,0.03-0.061c0.004-0.006,0.008-0.014,0.011-0.021
		c0.01-0.02,0.018-0.035,0.028-0.056c0.004-0.008,0.009-0.017,0.013-0.024c0.008-0.018,0.017-0.034,0.025-0.051
		c0.004-0.01,0.009-0.019,0.014-0.028c0.009-0.017,0.016-0.03,0.023-0.048c0.005-0.009,0.011-0.021,0.016-0.03
		s0.013-0.025,0.018-0.035c0.007-0.015,0.015-0.029,0.021-0.044c0.007-0.014,0.01-0.019,0.017-0.032
		c0.008-0.016,0.015-0.031,0.022-0.047c0.006-0.01,0.01-0.02,0.016-0.029c0.008-0.016,0.016-0.033,0.023-0.049
		c0.006-0.011,0.01-0.02,0.015-0.029c0.007-0.013,0.013-0.025,0.02-0.038c0.005-0.011,0.014-0.029,0.019-0.039
		c0.007-0.013,0.014-0.026,0.02-0.039c0.007-0.014,0.012-0.022,0.018-0.036c0.007-0.013,0.014-0.027,0.021-0.04
		c0.005-0.01,0.011-0.022,0.016-0.033c0.008-0.016,0.016-0.03,0.023-0.046c0.005-0.01,0.007-0.015,0.012-0.024
		c0.009-0.018,0.017-0.034,0.025-0.052c0.005-0.011,0.009-0.017,0.014-0.026c0.008-0.018,0.017-0.036,0.025-0.054
		c0.004-0.007,0.009-0.017,0.012-0.023c0.009-0.019,0.019-0.036,0.027-0.055c0.005-0.011,0.005-0.012,0.011-0.021
		c0.01-0.02,0.019-0.039,0.028-0.059c0.003-0.007,0.004-0.009,0.008-0.016c0.01-0.02,0.019-0.039,0.028-0.059
		c0.002-0.003,0.007-0.015,0.009-0.018c0.009-0.019,0.019-0.039,0.028-0.058c0.001-0.003,0.004-0.008,0.005-0.012
		c0.011-0.021,0.021-0.041,0.03-0.062c0.004-0.007,0.005-0.011,0.009-0.017c0.01-0.021,0.02-0.041,0.029-0.062
		c0.002-0.004,0.006-0.013,0.008-0.016c0.01-0.02,0.02-0.041,0.029-0.061c0.003-0.007,0.006-0.012,0.009-0.019
		c0.01-0.021,0.02-0.041,0.029-0.061c0.002-0.003,0.006-0.012,0.008-0.016c0.01-0.021,0.021-0.042,0.03-0.063
		c0.002-0.003,0.005-0.009,0.006-0.012c0.011-0.022,0.021-0.045,0.032-0.067c0.002-0.003,0.002-0.002,0.003-0.006
		c0.012-0.023,0.022-0.047,0.034-0.069l0.002-0.006c0.012-0.022,0.022-0.046,0.033-0.069c0.002-0.003,0.002-0.003,0.004-0.006
		c0.011-0.022,0.021-0.045,0.032-0.067c0.001-0.004,0.004-0.009,0.006-0.013c0.01-0.021,0.021-0.043,0.031-0.065
		c0.001-0.003,0.004-0.008,0.006-0.012c0.011-0.022,0.021-0.043,0.03-0.065c0.002-0.003,0.005-0.009,0.007-0.012
		c0.01-0.021,0.021-0.045,0.031-0.066c0.002-0.004,0.003-0.006,0.005-0.01c0.011-0.023,0.021-0.046,0.032-0.068l0.003-0.007
		c0.036-0.074,0.071-0.149,0.106-0.224l0.002-0.004c0.011-0.023,0.022-0.048,0.034-0.072c0.002-0.003,0.001-0.002,0.002-0.005
		c0.012-0.024,0.023-0.048,0.034-0.072l0.003-0.005c0.011-0.024,0.022-0.048,0.034-0.072c0.001-0.004,0-0.002,0.002-0.005
		c0.012-0.024,0.023-0.05,0.035-0.074l0,0c4.396-9.354,7.621-19.369,9.484-29.855v-0.001c0.025-0.144,0.051-0.286,0.075-0.43
		l0.001-0.001c0.005-0.028,0.009-0.055,0.014-0.082c0.001-0.004,0.001-0.003,0.001-0.007c0.005-0.027,0.01-0.054,0.015-0.081
		l0.001-0.006c0.004-0.026,0.009-0.053,0.014-0.08c0-0.004,0-0.003,0.001-0.007c0.005-0.026,0.009-0.054,0.014-0.08l0.001-0.008
		c0.005-0.025,0.01-0.053,0.014-0.079c0.001-0.004,0.001-0.003,0.001-0.007c0.005-0.025,0.01-0.053,0.014-0.078
		c0.001-0.004,0,0,0.001-0.004c0.004-0.027,0.009-0.053,0.014-0.08l0.001-0.009c0.004-0.025,0.009-0.051,0.013-0.076
		c0.001-0.004,0.002-0.009,0.002-0.013c0.004-0.024,0.009-0.049,0.013-0.073c0.001-0.008,0.001-0.008,0.003-0.016
		c0.004-0.024,0.008-0.049,0.012-0.073c0.001-0.004,0.002-0.009,0.002-0.013c0.004-0.024,0.009-0.051,0.013-0.075
		c0.001-0.004,0.001-0.008,0.002-0.012c0.004-0.025,0.009-0.051,0.013-0.076c0-0.004,0.001-0.007,0.002-0.011
		c0.004-0.023,0.008-0.048,0.012-0.071c0-0.004,0.001-0.009,0.002-0.013c0.004-0.024,0.008-0.048,0.012-0.071
		c0.001-0.004,0.002-0.01,0.002-0.014c0.004-0.023,0.008-0.049,0.012-0.072c0.001-0.004,0.002-0.013,0.003-0.017
		c0.004-0.023,0.008-0.047,0.012-0.07c0.001-0.008,0.001-0.011,0.003-0.019c0.003-0.022,0.007-0.045,0.011-0.067
		c0.001-0.008,0.002-0.015,0.004-0.022c0.003-0.022,0.007-0.043,0.01-0.066c0.002-0.007,0.003-0.015,0.004-0.022
		c0.004-0.021,0.007-0.044,0.011-0.065c0.001-0.008,0.002-0.015,0.004-0.022c0.003-0.019,0.006-0.039,0.009-0.058
		c0.002-0.012,0.003-0.02,0.005-0.03c0.003-0.018,0.005-0.034,0.008-0.051c0.002-0.012,0.004-0.026,0.006-0.038
		c0.003-0.016,0.006-0.033,0.008-0.05c0.002-0.011,0.003-0.019,0.005-0.03c0.003-0.02,0.006-0.038,0.009-0.058
		c0.002-0.012,0.003-0.019,0.005-0.029c0.003-0.021,0.007-0.041,0.01-0.061c0.001-0.008,0.003-0.021,0.004-0.028
		c0.004-0.021,0.007-0.04,0.01-0.06c0.002-0.012,0.003-0.02,0.005-0.031c0.003-0.019,0.006-0.039,0.009-0.059
		c0.002-0.012,0.003-0.018,0.005-0.029c0.002-0.016,0.005-0.033,0.008-0.05c0.001-0.012,0.004-0.027,0.006-0.039
		c0.002-0.016,0.004-0.03,0.007-0.046c0.002-0.016,0.004-0.024,0.006-0.04c0.003-0.015,0.005-0.029,0.007-0.044
		c0.002-0.016,0.005-0.029,0.007-0.045c0.002-0.015,0.005-0.029,0.007-0.044c0.002-0.012,0.003-0.022,0.005-0.034
		c0.003-0.018,0.006-0.036,0.009-0.054c0.001-0.012,0.003-0.024,0.005-0.036c0.003-0.018,0.005-0.036,0.008-0.054
		c0.002-0.012,0.004-0.023,0.006-0.035c0.002-0.017,0.005-0.033,0.007-0.049c0.002-0.012,0.005-0.031,0.007-0.043
		c0.001-0.012,0.003-0.023,0.005-0.035c0.003-0.019,0.005-0.035,0.008-0.055c0.002-0.01,0.003-0.021,0.005-0.03
		c0.003-0.02,0.006-0.042,0.009-0.062c0.002-0.01,0.003-0.017,0.004-0.025c0.004-0.023,0.007-0.044,0.01-0.067
		c0.001-0.008,0.002-0.014,0.004-0.022c0.001-0.011,0.003-0.025,0.005-0.037c0.594-4.095-2.243-7.897-6.339-8.496
		C762.029,658.935,761.664,658.908,761.304,658.908L761.304,658.908z M745.706,583.346c-1.349,0-2.713,0.363-3.942,1.125
		c-3.521,2.181-4.608,6.804-2.427,10.325c6.807,10.989,11.466,22.985,13.85,35.657c0.678,3.602,3.826,6.115,7.362,6.115
		c0.46,0,0.927-0.042,1.395-0.13c4.07-0.766,6.749-4.685,5.985-8.755c-0.001-0.004-0.001-0.006-0.002-0.009
		c-0.005-0.025-0.01-0.051-0.015-0.076c0-0.004-0.001-0.006-0.001-0.01c-0.005-0.026-0.01-0.052-0.015-0.078
		c-0.001-0.004-0.001-0.003-0.002-0.007c-0.011-0.055-0.021-0.109-0.031-0.164c-0.001-0.004,0-0.001-0.001-0.005
		c-0.005-0.027-0.01-0.054-0.016-0.081l-0.001-0.006c-0.005-0.026-0.01-0.053-0.015-0.079c-0.001-0.003-0.001-0.005-0.002-0.009
		c-0.005-0.025-0.011-0.052-0.015-0.077l-0.002-0.009c-0.005-0.025-0.011-0.052-0.016-0.077c0-0.004-0.001-0.006-0.002-0.01
		c-0.005-0.026-0.01-0.052-0.015-0.078l-0.001-0.006c-0.006-0.028-0.011-0.053-0.017-0.081c0-0.004,0,0,0-0.004
		c-0.011-0.055-0.022-0.112-0.033-0.167c-0.001-0.004,0,0.001-0.001-0.002c-0.005-0.028-0.011-0.056-0.017-0.084v-0.002
		c-0.006-0.028-0.011-0.054-0.017-0.082c0-0.004,0-0.003-0.001-0.007c-0.005-0.027-0.011-0.053-0.016-0.08l-0.001-0.006
		c-0.006-0.026-0.011-0.053-0.017-0.079c0-0.004-0.001-0.005-0.001-0.009c-0.006-0.027-0.011-0.054-0.017-0.08v-0.001
		c-0.029-0.143-0.058-0.285-0.087-0.427c-0.001-0.004,0,0.002,0-0.002c-0.006-0.028-0.012-0.056-0.018-0.083l-0.001-0.003
		c-0.005-0.027-0.011-0.056-0.017-0.083c-0.001-0.004,0,0-0.001-0.004c-0.006-0.027-0.011-0.055-0.017-0.083l-0.001-0.001
		c-0.018-0.086-0.035-0.17-0.053-0.255v-0.001c-0.006-0.027-0.012-0.055-0.018-0.083l-0.001-0.004
		c-0.006-0.026-0.012-0.054-0.017-0.081c-0.001-0.003-0.001-0.002-0.002-0.006c-0.006-0.026-0.011-0.052-0.017-0.079l-0.002-0.008
		c-0.005-0.026-0.011-0.052-0.016-0.078c-0.001-0.004-0.002-0.004-0.002-0.008c-0.006-0.026-0.012-0.053-0.018-0.079l-0.001-0.005
		c-0.018-0.085-0.035-0.167-0.054-0.252v-0.002c-0.006-0.027-0.013-0.055-0.019-0.083v-0.003c-0.007-0.028-0.012-0.054-0.018-0.081
		c-0.001-0.004-0.001-0.002-0.002-0.006c-0.006-0.027-0.012-0.054-0.018-0.081l-0.001-0.003c-0.006-0.027-0.012-0.054-0.018-0.081
		c0-0.004,0-0.002-0.001-0.006c-0.006-0.027-0.012-0.054-0.018-0.081l-0.001-0.001c-0.024-0.114-0.049-0.226-0.074-0.339
		l-0.001-0.001c-0.006-0.027-0.012-0.055-0.019-0.083v-0.004c-0.006-0.026-0.013-0.055-0.019-0.082l-0.001-0.004
		c-0.006-0.026-0.013-0.055-0.019-0.082c-0.001-0.004,0,0-0.001-0.004c-0.006-0.028-0.012-0.055-0.019-0.083v-0.001
		c-0.032-0.142-0.063-0.281-0.097-0.423v-0.002c-0.007-0.028-0.013-0.056-0.02-0.084l0,0c-0.007-0.028-0.013-0.057-0.02-0.085v0
		c-0.032-0.142-0.065-0.282-0.099-0.424v-0.001c-0.007-0.027-0.014-0.055-0.02-0.083l-0.001-0.003
		c-0.006-0.027-0.013-0.055-0.02-0.082l-0.001-0.003c-0.006-0.027-0.013-0.055-0.019-0.082l-0.001-0.003
		c-0.033-0.14-0.067-0.281-0.101-0.421v-0.001c-0.008-0.028-0.014-0.055-0.021-0.083l-0.001-0.002
		c-0.007-0.028-0.013-0.055-0.02-0.083l-0.001-0.001c-0.007-0.028-0.013-0.055-0.02-0.083l-0.001,0
		c-0.041-0.169-0.082-0.338-0.124-0.507v0c-0.014-0.056-0.028-0.112-0.042-0.168l0,0c-0.099-0.394-0.198-0.787-0.301-1.179v-0.001
		c-0.008-0.028-0.015-0.055-0.021-0.083l-0.001-0.001c-0.007-0.028-0.014-0.055-0.021-0.083v-0.001
		c-0.037-0.14-0.073-0.279-0.11-0.419l0,0c-0.008-0.028-0.016-0.056-0.022-0.083l-0.001,0c-3.058-11.467-7.771-22.259-13.868-32.103
		C750.67,584.606,748.217,583.346,745.706,583.346L745.706,583.346z M685.103,535.581c-3.153,0-6.088,2.005-7.125,5.164
		c-1.291,3.936,0.853,8.173,4.788,9.465c12.239,4.016,23.532,10.203,33.566,18.391c1.393,1.136,3.07,1.689,4.737,1.689
		c2.175,0,4.333-0.941,5.815-2.758c2.618-3.209,2.14-7.934-1.069-10.553c-1.101-0.898-2.217-1.776-3.35-2.636l-0.001-0.001
		c-0.045-0.034-0.09-0.068-0.136-0.103v0c-0.09-0.068-0.18-0.136-0.271-0.204l-0.003-0.002c-0.021-0.017-0.042-0.032-0.064-0.048
		l-0.005-0.004c-0.021-0.015-0.042-0.031-0.063-0.047c-0.003-0.002-0.003-0.002-0.006-0.005c-0.021-0.016-0.042-0.031-0.063-0.046
		l-0.007-0.005c-0.02-0.015-0.041-0.031-0.062-0.045c-0.003-0.002-0.005-0.004-0.008-0.006c-0.021-0.016-0.04-0.03-0.061-0.045
		c-0.003-0.002-0.005-0.003-0.008-0.006c-0.021-0.016-0.041-0.03-0.062-0.045c-0.003-0.002-0.005-0.003-0.008-0.006
		c-0.021-0.016-0.041-0.031-0.062-0.046c-0.003-0.002-0.003-0.002-0.006-0.004c-0.02-0.014-0.039-0.029-0.058-0.043
		c-0.006-0.004-0.006-0.004-0.012-0.009c-0.019-0.013-0.037-0.028-0.056-0.041c-0.003-0.002-0.008-0.006-0.011-0.008
		c-0.019-0.014-0.037-0.027-0.056-0.042c-0.006-0.004-0.009-0.006-0.015-0.011c-0.019-0.014-0.036-0.026-0.055-0.04
		c-0.003-0.002-0.013-0.009-0.016-0.012c-0.018-0.013-0.035-0.026-0.053-0.039c-0.006-0.004-0.011-0.008-0.017-0.012
		c-0.018-0.013-0.035-0.026-0.053-0.04c-0.007-0.004-0.012-0.008-0.018-0.012c-0.018-0.013-0.035-0.026-0.052-0.039
		c-0.006-0.004-0.013-0.009-0.019-0.014c-0.018-0.013-0.034-0.025-0.051-0.038c-0.006-0.004-0.014-0.01-0.02-0.014
		c-0.016-0.011-0.031-0.023-0.047-0.034c-0.009-0.006-0.014-0.01-0.022-0.017c-0.015-0.011-0.029-0.021-0.045-0.033
		c-0.006-0.004-0.017-0.013-0.023-0.017c-0.014-0.011-0.029-0.021-0.043-0.032c-0.01-0.007-0.015-0.011-0.023-0.018
		c-0.016-0.011-0.03-0.022-0.046-0.033c-0.006-0.004-0.014-0.01-0.021-0.015c-0.017-0.012-0.031-0.023-0.048-0.035
		c-0.009-0.007-0.014-0.01-0.022-0.017c-0.017-0.012-0.031-0.023-0.048-0.035c-0.01-0.007-0.014-0.01-0.022-0.016
		c-0.016-0.011-0.031-0.022-0.046-0.034c-0.006-0.004-0.02-0.014-0.025-0.019c-0.016-0.011-0.03-0.022-0.046-0.033
		c-0.009-0.007-0.016-0.012-0.025-0.019c-0.014-0.01-0.027-0.02-0.041-0.03c-0.009-0.007-0.021-0.016-0.03-0.022
		c-0.012-0.009-0.024-0.017-0.036-0.026c-0.013-0.009-0.021-0.015-0.033-0.024c-0.011-0.008-0.021-0.016-0.032-0.024
		c-0.013-0.009-0.027-0.02-0.039-0.028c-0.011-0.007-0.02-0.014-0.029-0.021c-0.013-0.009-0.029-0.021-0.042-0.03
		c-0.009-0.007-0.018-0.013-0.027-0.02c-0.015-0.011-0.027-0.02-0.042-0.031c-0.011-0.007-0.02-0.013-0.029-0.021
		c-0.012-0.009-0.021-0.016-0.034-0.024c-0.012-0.009-0.023-0.017-0.035-0.026c-0.01-0.007-0.022-0.016-0.032-0.022
		c-0.013-0.01-0.025-0.019-0.038-0.028c-0.013-0.009-0.021-0.015-0.033-0.024c-0.007-0.005-0.015-0.01-0.021-0.016
		c-0.019-0.013-0.032-0.023-0.051-0.036c-0.006-0.004-0.012-0.009-0.018-0.013c-0.016-0.011-0.037-0.026-0.052-0.038
		c-0.009-0.005-0.017-0.011-0.024-0.017c-0.016-0.011-0.033-0.023-0.048-0.034c-0.007-0.005-0.014-0.01-0.021-0.014
		c-0.019-0.013-0.033-0.024-0.052-0.037c-0.006-0.005-0.013-0.009-0.019-0.014c-0.019-0.013-0.034-0.024-0.053-0.038
		c-0.007-0.004-0.014-0.009-0.02-0.014c-0.016-0.011-0.033-0.024-0.049-0.035c-0.007-0.005-0.017-0.012-0.023-0.017
		c-0.019-0.013-0.036-0.025-0.055-0.039c-0.005-0.003-0.01-0.007-0.015-0.01c-0.085-0.061-0.168-0.119-0.254-0.18
		c-0.001-0.001-0.002-0.002-0.003-0.002c-0.024-0.017-0.046-0.032-0.07-0.049c-0.001-0.001-0.002-0.001-0.004-0.003
		c-0.024-0.017-0.044-0.031-0.069-0.048c-0.001-0.001-0.003-0.002-0.004-0.003c-0.025-0.018-0.044-0.031-0.068-0.048
		c-0.002-0.001-0.004-0.003-0.006-0.004c-0.024-0.017-0.043-0.03-0.067-0.047c-0.002-0.001-0.004-0.003-0.006-0.004
		c-0.136-0.095-0.269-0.188-0.404-0.282c-0.001-0.001-0.001,0-0.001-0.001c-0.025-0.017-0.047-0.033-0.072-0.05
		c-0.001-0.001-0.002-0.002-0.004-0.003c-0.024-0.017-0.045-0.031-0.069-0.048c-0.002-0.001-0.003-0.002-0.005-0.003
		c-9.397-6.515-19.771-11.721-30.857-15.357C686.654,535.7,685.873,535.581,685.103,535.581L685.103,535.581z"/>
</g>
</svg>
