<?xml version="1.0" encoding="iso-8859-1"?>
<!-- Generator: Adobe Illustrator 16.0.0, SVG Export Plug-In . SVG Version: 6.00 Build 0)  -->
<!DOCTYPE svg PUBLIC "-//W3C//DTD SVG 1.1//EN" "http://www.w3.org/Graphics/SVG/1.1/DTD/svg11.dtd">
<svg version="1.1" id="&#x56FE;&#x5C42;_1" xmlns="http://www.w3.org/2000/svg" xmlns:xlink="http://www.w3.org/1999/xlink" x="0px"
	 y="0px" width="1300px" height="1300px" viewBox="0 0 1300 1300" style="enable-background:new 0 0 1300 1300;"
	 xml:space="preserve">
<line style="fill:none;stroke:#E9E9E9;stroke-width:10;stroke-miterlimit:10;" x1="650" y1="650" x2="1169" y2="650"/>
<line style="fill:none;stroke:#E9E9E9;stroke-width:5;stroke-miterlimit:10;" x1="650" y1="650" x2="983.029" y2="408.04"/>
<line style="fill:none;stroke:#E9E9E9;stroke-width:10;stroke-miterlimit:10;" x1="650" y1="650" x2="810.38" y2="156.402"/>
<line style="fill:none;stroke:#E9E9E9;stroke-width:5;stroke-miterlimit:10;" x1="650" y1="650" x2="527.81" y2="273.938"/>
<line style="fill:none;stroke:#E9E9E9;stroke-width:10;stroke-miterlimit:10;" x1="650" y1="650" x2="230.12" y2="344.94"/>
<line style="fill:none;stroke:#E9E9E9;stroke-width:5;stroke-miterlimit:10;" x1="650" y1="650" x2="230.12" y2="650"/>
<line style="fill:none;stroke:#E9E9E9;stroke-width:10;stroke-miterlimit:10;" x1="650" y1="650" x2="230.12" y2="955.062"/>
<line style="fill:none;stroke:#E9E9E9;stroke-width:5;stroke-miterlimit:10;" x1="650" y1="650" x2="524.714" y2="1035.592"/>
<line style="fill:none;stroke:#E9E9E9;stroke-width:10;stroke-miterlimit:10;" x1="650" y1="650" x2="810.381" y2="1143.599"/>
<line style="fill:none;stroke:#E9E9E9;stroke-width:5;stroke-miterlimit:10;" x1="650" y1="650" x2="968.336" y2="881.284"/>
<g>
	<path style="fill:#FFFFFF;" d="M230.12,1040.804c-47.278,0-85.742-38.464-85.742-85.742s38.464-85.742,85.742-85.742
		s85.742,38.464,85.742,85.742S277.398,1040.804,230.12,1040.804z"/>
	<path style="fill:#E2EFF9;" d="M230.12,876.819c43.143,0,78.242,35.1,78.242,78.242s-35.099,78.242-78.242,78.242
		s-78.242-35.1-78.242-78.242S186.977,876.819,230.12,876.819 M230.12,861.819c-51.496,0-93.242,41.745-93.242,93.242
		s41.746,93.242,93.242,93.242c51.497,0,93.242-41.745,93.242-93.242S281.617,861.819,230.12,861.819L230.12,861.819z"/>
</g>
<g>
	<path style="fill:#FFFFFF;" d="M809.168,240.902c-46.594,0-84.5-37.907-84.5-84.5s37.906-84.5,84.5-84.5s84.5,37.907,84.5,84.5
		S855.762,240.902,809.168,240.902z"/>
	<path style="fill:#E2EFF9;" d="M809.168,79.402c42.458,0,77,34.542,77,77s-34.542,77-77,77s-77-34.542-77-77
		S766.71,79.402,809.168,79.402 M809.168,64.402c-50.81,0-92,41.189-92,92s41.19,92,92,92c50.812,0,92-41.189,92-92
		S859.979,64.402,809.168,64.402L809.168,64.402z"/>
</g>
<g>
	<path style="fill:#DEEDD4;" d="M650.001,485c44.073,0,85.508,17.163,116.672,48.327C797.837,564.492,815,605.927,815,650
		s-17.163,85.509-48.327,116.673C735.509,797.838,694.074,815,650.001,815s-85.509-17.162-116.673-48.327
		C502.163,735.508,485,694.073,485,650s17.163-85.508,48.328-116.673C564.492,502.163,605.928,485,650.001,485 M650.001,465
		C547.828,465,465,547.827,465,650s82.828,185,185.001,185S835,752.173,835,650S752.174,465,650.001,465L650.001,465z"/>
</g>
<g>
	<path style="fill:#FFFFFF;" d="M810.382,1242.766c-51.012,0-92.513-41.501-92.513-92.512s41.501-92.512,92.513-92.512
		c51.011,0,92.511,41.501,92.511,92.512S861.393,1242.766,810.382,1242.766z"/>
	<path style="fill:#DEEDD4;" d="M810.382,1065.242c46.875,0,85.011,38.136,85.011,85.012s-38.136,85.012-85.011,85.012
		c-46.876,0-85.013-38.136-85.013-85.012S763.506,1065.242,810.382,1065.242 M810.382,1050.242
		c-55.235,0-100.013,44.776-100.013,100.012s44.777,100.012,100.013,100.012c55.234,0,100.011-44.776,100.011-100.012
		S865.616,1050.242,810.382,1050.242L810.382,1050.242z"/>
</g>
<g>
	<path style="fill:#FFFFFF;" d="M956,479.273c-27.616,0-50.084-22.467-50.084-50.083s22.468-50.083,50.084-50.083
		s50.084,22.467,50.084,50.083S983.616,479.273,956,479.273z"/>
	<path style="fill:#DEEDD4;" d="M956,383.106c25.411,0,46.084,20.673,46.084,46.083S981.411,475.273,956,475.273
		s-46.084-20.673-46.084-46.083S930.589,383.106,956,383.106 M956,375.106c-29.869,0-54.084,24.214-54.084,54.083
		s24.215,54.083,54.084,54.083c29.87,0,54.084-24.214,54.084-54.083S985.87,375.106,956,375.106L956,375.106z"/>
</g>
<g>
	<path style="fill:#FFFFFF;" d="M230.121,437.452c-51.012,0-92.513-41.501-92.513-92.512s41.501-92.512,92.513-92.512
		c51.011,0,92.511,41.501,92.511,92.512S281.132,437.452,230.121,437.452z"/>
	<path style="fill:#DEEDD4;" d="M230.121,259.928c46.875,0,85.011,38.136,85.011,85.012s-38.136,85.012-85.011,85.012
		c-46.876,0-85.013-38.136-85.013-85.012S183.245,259.928,230.121,259.928 M230.121,244.928
		c-55.235,0-100.013,44.776-100.013,100.012s44.777,100.012,100.013,100.012c55.234,0,100.011-44.776,100.011-100.012
		S285.355,244.928,230.121,244.928L230.121,244.928z"/>
</g>
<g>
	<path style="fill:#FFFFFF;" d="M1180.001,762.5c-62.033,0-112.501-50.468-112.501-112.5c0-62.033,50.468-112.5,112.501-112.5
		c62.032,0,112.499,50.467,112.499,112.5C1292.5,712.032,1242.033,762.5,1180.001,762.5z"/>
	<path style="fill:#F6EDCF;" d="M1180.001,545C1237.897,545,1285,592.103,1285,650s-47.103,105-104.999,105
		C1122.104,755,1075,707.897,1075,650S1122.104,545,1180.001,545 M1180.001,530C1113.727,530,1060,583.726,1060,650
		s53.727,120,120.001,120S1300,716.274,1300,650S1246.275,530,1180.001,530L1180.001,530z"/>
</g>
<g>
	<path style="fill:#FFFFFF;" d="M527.048,1100.061c-38.599,0-70.001-31.402-70.001-70s31.402-70,70.001-70
		c38.598,0,69.999,31.402,69.999,70S565.646,1100.061,527.048,1100.061z"/>
	<path style="fill:#F6EDCF;" d="M527.048,965.061c35.84,0,64.999,29.159,64.999,65s-29.159,65-64.999,65
		c-35.842,0-65.001-29.159-65.001-65S491.207,965.061,527.048,965.061 M527.048,955.061c-41.422,0-75.001,33.578-75.001,75
		s33.579,75,75.001,75c41.421,0,74.999-33.578,74.999-75S568.47,955.061,527.048,955.061L527.048,955.061z"/>
</g>
<g>
	<path style="fill:#FFFFFF;" d="M650.001,715C614.159,715,585,685.842,585,650c0-35.841,29.159-65,65.001-65
		C685.842,585,715,614.159,715,650C715,685.842,685.842,715,650.001,715z"/>
	<path style="fill:#FAE2E2;" d="M650.001,590C683.084,590,710,616.916,710,650s-26.916,60-59.999,60
		C616.916,710,590,683.084,590,650S616.916,590,650.001,590 M650.001,580C611.341,580,580,611.34,580,650s31.341,70,70.001,70
		C688.66,720,720,688.66,720,650S688.66,580,650.001,580L650.001,580z"/>
</g>
<g>
	<path style="fill:#FFFFFF;" d="M968.337,931.777c-27.843,0-50.494-22.651-50.494-50.493s22.651-50.493,50.494-50.493
		c27.842,0,50.492,22.651,50.492,50.493S996.179,931.777,968.337,931.777z"/>
	<path style="fill:#FAE2E2;" d="M968.337,834.791c25.636,0,46.492,20.856,46.492,46.493s-20.856,46.493-46.492,46.493
		c-25.637,0-46.494-20.856-46.494-46.493S942.7,834.791,968.337,834.791 M968.337,826.791c-30.096,0-54.494,24.397-54.494,54.493
		s24.398,54.493,54.494,54.493s54.492-24.397,54.492-54.493S998.433,826.791,968.337,826.791L968.337,826.791z"/>
</g>
<g>
	<path style="fill:#FFFFFF;" d="M527.048,325.777c-27.843,0-50.494-22.651-50.494-50.493s22.651-50.493,50.494-50.493
		c27.841,0,50.492,22.651,50.492,50.493S554.89,325.777,527.048,325.777z"/>
	<path style="fill:#FAE2E2;" d="M527.048,228.791c25.636,0,46.492,20.857,46.492,46.493s-20.856,46.493-46.492,46.493
		c-25.637,0-46.494-20.857-46.494-46.493S501.411,228.791,527.048,228.791 M527.048,220.791c-30.096,0-54.494,24.397-54.494,54.493
		s24.398,54.493,54.494,54.493s54.492-24.397,54.492-54.493S557.144,220.791,527.048,220.791L527.048,220.791z"/>
</g>
<g>
	<path style="fill:#FFFFFF;" d="M239.374,700.493c-27.843,0-50.494-22.651-50.494-50.493s22.651-50.493,50.494-50.493
		c27.841,0,50.492,22.651,50.492,50.493S267.215,700.493,239.374,700.493z"/>
	<path style="fill:#FAE2E2;" d="M239.374,603.507c25.636,0,46.492,20.857,46.492,46.493c0,25.637-20.856,46.493-46.492,46.493
		c-25.637,0-46.494-20.856-46.494-46.493C192.879,624.364,213.736,603.507,239.374,603.507 M239.374,595.507
		c-30.096,0-54.494,24.397-54.494,54.493s24.398,54.493,54.494,54.493s54.492-24.397,54.492-54.493S269.469,595.507,239.374,595.507
		L239.374,595.507z"/>
</g>
</svg>
